/* XPM */
static char *result[] = {
/* columns rows colors chars-per-pixel */
"64 64 151 2 ",
"   c black",
".  c #010000",
"X  c #020000",
"o  c #030000",
"O  c #040000",
"+  c #050000",
"@  c #060000",
"#  c #110101",
"$  c #190101",
"%  c #1E0202",
"&  c #220202",
"*  c #360303",
"=  c #4D0505",
"-  c #4E0505",
";  c #610606",
":  c #690606",
">  c #710707",
",  c #720707",
"<  c #770707",
"1  c #7C0707",
"2  c #830808",
"3  c #860808",
"4  c #870A0A",
"5  c #880D0D",
"6  c #8A1010",
"7  c #8B1212",
"8  c #8C1414",
"9  c #8D1616",
"0  c #8D1717",
"q  c #8E1818",
"w  c #8F1A1A",
"e  c #8F1B1B",
"r  c #901C1C",
"t  c #911E1E",
"y  c #922020",
"u  c #932222",
"i  c #932323",
"p  c #942525",
"a  c #952727",
"s  c #962929",
"d  c #972B2B",
"f  c #982D2D",
"g  c #992F2F",
"h  c #9B3333",
"j  c #9D3737",
"k  c #9E3939",
"l  c #A03C3C",
"z  c #A13F3F",
"x  c #A24141",
"c  c #A24242",
"v  c #A34343",
"b  c #A44545",
"n  c #A54848",
"m  c #A74C4C",
"M  c #A84D4D",
"N  c #AB5555",
"B  c #AE5A5A",
"V  c #B05E5E",
"C  c #B15F5F",
"Z  c #B26161",
"A  c #B36464",
"S  c #B46565",
"D  c #B56868",
"F  c #B66A6A",
"G  c #B66B6B",
"H  c #B86E6E",
"J  c #B97070",
"K  c #B97171",
"L  c #BA7373",
"P  c #BB7474",
"I  c #BC7575",
"U  c #BD7777",
"Y  c #BE7B7B",
"T  c #BF7C7C",
"R  c #C07E7E",
"E  c #C18080",
"W  c #C48787",
"Q  c #C58888",
"!  c #C68A8A",
"~  c #C68C8C",
"^  c #C78E8E",
"/  c #C88F8F",
"(  c #C89090",
")  c #C99191",
"_  c #CC9696",
"`  c #CD9999",
"'  c #CE9A9A",
"]  c #CE9B9B",
"[  c #CF9C9C",
"{  c #D09E9E",
"}  c #D09F9F",
"|  c #D0A0A0",
" . c #D1A1A1",
".. c #D3A5A5",
"X. c #D3A6A6",
"o. c #D5AAAA",
"O. c #D6ABAB",
"+. c #D6ACAC",
"@. c #D9B0B0",
"#. c #D9B1B1",
"$. c #DAB3B3",
"%. c #DAB4B4",
"&. c #DBB4B4",
"*. c #DBB5B5",
"=. c #DCB8B8",
"-. c #DDBABA",
";. c #DEBBBB",
":. c #DFBDBD",
">. c #E0BFBF",
",. c #E0C0C0",
"<. c #E1C1C1",
"1. c #E1C2C2",
"2. c #E2C4C4",
"3. c #E2C5C5",
"4. c #E5CBCB",
"5. c #E8CFCF",
"6. c #E8D0D0",
"7. c #E9D2D2",
"8. c #EAD4D4",
"9. c #EBD6D6",
"0. c #ECD7D7",
"q. c #ECD8D8",
"w. c #ECD9D9",
"e. c #EDDADA",
"r. c #EDDBDB",
"t. c #EEDCDC",
"y. c #EFDEDE",
"u. c #EFDFDF",
"i. c #F0E0E0",
"p. c #F0E1E1",
"a. c #F1E2E2",
"s. c #F1E3E3",
"d. c #F2E5E5",
"f. c #F4E8E8",
"g. c #F5EAEA",
"h. c #F6ECEC",
"j. c #F6EDED",
"k. c #F6EEEE",
"l. c #F7EFEF",
"z. c #F8F2F2",
"x. c #F9F2F2",
"c. c #F9F3F3",
"v. c #FAF4F4",
"b. c #FAF5F5",
"n. c #FBF7F7",
"m. c #FCF9F9",
"M. c #FDFAFA",
"N. c #FDFBFB",
"B. c #FEFDFD",
"V. c #FFFEFE",
"C. c white",
/* pixels */
"@ @ @ @ @ @ @ @ @ @ @ @ @ @ @ @ @ @ @ + o X X . . .                         . . . X X o + @ @ @ @ @ @ @ @ @ @ @ @ @ @ @ @ @ @ @ ",
"@ @ @ @ @ @ @ @ @ @ @ @ @ @ @ + o .                                                         . o + @ @ @ @ @ @ @ @ @ @ @ @ @ @ @ ",
"@ @ @ @ @ @ @ @ @ @ @ @ @ O X                                                                     X O @ @ @ @ @ @ @ @ @ @ @ @ @ ",
"@ @ @ @ @ @ @ @ @ @ @ O .                                                                             . O @ @ @ @ @ @ @ @ @ @ @ ",
"@ @ @ @ @ @ @ @ @ + X                                                                                     X + @ @ @ @ @ @ @ @ @ ",
"@ @ @ @ @ @ @ @ O .                                                                                         . O @ @ @ @ @ @ @ @ ",
"@ @ @ @ @ @ @ o                       $ * - ; > 1 2 3 3 3 3 3 3 3 3 3 3 3 3 2 1 > ; - * $                       o @ @ @ @ @ @ @ ",
"@ @ @ @ @ @ o                   % = < 3 3 3 3 3 3 3 3 3 3 3 3 3 3 3 3 3 3 3 3 3 3 3 3 3 3 < = %                   o @ @ @ @ @ @ ",
"@ @ @ @ @ O                 & ; 3 3 3 3 3 3 3 3 3 3 3 3 3 3 3 3 3 3 3 3 3 3 3 3 3 3 3 3 3 3 3 3 ; &                 O @ @ @ @ @ ",
"@ @ @ @ + .               - 3 3 3 3 3 3 3 3 3 3 3 3 3 3 3 3 3 3 3 3 3 3 3 3 3 3 3 3 3 3 3 3 3 3 3 3 -               . + @ @ @ @ ",
"@ @ @ @ X             # : 3 3 3 3 3 3 3 3 3 3 3 3 3 3 3 3 3 3 3 3 3 3 3 3 3 3 3 3 3 3 3 3 3 3 3 3 3 3 : #             X @ @ @ @ ",
"@ @ @ O             # , 3 3 3 3 3 3 3 3 3 3 3 3 3 3 3 3 3 3 3 3 3 3 3 3 3 3 3 3 3 3 3 3 3 3 3 3 3 3 3 3 , #             O @ @ @ ",
"@ @ @ .             : 3 3 3 3 3 3 3 3 3 3 3 3 3 3 3 3 3 3 3 3 3 3 3 3 3 3 3 3 3 3 3 3 3 3 3 3 3 3 3 3 3 3 :             . @ @ @ ",
"@ @ O             - 3 3 3 3 3 3 3 3 3 3 3 3 3 3 3 3 3 3 3 3 3 3 3 3 3 3 3 3 3 3 3 3 3 3 3 3 3 3 3 3 3 3 3 3 -             O @ @ ",
"@ @ X           & 3 3 3 3 3 3 3 3 3 3 3 3 3 3 3 3 3 3 3 3 3 3 h l 6 3 3 3 3 3 3 3 3 3 3 3 3 3 3 3 3 3 3 3 3 3 &           X @ @ ",
"@ +             ; 3 3 3 3 3 4 v.C.Y 3 3 3 3 3 0.C.[ 3 3 u 8.V.C.C.C.q.p 3 3 3 b.m.3 3 3 3 3 W C.~ 3 3 3 3 3 3 ;             + @ ",
"@ o           % 3 3 3 3 3 3 3 B C.N.t 3 3 3 I C.j.4 3 k N.C.i.] O.g.C.z.q 3 3 n.m.3 3 3 3 3 Q C.^ 3 3 3 3 3 3 3 %           o @ ",
"@ .           = 3 3 3 3 3 3 3 3 2.C.5.3 3 r N.C.l 3 3 u.C.( 3 3 3 3 -.C.d.3 3 n.m.3 3 3 3 3 Q C.^ 3 3 3 3 3 3 3 =           . @ ",
"@             < 3 3 3 3 3 3 3 3 0 m.C.A 3 4.C.| 3 3 m C.f.3 3 3 3 3 4 h.C.p 3 n.m.3 3 3 3 3 Q C.^ 3 3 3 3 3 3 3 <             @ ",
"+           $ 3 3 3 3 3 3 3 3 3 3 F C.v.N C.h.4 3 3 ! C.] 3 3 3 3 3 3 @.C.P 3 n.m.3 3 3 3 3 Q C.^ 3 3 3 3 3 3 3 3 $           + ",
"o           * 3 3 3 3 3 3 3 3 3 3 3 6.C.V.V.k 3 3 3 *.C.L 3 3 3 3 3 3 I C.&.3 n.m.3 3 3 3 3 Q C.^ 3 3 3 3 3 3 3 3 *           o ",
"X           - 3 3 3 3 3 3 3 3 3 3 3 y N.C.] 3 3 3 3 =.C.G 3 3 3 3 3 3 H C.%.3 n.M.3 3 3 3 3 ! C.^ 3 3 3 3 3 3 3 3 -           X ",
"X           ; 3 3 3 3 3 3 3 3 3 3 3 3 0.C.i 3 3 3 3 U C._ 3 3 3 3 3 3 ' C.J 3 c.B.3 3 3 3 3 { C.U 3 3 3 3 3 3 3 3 ;           X ",
".           > 3 3 3 3 3 3 3 3 3 3 3 3 0.C.i 3 3 3 3 a C.h.3 3 3 3 3 3 k.C.t 3 g.C.9 3 3 3 3 :.C.b 3 3 3 3 3 3 3 3 >           . ",
".           1 3 3 3 3 3 3 3 3 3 3 3 3 0.C.i 3 3 3 3 3 t.C.} 3 3 3 3 | C.s.3 3 ,.C.#.3 3 3 7 M.C.8 3 3 3 3 3 3 3 3 1           . ",
".           2 3 3 3 3 3 3 3 3 3 3 3 3 0.C.i 3 3 3 3 3 8 k.C.p.[ { a.C.k.0 3 3 g M.C.t.X.%.n.C.o.3 3 3 3 3 3 3 3 3 2           . ",
"            3 3 3 3 3 3 3 3 3 3 3 3 3 0.C.u 3 3 3 3 3 3 i 2.v.C.C.n.4.t 3 3 3 3 c g.V.C.C.v.$.3 3 3 3 3 3 3 3 3 3 3             ",
"            3 3 3 3 3 3 3 3 3 3 3 3 3 3 3 3 3 3 3 3 3 3 3 3 3 d f 3 3 3 3 3 3 3 3 3 5 n y 3 3 3 3 3 3 3 3 3 3 3 3 3             ",
"            3 3 3 3 3 3 3 3 3 3 3 3 3 3 3 3 3 3 3 3 3 3 3 3 3 3 3 3 3 3 3 3 3 3 3 3 3 3 3 3 3 3 3 3 3 3 3 3 3 3 3 3             ",
"            3 3 3 3 3 3 3 3 3 3 3 3 3 3 3 3 3 3 3 3 3 3 3 3 3 3 3 3 3 3 3 3 3 3 3 3 3 3 3 3 3 3 3 3 3 3 3 3 3 3 3 3             ",
"            3 3 3 3 3 3 3 3 3 3 3 3 3 3 3 3 3 3 3 3 3 3 3 3 3 3 3 3 3 3 3 3 3 3 3 3 3 3 3 3 3 3 3 3 3 3 3 3 3 3 3 3             ",
"            3 3 3 3 3 3 3 3 3 3 3 3 3 3 3 3 3 3 3 3 3 3 3 3 3 3 3 3 3 3 3 3 3 3 3 3 3 3 3 3 3 3 3 3 3 3 3 3 3 3 3 3             ",
"            3 3 3 3 3 3 3 3 3 3 3 3 3 3 3 3 3 3 3 3 3 3 3 3 3 3 3 3 3 3 3 3 3 3 3 3 3 3 3 3 3 3 3 3 3 3 3 3 3 3 3 3             ",
"            3 3 3 3 3 3 3 3 3 3 3 3 3 3 3 3 3 3 3 3 3 3 3 3 3 3 3 3 3 3 3 3 3 3 3 3 3 3 3 3 3 3 3 3 3 3 3 3 3 3 3 3             ",
"            3 3 3 3 3 3 3 3 3 3 3 3 3 3 3 3 3 3 3 u b w 3 3 3 3 3 3 3 3 0 x 7 3 3 3 3 3 3 3 3 3 3 3 3 3 3 3 3 3 3 3             ",
"            3 3 3 3 3 3 B.l.3 3 3 3 3 3 3 3 5 @.N.C.C.C.g.N 3 3 3 3 K n.C.C.C.b.Z 3 3 3 b.C.C.C.C.C.C.C.0.3 3 3 3 3             ",
"            3 3 3 3 3 3 B.z.3 3 3 3 3 3 3 5 j.C.x.o.' y.C.B.v 3 3 V C.B.7. .0.V.C.S 3 3 b.V.<.<.<.<.<.<.W 3 3 3 3 3             ",
"            3 3 3 3 3 3 B.z.3 3 3 3 3 3 3  .C.6.5 3 3 3 K C.M.i 3 1.C.F 3 3 3 T C.6.3 3 b.M.3 3 3 3 3 3 3 3 3 3 3 3             ",
".           2 3 3 3 3 3 B.z.3 3 3 3 3 3 3 B.B.t 3 3 3 3 3 =.C.E 3 5.C.V 3 3 3 4 :.] 3 3 b.M.3 3 3 3 3 3 3 3 3 3 3 2           . ",
".           1 3 3 3 3 3 B.z.3 3 3 3 3 3 g C.r.3 3 3 3 3 3 V C.,.3 U C.V.3.G 6 3 3 3 3 3 b.M.7 7 7 7 7 7 3 3 3 3 3 1           . ",
".           > 3 3 3 3 3 B.z.3 3 3 3 3 3 S C.>.3 3 3 3 3 3 w C.g.3 3 ` C.C.C.V.s.C 3 3 3 b.C.C.C.C.C.C.C.B 3 3 3 3 >           . ",
"X           ; 3 3 3 3 3 B.z.3 3 3 3 3 3 D C.-.3 3 3 3 3 3 6 C.g.3 3 3 u ! 0.B.C.C./ 3 3 b.V.4.4.4.4.4.4.j 3 3 3 3 ;           X ",
"X           - 3 3 3 3 3 B.z.3 3 3 3 3 3 r C.q.3 3 3 3 3 3 c C.:.3 9 e 3 3 3 4 ! V.N.3 3 b.M.3 3 3 3 3 3 3 3 3 3 3 -           X ",
"o           * 3 3 3 3 3 B.z.3 3 3 3 3 3 3 b.V.u 3 3 3 3 3 ;.C.Y q C.a.3 3 3 3 3 5.C.l 3 b.M.3 3 3 3 3 3 3 3 3 3 3 *           o ",
"+           $ 3 3 3 3 3 B.z.3 3 3 3 3 3 3 [ C.w.6 3 3 3 B C.M.u 3 j.C.V 3 3 3 7 z.V.5 3 b.M.3 3 3 3 3 3 3 3 3 3 3 $           + ",
"@             < 3 3 3 3 B.B.<.<.<.<.<.V 3 3 1.C.c.+.) 4.C.B.x 3 3 R C.C.9...&.v.C.1.3 3 b.V.<.<.<.<.<.<.%.3 3 3 <             @ ",
"@ .           = 3 3 3 3 B.C.C.C.C.C.C.| 3 3 4 o.j.C.C.B.e.M 3 3 3 3 Z c.C.C.C.M.O.3 3 3 b.C.C.C.C.C.C.C.B.3 3 3 =           . @ ",
"@ o           % 3 3 3 3 3 3 3 3 3 3 3 3 3 3 3 3 3 w z 3 3 3 3 3 3 3 3 3 7 M s 3 3 3 3 3 3 3 3 3 3 3 3 3 3 3 3 3 %           o @ ",
"@ +             ; 3 3 3 3 3 3 3 3 3 3 3 3 3 3 3 3 3 3 3 3 3 3 3 3 3 3 3 3 3 3 3 3 3 3 3 3 3 3 3 3 3 3 3 3 3 3 ;             + @ ",
"@ @ X           & 3 3 3 3 3 3 3 3 3 3 3 3 3 3 3 3 3 3 3 3 3 3 3 3 3 3 3 3 3 3 3 3 3 3 3 3 3 3 3 3 3 3 3 3 3 3 &           X @ @ ",
"@ @ O             - 3 3 3 3 3 3 3 3 3 3 3 3 3 3 3 3 3 3 3 3 3 3 3 3 3 3 3 3 3 3 3 3 3 3 3 3 3 3 3 3 3 3 3 3 -             O @ @ ",
"@ @ @ .             : 3 3 3 3 3 3 3 3 3 3 3 3 3 3 3 3 3 3 3 3 3 3 3 3 3 3 3 3 3 3 3 3 3 3 3 3 3 3 3 3 3 3 :             . @ @ @ ",
"@ @ @ O             # , 3 3 3 3 3 3 3 3 3 3 3 3 3 3 3 3 3 3 3 3 3 3 3 3 3 3 3 3 3 3 3 3 3 3 3 3 3 3 3 3 , #             O @ @ @ ",
"@ @ @ @ X             # : 3 3 3 3 3 3 3 3 3 3 3 3 3 3 3 3 3 3 3 3 3 3 3 3 3 3 3 3 3 3 3 3 3 3 3 3 3 3 : #             X @ @ @ @ ",
"@ @ @ @ + .               - 3 3 3 3 3 3 3 3 3 3 3 3 3 3 3 3 3 3 3 3 3 3 3 3 3 3 3 3 3 3 3 3 3 3 3 3 -               . + @ @ @ @ ",
"@ @ @ @ @ O                 & ; 3 3 3 3 3 3 3 3 3 3 3 3 3 3 3 3 3 3 3 3 3 3 3 3 3 3 3 3 3 3 3 3 ; &                 O @ @ @ @ @ ",
"@ @ @ @ @ @ o                   % = < 3 3 3 3 3 3 3 3 3 3 3 3 3 3 3 3 3 3 3 3 3 3 3 3 3 3 < = %                   o @ @ @ @ @ @ ",
"@ @ @ @ @ @ @ o                       $ * - ; > 1 2 3 3 3 3 3 3 3 3 3 3 3 3 2 1 > ; - * $                       o @ @ @ @ @ @ @ ",
"@ @ @ @ @ @ @ @ O .                                                                                         . O @ @ @ @ @ @ @ @ ",
"@ @ @ @ @ @ @ @ @ + X                                                                                     X + @ @ @ @ @ @ @ @ @ ",
"@ @ @ @ @ @ @ @ @ @ @ O .                                                                             . O @ @ @ @ @ @ @ @ @ @ @ ",
"@ @ @ @ @ @ @ @ @ @ @ @ @ O X                                                                     X O @ @ @ @ @ @ @ @ @ @ @ @ @ ",
"@ @ @ @ @ @ @ @ @ @ @ @ @ @ @ + o .                                                         . o + @ @ @ @ @ @ @ @ @ @ @ @ @ @ @ ",
"@ @ @ @ @ @ @ @ @ @ @ @ @ @ @ @ @ @ @ + o X X . . .                         . . . X X o + @ @ @ @ @ @ @ @ @ @ @ @ @ @ @ @ @ @ @ "
};
