/* XPM */
static char *result[] = {
/* columns rows colors chars-per-pixel */
"64 64 173 2 ",
"   c black",
".  c #010000",
"X  c #020000",
"o  c #030000",
"O  c #040000",
"+  c #050000",
"@  c #060000",
"#  c #110101",
"$  c #190101",
"%  c #1E0202",
"&  c #220202",
"*  c #360303",
"=  c #4D0505",
"-  c #4E0505",
";  c #610606",
":  c #690606",
">  c #710707",
",  c #720707",
"<  c #770707",
"1  c #7C0707",
"2  c #830808",
"3  c #860808",
"4  c #870A0A",
"5  c #870B0B",
"6  c #880D0D",
"7  c #890F0F",
"8  c #8A1010",
"9  c #8B1212",
"0  c #8C1414",
"q  c #8D1616",
"w  c #8D1717",
"e  c #8E1818",
"r  c #8F1A1A",
"t  c #8F1B1B",
"y  c #901C1C",
"u  c #911E1E",
"i  c #922020",
"p  c #932222",
"a  c #952727",
"s  c #962828",
"d  c #962929",
"f  c #972B2B",
"g  c #982D2D",
"h  c #992F2F",
"j  c #9A3131",
"k  c #9B3333",
"l  c #9E3939",
"z  c #A03C3C",
"x  c #A03D3D",
"c  c #A13F3F",
"v  c #A24141",
"b  c #A24242",
"n  c #A34343",
"m  c #A44545",
"M  c #A54747",
"N  c #A54848",
"B  c #A74C4C",
"V  c #A84D4D",
"C  c #A84E4E",
"Z  c #A95050",
"A  c #AB5353",
"S  c #AB5555",
"D  c #AC5555",
"F  c #AD5757",
"G  c #AE5A5A",
"H  c #B05E5E",
"J  c #B15F5F",
"K  c #B26161",
"L  c #B26262",
"P  c #B36464",
"I  c #B46565",
"U  c #B56767",
"Y  c #B56868",
"T  c #B66A6A",
"R  c #B66B6B",
"E  c #B76D6D",
"W  c #B86E6E",
"Q  c #B97171",
"!  c #BA7373",
"~  c #BB7474",
"^  c #BD7777",
"/  c #BD7878",
"(  c #BE7B7B",
")  c #BF7C7C",
"_  c #C07E7E",
"`  c #C28383",
"'  c #C48787",
"]  c #C58888",
"[  c #C68A8A",
"{  c #C68B8B",
"}  c #C68C8C",
"|  c #C78E8E",
" . c #C88F8F",
".. c #C99191",
"X. c #CB9595",
"o. c #CC9696",
"O. c #CD9898",
"+. c #CD9999",
"@. c #CE9B9B",
"#. c #CF9C9C",
"$. c #D09E9E",
"%. c #D1A1A1",
"&. c #D1A2A2",
"*. c #D3A5A5",
"=. c #D3A6A6",
"-. c #D4A7A7",
";. c #D4A8A8",
":. c #D5AAAA",
">. c #D6ABAB",
",. c #D7ADAD",
"<. c #D7AEAE",
"1. c #D8AFAF",
"2. c #D9B0B0",
"3. c #D9B1B1",
"4. c #DAB3B3",
"5. c #DAB4B4",
"6. c #DBB4B4",
"7. c #DBB6B6",
"8. c #DDB9B9",
"9. c #DDBABA",
"0. c #DFBDBD",
"q. c #DFBEBE",
"w. c #E0BFBF",
"e. c #E0C0C0",
"r. c #E1C1C1",
"t. c #E1C2C2",
"y. c #E2C4C4",
"u. c #E2C5C5",
"i. c #E3C6C6",
"p. c #E3C7C7",
"a. c #E4C8C8",
"s. c #E4C9C9",
"d. c #E5CACA",
"f. c #E5CBCB",
"g. c #E7CECE",
"h. c #E8CFCF",
"j. c #E8D0D0",
"k. c #E9D2D2",
"l. c #EAD3D3",
"z. c #EAD4D4",
"x. c #EBD6D6",
"c. c #ECD7D7",
"v. c #ECD8D8",
"b. c #EDDADA",
"n. c #EDDBDB",
"m. c #EEDCDC",
"M. c #EFDFDF",
"N. c #F1E2E2",
"B. c #F1E3E3",
"V. c #F2E5E5",
"C. c #F3E6E6",
"Z. c #F3E7E7",
"A. c #F4E8E8",
"S. c #F4E9E9",
"D. c #F5EAEA",
"F. c #F6ECEC",
"G. c #F6EDED",
"H. c #F6EEEE",
"J. c #F7EEEE",
"K. c #F7EFEF",
"L. c #F8F2F2",
"P. c #F9F2F2",
"I. c #F9F3F3",
"U. c #FAF4F4",
"Y. c #FAF5F5",
"T. c #FBF7F7",
"R. c #FCF8F8",
"E. c #FCF9F9",
"W. c #FDFAFA",
"Q. c #FDFBFB",
"!. c #FEFDFD",
"~. c #FFFEFE",
"^. c white",
/* pixels */
"@ @ @ @ @ @ @ @ @ @ @ @ @ @ @ @ @ @ @ O X . .                                     . . X O @ @ @ @ @ @ @ @ @ @ @ @ @ @ @ @ @ @ @ ",
"@ @ @ @ @ @ @ @ @ @ @ @ @ @ @ O .                                                             . O @ @ @ @ @ @ @ @ @ @ @ @ @ @ @ ",
"@ @ @ @ @ @ @ @ @ @ @ @ @ o .                                                                     . o @ @ @ @ @ @ @ @ @ @ @ @ @ ",
"@ @ @ @ @ @ @ @ @ @ @ X                                                                                 X @ @ @ @ @ @ @ @ @ @ @ ",
"@ @ @ @ @ @ @ @ @ + .                                                                                     . + @ @ @ @ @ @ @ @ @ ",
"@ @ @ @ @ @ @ @ o                                                                                             o @ @ @ @ @ @ @ @ ",
"@ @ @ @ @ @ @ X                       $ * - ; > 1 2 3 3 3 3 3 3 3 3 3 3 3 3 2 1 > ; - * $                       X @ @ @ @ @ @ @ ",
"@ @ @ @ @ @ X                   % = < 3 3 3 3 3 3 3 3 3 3 3 3 3 3 3 3 3 3 3 3 3 3 3 3 3 3 < = %                   X @ @ @ @ @ @ ",
"@ @ @ @ @ o                 & ; 3 3 3 3 3 3 3 3 3 3 3 3 3 3 3 3 3 3 3 3 3 3 3 3 3 3 3 3 3 3 3 3 ; &                 o @ @ @ @ @ ",
"@ @ @ @ +                 - 3 3 3 3 3 3 3 3 3 3 3 3 3 3 3 3 3 3 3 3 3 3 3 3 3 3 3 3 3 3 3 3 3 3 3 3 -                 + @ @ @ @ ",
"@ @ @ @ .             # : 3 3 3 3 3 3 3 3 3 3 3 3 3 3 3 3 3 3 3 3 3 3 3 3 3 3 3 3 3 3 3 3 3 3 3 3 3 3 : #             . @ @ @ @ ",
"@ @ @ X             # , 3 3 3 3 3 3 3 3 3 3 3 3 3 3 3 3 3 3 3 3 3 3 3 3 3 3 3 3 3 3 3 3 3 3 3 3 3 3 3 3 , #             X @ @ @ ",
"@ @ @               : 3 3 3 3 3 3 3 3 3 3 3 3 3 3 3 3 3 3 3 3 3 3 3 3 3 3 3 3 3 3 3 3 3 3 3 3 3 3 3 3 3 3 :               @ @ @ ",
"@ @ o             - 3 3 3 3 3 3 3 3 3 3 3 3 3 3 3 3 3 3 3 3 3 3 3 3 3 3 3 3 3 3 3 3 3 3 3 3 3 3 3 3 3 3 3 3 -             o @ @ ",
"@ @ .           & 3 3 3 3 3 3 3 3 3 3 3 3 3 3 3 3 3 3 3 3 3 3 6 c y 3 3 3 3 3 3 3 3 3 3 3 3 3 3 3 3 3 3 3 3 3 &           . @ @ ",
"@ O             ; 3 3 3 3 3 3 3 3 Y.E.3 3 3 3 3 ' ^.} 3 3 x F.^.^.^.W.#.3 3 3 d.^.^.^.^.^.^.^.W.3 3 3 3 3 3 3 ;             O @ ",
"@ .           % 3 3 3 3 3 3 3 3 3 T.E.3 3 3 3 3 ] ^.| 3 q ~.^.M.*.a.E.^.<.3 3 f.^.j.r.r.r.r.r.3.3 3 3 3 3 3 3 3 %           . @ ",
"@             = 3 3 3 3 3 3 3 3 3 T.E.3 3 3 3 3 ] ^.| 3 ^ ^.9.3 3 3 g ^.R.3 3 f.^.l 3 3 3 3 3 3 3 3 3 3 3 3 3 3 =             @ ",
"@             < 3 3 3 3 3 3 3 3 3 T.E.3 3 3 3 3 ] ^.| 3 [ ^.2.3 3 3 3 O.9.0 3 f.^.l 3 3 3 3 3 3 3 3 3 3 3 3 3 3 <             @ ",
"O           $ 3 3 3 3 3 3 3 3 3 3 T.E.3 3 3 3 3 ] ^.| 3 d ~.^.b.` i 3 3 3 3 3 f.^.b 9 9 9 9 9 5 3 3 3 3 3 3 3 3 3 $           O ",
"X           * 3 3 3 3 3 3 3 3 3 3 T.E.3 3 3 3 3 ] ^.| 3 3 G Q.^.^.^.J...3 3 3 f.^.^.^.^.^.^.^.,.3 3 3 3 3 3 3 3 3 *           X ",
".           - 3 3 3 3 3 3 3 3 3 3 T.W.3 3 3 3 3 [ ^.| 3 3 3 8 Q s.T.^.^.g.3 3 f.^.v.f.f.f.f.f.E 3 3 3 3 3 3 3 3 3 -           . ",
".           ; 3 3 3 3 3 3 3 3 3 3 I.!.3 3 3 3 3 $.^.^ 3 7 p 3 3 3 3 F R.^.n 3 f.^.l 3 3 3 3 3 3 3 3 3 3 3 3 3 3 3 ;           . ",
"            > 3 3 3 3 3 3 3 3 3 3 D.^.q 3 3 3 3 0.^.m 3 K.!.6 3 3 3 3 [ ^.X.3 f.^.l 3 3 3 3 3 3 3 3 3 3 3 3 3 3 3 >             ",
"            1 3 3 3 3 3 3 3 3 3 3 e.^.3.3 3 3 9 W.^.0 3 8.^.=.3 3 3 3 p.^.S 3 f.^.l 3 3 3 3 3 3 3 3 3 3 3 3 3 3 3 1             ",
"            2 3 3 3 3 3 3 3 3 3 3 h W.^.m.=.5.T.^.:.3 3 c Q.^.Z.3.:.V.^.P.3 3 f.^.j.r.r.r.r.r.r.s 3 3 3 3 3 3 3 3 2             ",
"            3 3 3 3 3 3 3 3 3 3 3 3 b D.~.^.^.U.4.3 3 3 3 j Z.~.^.^.~.l.w 3 3 d.^.^.^.^.^.^.^.^.n 3 3 3 3 3 3 3 3 3             ",
"            3 3 3 3 3 3 3 3 3 3 3 3 3 3 6 N i 3 3 3 3 3 3 3 3 4 v z 3 3 3 3 3 3 3 3 3 3 3 3 3 3 3 3 3 3 3 3 3 3 3 3             ",
"            3 3 3 3 3 3 3 3 3 3 3 3 3 3 3 3 3 3 3 3 3 3 3 3 3 3 3 3 3 3 3 3 3 3 3 3 3 3 3 3 3 3 3 3 3 3 3 3 3 3 3 3             ",
"            3 3 3 3 3 3 3 3 3 3 3 3 3 3 3 3 3 3 3 3 3 3 3 3 3 3 3 3 3 3 3 3 3 3 3 3 3 3 3 3 3 3 3 3 3 3 3 3 3 3 3 3             ",
"            3 3 3 3 3 3 3 3 3 3 3 3 3 3 3 3 3 3 3 3 3 3 3 3 3 3 3 3 3 3 3 3 3 3 3 3 3 3 3 3 3 3 3 3 3 3 3 3 3 3 3 3             ",
"            3 3 3 3 3 3 3 3 3 3 3 3 3 3 3 3 3 3 3 3 3 3 3 3 3 3 3 3 3 3 3 3 3 3 3 3 3 3 3 3 3 3 3 3 3 3 3 3 3 3 3 3             ",
"            3 3 3 3 3 3 3 3 3 3 3 3 3 3 3 3 3 3 3 3 3 3 3 3 3 3 3 3 3 3 3 3 3 3 3 3 3 3 3 3 3 3 3 3 3 3 3 3 3 3 3 3             ",
"            3 3 3 3 3 3 3 3 3 3 3 3 3 3 3 3 3 3 3 3 3 3 3 3 3 3 3 3 3 3 3 3 3 3 3 3 3 3 3 3 3 3 3 3 3 3 3 3 3 3 3 3             ",
"            3 3 3 3 3 3 3 3 3 3 3 3 3 3 3 3 3 3 3 3 3 3 3 3 3 3 3 3 3 3 3 w v 9 3 3 3 3 3 3 3 3 3 3 3 3 3 3 3 3 3 3             ",
"            3 3 I.~.5 3 3 3 i.^.S.3 3 3 3 U.!.3 3 3 @.^.P.3 3 3 3 3 3 Q T.^.^.^.Y.K 3 3 j ^.^.^.^.^.W.x.b 3 3 3 3 3             ",
"            3 3 a.^.C 3 3 3 T.^.^.w 3 3 i ^.M.3 3 3 K.^.^.S 3 3 3 3 H ^.!.k.%.c.~.^.I 3 k ^.U.r.t.z.H.^.^.c 3 3 3 3             ",
"            3 3 ( ^.#.3 3 j ^.A.^.~ 3 3 ~ ^.@.3 3 n ^.w.^.h.3 3 3 3 t.^.T 3 3 3 ) ^.j.3 k ^.h.3 3 3 3 ;.^.J.5 3 3 3             ",
"            2 3 i ^.c.3 3 X.^.G ^.p.3 3 q.^.x 3 3 q.^.N D.~.r 3 3 3 h.^.H 3 3 3 4 0.@.3 k ^.h.3 3 3 3 3 n.^.Z 3 3 2             ",
"            1 3 3 P.E.3 3 n.Q.3 K.T.3 3 H.E.3 3 5 Q.Y.3 X.^.o.3 3 3 ^ ^.~.u.R 8 3 3 3 3 k ^.h.3 3 3 3 3 { ^.' 3 3 1             ",
"            > 3 3 e.^.s 4 !.l.3 9.^.k 0 ^.k.3 3 W ^.<.3 u ^.L.3 3 3 3 +.^.^.^.~.B.J 3 3 k ^.h.3 3 3 3 3 Y ^.7.3 3 >             ",
".           ; 3 3 ! ^.( S ^.{ 3 P ^.[ L ^.' 3 3 v.^.M r r B.^.C 3 3 3 3 p [ c.!.^.^. .3 k ^.h.3 3 3 3 3 / ^.6.3 3 ;           . ",
".           - 3 3 e ^.e.1.^.f 3 8 ~.p.1.^.a 3 y ^.^.^.^.^.^.^.f.3 3 q t 3 3 3 4 [ ~.Q.3 k ^.h.3 3 3 3 3 &.^.| 3 3 -           . ",
"X           * 3 3 3 H.D.S.U.3 3 3 C.J.B.U.3 3 X.^.c.;.;.;.;.!.~.w e ^.N.3 3 3 3 3 h.^.z k ^.h.3 3 3 3 3 S.^.Z 3 3 *           X ",
"O           $ 3 3 3 8.~.~.y.3 3 3 -.^.~.t.3 3 G.^.s 3 3 3 3 s.^...3 G.^.H 3 3 3 9 L.~.6 k ^.h.3 3 3 3 } ^.J.3 3 3 $           O ",
"@             < 3 3 U ^.^.! 3 3 3 V ^.^.! 3 z ^.Z.3 3 3 3 3 A ^.J.3 _ ^.^.x.*.6.U.^.t.3 k ^.U.r.r.l.K.^.~.D 3 3 <             @ ",
"@             = 3 3 9 ^.^.w 3 3 3 3 !.^.w 3 5.^.| 3 3 3 3 3 3 U.^.n 3 K I.^.^.^.W.>.3 3 j ^.^.^.^.^.E.c.B 3 3 3 =             @ ",
"@ .           % 3 3 3 3 3 3 3 3 3 3 3 3 3 3 3 3 3 3 3 3 3 3 3 3 3 3 3 3 3 9 V d 3 3 3 3 3 3 3 3 3 3 3 3 3 3 3 3 %           . @ ",
"@ O             ; 3 3 3 3 3 3 3 3 3 3 3 3 3 3 3 3 3 3 3 3 3 3 3 3 3 3 3 3 3 3 3 3 3 3 3 3 3 3 3 3 3 3 3 3 3 3 ;             O @ ",
"@ @ .           & 3 3 3 3 3 3 3 3 3 3 3 3 3 3 3 3 3 3 3 3 3 3 3 3 3 3 3 3 3 3 3 3 3 3 3 3 3 3 3 3 3 3 3 3 3 3 &           . @ @ ",
"@ @ o             - 3 3 3 3 3 3 3 3 3 3 3 3 3 3 3 3 3 3 3 3 3 3 3 3 3 3 3 3 3 3 3 3 3 3 3 3 3 3 3 3 3 3 3 3 -             o @ @ ",
"@ @ @               : 3 3 3 3 3 3 3 3 3 3 3 3 3 3 3 3 3 3 3 3 3 3 3 3 3 3 3 3 3 3 3 3 3 3 3 3 3 3 3 3 3 3 :               @ @ @ ",
"@ @ @ X             # , 3 3 3 3 3 3 3 3 3 3 3 3 3 3 3 3 3 3 3 3 3 3 3 3 3 3 3 3 3 3 3 3 3 3 3 3 3 3 3 3 , #             X @ @ @ ",
"@ @ @ @ .             # : 3 3 3 3 3 3 3 3 3 3 3 3 3 3 3 3 3 3 3 3 3 3 3 3 3 3 3 3 3 3 3 3 3 3 3 3 3 3 : #             . @ @ @ @ ",
"@ @ @ @ +                 - 3 3 3 3 3 3 3 3 3 3 3 3 3 3 3 3 3 3 3 3 3 3 3 3 3 3 3 3 3 3 3 3 3 3 3 3 -                 + @ @ @ @ ",
"@ @ @ @ @ o                 & ; 3 3 3 3 3 3 3 3 3 3 3 3 3 3 3 3 3 3 3 3 3 3 3 3 3 3 3 3 3 3 3 3 ; &                 o @ @ @ @ @ ",
"@ @ @ @ @ @ X                   % = < 3 3 3 3 3 3 3 3 3 3 3 3 3 3 3 3 3 3 3 3 3 3 3 3 3 3 < = %                   X @ @ @ @ @ @ ",
"@ @ @ @ @ @ @ X                       $ * - ; > 1 2 3 3 3 3 3 3 3 3 3 3 3 3 2 1 > ; - * $                       X @ @ @ @ @ @ @ ",
"@ @ @ @ @ @ @ @ o                                                                                             o @ @ @ @ @ @ @ @ ",
"@ @ @ @ @ @ @ @ @ + .                                                                                     . + @ @ @ @ @ @ @ @ @ ",
"@ @ @ @ @ @ @ @ @ @ @ X                                                                                 X @ @ @ @ @ @ @ @ @ @ @ ",
"@ @ @ @ @ @ @ @ @ @ @ @ @ o .                                                                     . o @ @ @ @ @ @ @ @ @ @ @ @ @ ",
"@ @ @ @ @ @ @ @ @ @ @ @ @ @ @ O .                                                             . O @ @ @ @ @ @ @ @ @ @ @ @ @ @ @ ",
"@ @ @ @ @ @ @ @ @ @ @ @ @ @ @ @ @ @ @ O X . .                                     . . X O @ @ @ @ @ @ @ @ @ @ @ @ @ @ @ @ @ @ @ "
};
