/* XPM */
static char *result[] = {
/* columns rows colors chars-per-pixel */
"64 64 138 2 ",
"   c black",
".  c #010000",
"X  c #020000",
"o  c #030000",
"O  c #040000",
"+  c #050000",
"@  c #060000",
"#  c #110101",
"$  c #190101",
"%  c #1E0202",
"&  c #220202",
"*  c #360303",
"=  c #4D0505",
"-  c #4E0505",
";  c #610606",
":  c #690606",
">  c #710707",
",  c #720707",
"<  c #770707",
"1  c #7C0707",
"2  c #830808",
"3  c #860808",
"4  c #870A0A",
"5  c #870B0B",
"6  c #880D0D",
"7  c #8A1010",
"8  c #8B1212",
"9  c #8C1414",
"0  c #8D1616",
"q  c #8D1717",
"w  c #8E1818",
"e  c #8F1A1A",
"r  c #901C1C",
"t  c #911E1E",
"y  c #922020",
"u  c #932222",
"i  c #932323",
"p  c #952727",
"a  c #962828",
"s  c #972B2B",
"d  c #992F2F",
"f  c #9A3131",
"g  c #9B3333",
"h  c #9C3535",
"j  c #9D3737",
"k  c #9F3A3A",
"l  c #A03C3C",
"z  c #A03D3D",
"x  c #A34343",
"c  c #A54747",
"v  c #A54848",
"b  c #A84D4D",
"n  c #A84E4E",
"m  c #A95050",
"M  c #AA5151",
"N  c #AB5353",
"B  c #AB5555",
"V  c #AE5A5A",
"C  c #AF5C5C",
"Z  c #B05E5E",
"A  c #B26262",
"S  c #B36464",
"D  c #B56767",
"F  c #B66A6A",
"G  c #B66B6B",
"H  c #B86E6E",
"J  c #B97070",
"K  c #B97171",
"L  c #BA7373",
"P  c #BB7474",
"I  c #BE7B7B",
"U  c #BF7C7C",
"Y  c #C48787",
"T  c #C68A8A",
"R  c #C68B8B",
"E  c #C78E8E",
"W  c #C99191",
"Q  c #CB9595",
"!  c #CC9696",
"~  c #CE9B9B",
"^  c #CF9C9C",
"/  c #D0A0A0",
"(  c #D1A1A1",
")  c #D3A6A6",
"_  c #D4A7A7",
"`  c #D4A8A8",
"'  c #D7AEAE",
"]  c #D8AFAF",
"[  c #D9B1B1",
"{  c #DAB4B4",
"}  c #DDB9B9",
"|  c #DDBABA",
" . c #DEBBBB",
".. c #DFBEBE",
"X. c #E0BFBF",
"o. c #E0C0C0",
"O. c #E1C1C1",
"+. c #E1C2C2",
"@. c #E2C4C4",
"#. c #E3C6C6",
"$. c #E3C7C7",
"%. c #E4C8C8",
"&. c #E4C9C9",
"*. c #E5CACA",
"=. c #E5CBCB",
"-. c #E8CFCF",
";. c #E8D0D0",
":. c #E9D2D2",
">. c #EAD3D3",
",. c #ECD7D7",
"<. c #ECD8D8",
"1. c #EDDBDB",
"2. c #EFDEDE",
"3. c #EFDFDF",
"4. c #F1E3E3",
"5. c #F2E5E5",
"6. c #F3E6E6",
"7. c #F3E7E7",
"8. c #F4E8E8",
"9. c #F4E9E9",
"0. c #F5EAEA",
"q. c #F6EDED",
"w. c #F6EEEE",
"e. c #F7EEEE",
"r. c #F7EFEF",
"t. c #F8F2F2",
"y. c #F9F2F2",
"u. c #F9F3F3",
"i. c #FAF4F4",
"p. c #FAF5F5",
"a. c #FBF7F7",
"s. c #FCF8F8",
"d. c #FCF9F9",
"f. c #FDFAFA",
"g. c #FDFBFB",
"h. c #FEFDFD",
"j. c #FFFEFE",
"k. c white",
/* pixels */
"@ @ @ @ @ @ @ @ @ @ @ @ @ @ @ @ @ @ @ + o X X . . .                         . . . X X o + @ @ @ @ @ @ @ @ @ @ @ @ @ @ @ @ @ @ @ ",
"@ @ @ @ @ @ @ @ @ @ @ @ @ @ @ + o .                                                         . o + @ @ @ @ @ @ @ @ @ @ @ @ @ @ @ ",
"@ @ @ @ @ @ @ @ @ @ @ @ @ O X                                                                     X O @ @ @ @ @ @ @ @ @ @ @ @ @ ",
"@ @ @ @ @ @ @ @ @ @ @ O .                                                                             . O @ @ @ @ @ @ @ @ @ @ @ ",
"@ @ @ @ @ @ @ @ @ + X                                                                                     X + @ @ @ @ @ @ @ @ @ ",
"@ @ @ @ @ @ @ @ O .                                                                                         . O @ @ @ @ @ @ @ @ ",
"@ @ @ @ @ @ @ o                       $ * - ; > 1 2 3 3 3 3 3 3 3 3 3 3 3 3 2 1 > ; - * $                       o @ @ @ @ @ @ @ ",
"@ @ @ @ @ @ o                   % = < 3 3 3 3 3 3 3 3 3 3 3 3 3 3 3 3 3 3 3 3 3 3 3 3 3 3 < = %                   o @ @ @ @ @ @ ",
"@ @ @ @ @ O                 & ; 3 3 3 3 3 3 3 3 3 3 3 3 3 3 3 3 3 3 3 3 3 3 3 3 3 3 3 3 3 3 3 3 ; &                 O @ @ @ @ @ ",
"@ @ @ @ + .               - 3 3 3 3 3 3 3 3 3 3 3 3 3 3 3 3 3 3 3 3 3 3 3 3 3 3 3 3 3 3 3 3 3 3 3 3 -               . + @ @ @ @ ",
"@ @ @ @ X             # : 3 3 3 3 3 3 3 3 3 3 3 3 3 3 3 3 3 3 3 3 3 3 3 3 3 3 3 3 3 3 3 3 3 3 3 3 3 3 : #             X @ @ @ @ ",
"@ @ @ O             # , 3 3 3 3 3 3 3 3 3 3 3 3 3 3 3 3 3 3 3 3 3 3 3 3 3 3 3 3 3 3 3 3 3 3 3 3 3 3 3 3 , #             O @ @ @ ",
"@ @ @ .             : 3 3 3 3 3 3 3 3 3 3 3 3 3 3 3 3 3 3 3 3 3 3 3 3 3 3 3 3 3 3 3 3 3 3 3 3 3 3 3 3 3 3 :             . @ @ @ ",
"@ @ O             - 3 3 3 3 3 3 3 3 3 3 3 3 3 3 3 3 3 3 3 3 3 3 3 3 3 3 3 3 3 3 3 3 3 3 3 3 3 3 3 3 3 3 3 3 -             O @ @ ",
"@ @ X           & 3 3 3 3 3 3 3 3 3 3 3 3 3 3 3 3 3 3 3 3 3 3 3 3 3 3 3 3 3 3 3 3 3 i k 4 3 3 3 3 3 3 3 3 3 3 &           X @ @ ",
"@ +             ; 3 3 3 3 3 3 3 -.k.d C k.k.k.k.k.k.k.k.k.w 3 3 3 3 3 s.s.3 3 4 ` g.k.k.k.8.f 3 3 3 3 3 3 3 3 ;             + @ ",
"@ o           % 3 3 3 3 3 3 3 3 ;.k.f h O.O.O.q.k.2.O.O.O.7 3 3 3 3 3 s.s.3 3 ' k.p.+._ 5.k.h.u 3 3 3 3 3 3 3 3 %           o @ ",
"@ .           = 3 3 3 3 3 3 3 3 ;.k.f 3 3 3 3 ` k.G 3 3 3 3 3 3 3 3 3 s.s.3 3 y.j.u 3 3 3 $.k.R 3 3 3 3 3 3 3 3 =           . @ ",
"@             < 3 3 3 3 3 3 3 3 ;.k.f 3 3 3 3 ` k.G 3 3 3 3 3 3 3 3 3 s.s.3 3 s.j.w 3 3 3 g @.K 3 3 3 3 3 3 3 3 <             @ ",
"+           $ 3 3 3 3 3 3 3 3 3 ;.k.f 3 3 3 3 ` k.G 3 3 3 3 3 3 3 3 3 s.s.3 3 O.k.d.[ M 3 3 3 3 3 3 3 3 3 3 3 3 3 $           + ",
"o           * 3 3 3 3 3 3 3 3 3 ;.k.f 3 3 3 3 ` k.G 3 3 3 3 3 3 3 3 3 s.s.3 3 6 -.k.k.k.h.>.f 3 3 3 3 3 3 3 3 3 3 *           o ",
"X           - 3 3 3 3 3 3 3 3 3 ;.k.f 3 3 3 3 ` k.G 3 3 3 3 3 3 3 3 3 s.s.3 3 3 3 j ( 5.j.k.g.M 3 3 3 3 3 3 3 3 3 -           X ",
"X           ; 3 3 3 3 3 3 3 3 3 ;.k.f 3 3 3 3 ` k.G 3 3 3 3 3 3 3 3 3 s.s.3 3 r 8 3 3 3 0  .k.1.3 3 3 3 3 3 3 3 3 ;           X ",
".           > 3 3 3 3 3 3 3 3 3 ;.k.f 3 3 3 3 ` k.G 3 3 3 3 3 3 3 3 3 s.s.3 K k.) 3 3 3 3 3 s.f.3 3 3 3 3 3 3 3 3 >           . ",
".           1 3 3 3 3 3 3 3 3 3 ;.k.f 3 3 3 3 ` k.G 3 3 3 3 3 3 3 3 3 s.s.3 q k.a.d 3 3 3 f k.4.3 3 3 3 3 3 3 3 3 1           . ",
".           2 3 3 3 3 3 3 3 3 3 ;.k.f 3 3 3 3 ` k.G 3 3 3 3 3 3 3 3 3 s.s.3 3 o.k.h.*./ o.h.k.U 3 3 3 3 3 3 3 3 3 2           . ",
"            3 3 3 3 3 3 3 3 3 3 -.k.d 3 3 3 3 _ k.F 3 3 3 3 3 3 3 3 3 s.s.3 3 3 ^ d.k.k.k.p.J 3 3 3 3 3 3 3 3 3 3 3             ",
"            3 3 3 3 3 3 3 3 3 3 3 3 3 3 3 3 3 3 3 3 3 3 3 3 3 3 3 3 3 3 3 3 3 3 3 3 y m e 3 3 3 3 3 3 3 3 3 3 3 3 3             ",
"            3 3 3 3 3 3 3 3 3 3 3 3 3 3 3 3 3 3 3 3 3 3 3 3 3 3 3 3 3 3 3 3 3 3 3 3 3 3 3 3 3 3 3 3 3 3 3 3 3 3 3 3             ",
"            3 3 3 3 3 3 3 3 3 3 3 3 3 3 3 3 3 3 3 3 3 3 3 3 3 3 3 3 3 3 3 3 3 3 3 3 3 3 3 3 3 3 3 3 3 3 3 3 3 3 3 3             ",
"            3 3 3 3 3 3 3 3 3 3 3 3 3 3 3 3 3 3 3 3 3 3 3 3 3 3 3 3 3 3 3 3 3 3 3 3 3 3 3 3 3 3 3 3 3 3 3 3 3 3 3 3             ",
"            3 3 3 3 3 3 3 3 3 3 3 3 3 3 3 3 3 3 3 3 3 3 3 3 3 3 3 3 3 3 3 3 3 3 3 3 3 3 3 3 3 3 3 3 3 3 3 3 3 3 3 3             ",
"            3 3 3 3 3 3 3 3 3 3 3 3 3 3 3 3 3 3 3 3 3 3 3 3 3 3 3 3 3 3 3 3 3 3 3 3 3 3 3 3 3 3 3 3 3 3 3 3 3 3 3 3             ",
"            3 3 3 3 3 3 3 3 3 3 3 3 3 3 3 3 3 3 3 3 3 3 3 3 3 3 3 3 3 3 3 3 3 3 3 3 3 3 3 3 3 3 3 3 3 3 3 3 3 3 3 3             ",
"            3 3 3 3 3 3 3 3 3 3 3 3 3 3 3 3 3 3 3 3 3 3 3 3 3 3 3 3 3 3 3 3 3 3 3 3 3 3 3 3 3 3 3 3 3 3 3 3 3 3 3 3             ",
"            3 3 3 3 3 u.j.5 3 3 3 #.k.9.3 3 3 3 i.h.3 3 3 ~ k.y.3 3 3 3 3 2.k.9 3 3 3 3 3 3 h.r.3 3 3 3 3 3 3 3 3 3             ",
"            3 3 3 3 3 %.k.n 3 3 3 a.k.k.q 3 3 y k.3.3 3 3 r.k.k.B 3 3 3 3 3.k.9 3 3 3 3 3 3 h.t.3 3 3 3 3 3 3 3 3 3             ",
"            3 3 3 3 3 I k.^ 3 3 f k.8.k.P 3 3 P k.~ 3 3 x k.X.k.-.3 3 3 3 3.k.9 3 3 3 3 3 3 h.t.3 3 3 3 3 3 3 3 3 3             ",
".           2 3 3 3 3 y k.,.3 3 Q k.V k.$.3 3 ..k.z 3 3 ..k.v 0.j.e 3 3 3 3.k.9 3 3 3 3 3 3 h.t.3 3 3 3 3 3 3 3 3 2           . ",
".           1 3 3 3 3 3 y.d.3 3 1.g.3 r.a.3 3 w.d.3 3 5 g.p.3 Q k.! 3 3 3 3.k.9 3 3 3 3 3 3 h.t.3 3 3 3 3 3 3 3 3 1           . ",
".           > 3 3 3 3 3 o.k.a 4 h.>.3 | k.g 9 k.:.3 3 H k.' 3 t k.t.3 3 3 3.k.9 3 3 3 3 3 3 h.t.3 3 3 3 3 3 3 3 3 >           . ",
"X           ; 3 3 3 3 3 L k.I B k.R 3 S k.T A k.Y 3 3 <.k.c e e 4.k.n 3 3 3.k.9 3 3 3 3 3 3 h.t.3 3 3 3 3 3 3 3 3 ;           X ",
"X           - 3 3 3 3 3 w k.o.] k.s 3 7 j.$.] k.p 3 r k.k.k.k.k.k.k.=.3 3 3.k.9 3 3 3 3 3 3 h.t.3 3 3 3 3 3 3 3 3 -           X ",
"o           * 3 3 3 3 3 3 w.0.9.i.3 3 3 6.e.4.i.3 3 Q k.,.` ` ` ` h.j.q 3 3.k.9 3 3 3 3 3 3 h.t.3 3 3 3 3 3 3 3 3 *           o ",
"+           $ 3 3 3 3 3 3 } j.j.@.3 3 3 _ k.j.+.3 3 q.k.a 3 3 3 3 &.k.W 3 3.k.9 3 3 3 3 3 3 h.t.3 3 3 3 3 3 3 3 3 $           + ",
"@             < 3 3 3 3 3 D k.k.L 3 3 3 b k.k.L 3 l k.7.3 3 3 3 3 N k.e.3 3.k.#.O.O.O.O.E 3 h.h.O.O.O.O.O.Z 3 3 <             @ ",
"@ .           = 3 3 3 3 3 8 k.k.q 3 3 3 3 h.k.q 3 { k.E 3 3 3 3 3 3 i.k.x 3.k.k.k.k.k.k.3.3 h.k.k.k.k.k.k./ 3 3 =           . @ ",
"@ o           % 3 3 3 3 3 3 3 3 3 3 3 3 3 3 3 3 3 3 3 3 3 3 3 3 3 3 3 3 3 3 3 3 3 3 3 3 3 3 3 3 3 3 3 3 3 3 3 3 %           o @ ",
"@ +             ; 3 3 3 3 3 3 3 3 3 3 3 3 3 3 3 3 3 3 3 3 3 3 3 3 3 3 3 3 3 3 3 3 3 3 3 3 3 3 3 3 3 3 3 3 3 3 ;             + @ ",
"@ @ X           & 3 3 3 3 3 3 3 3 3 3 3 3 3 3 3 3 3 3 3 3 3 3 3 3 3 3 3 3 3 3 3 3 3 3 3 3 3 3 3 3 3 3 3 3 3 3 &           X @ @ ",
"@ @ O             - 3 3 3 3 3 3 3 3 3 3 3 3 3 3 3 3 3 3 3 3 3 3 3 3 3 3 3 3 3 3 3 3 3 3 3 3 3 3 3 3 3 3 3 3 -             O @ @ ",
"@ @ @ .             : 3 3 3 3 3 3 3 3 3 3 3 3 3 3 3 3 3 3 3 3 3 3 3 3 3 3 3 3 3 3 3 3 3 3 3 3 3 3 3 3 3 3 :             . @ @ @ ",
"@ @ @ O             # , 3 3 3 3 3 3 3 3 3 3 3 3 3 3 3 3 3 3 3 3 3 3 3 3 3 3 3 3 3 3 3 3 3 3 3 3 3 3 3 3 , #             O @ @ @ ",
"@ @ @ @ X             # : 3 3 3 3 3 3 3 3 3 3 3 3 3 3 3 3 3 3 3 3 3 3 3 3 3 3 3 3 3 3 3 3 3 3 3 3 3 3 : #             X @ @ @ @ ",
"@ @ @ @ + .               - 3 3 3 3 3 3 3 3 3 3 3 3 3 3 3 3 3 3 3 3 3 3 3 3 3 3 3 3 3 3 3 3 3 3 3 3 -               . + @ @ @ @ ",
"@ @ @ @ @ O                 & ; 3 3 3 3 3 3 3 3 3 3 3 3 3 3 3 3 3 3 3 3 3 3 3 3 3 3 3 3 3 3 3 3 ; &                 O @ @ @ @ @ ",
"@ @ @ @ @ @ o                   % = < 3 3 3 3 3 3 3 3 3 3 3 3 3 3 3 3 3 3 3 3 3 3 3 3 3 3 < = %                   o @ @ @ @ @ @ ",
"@ @ @ @ @ @ @ o                       $ * - ; > 1 2 3 3 3 3 3 3 3 3 3 3 3 3 2 1 > ; - * $                       o @ @ @ @ @ @ @ ",
"@ @ @ @ @ @ @ @ O .                                                                                         . O @ @ @ @ @ @ @ @ ",
"@ @ @ @ @ @ @ @ @ + X                                                                                     X + @ @ @ @ @ @ @ @ @ ",
"@ @ @ @ @ @ @ @ @ @ @ O .                                                                             . O @ @ @ @ @ @ @ @ @ @ @ ",
"@ @ @ @ @ @ @ @ @ @ @ @ @ O X                                                                     X O @ @ @ @ @ @ @ @ @ @ @ @ @ ",
"@ @ @ @ @ @ @ @ @ @ @ @ @ @ @ + o .                                                         . o + @ @ @ @ @ @ @ @ @ @ @ @ @ @ @ ",
"@ @ @ @ @ @ @ @ @ @ @ @ @ @ @ @ @ @ @ + o X X . . .                         . . . X X o + @ @ @ @ @ @ @ @ @ @ @ @ @ @ @ @ @ @ @ "
};
