/* XPM */
static char *result[] = {
/* columns rows colors chars-per-pixel */
"64 64 149 2 ",
"   c black",
".  c #010000",
"X  c #020000",
"o  c #030000",
"O  c #040000",
"+  c #050000",
"@  c #060000",
"#  c #110101",
"$  c #190101",
"%  c #1E0202",
"&  c #220202",
"*  c #360303",
"=  c #4D0505",
"-  c #4E0505",
";  c #610606",
":  c #690606",
">  c #710707",
",  c #720707",
"<  c #770707",
"1  c #7C0707",
"2  c #830808",
"3  c #860808",
"4  c #870A0A",
"5  c #870B0B",
"6  c #880D0D",
"7  c #890F0F",
"8  c #8A1010",
"9  c #8B1212",
"0  c #8C1414",
"q  c #8D1616",
"w  c #8D1717",
"e  c #8E1818",
"r  c #8F1A1A",
"t  c #8F1B1B",
"y  c #901C1C",
"u  c #932222",
"i  c #932323",
"p  c #942525",
"a  c #952727",
"s  c #962828",
"d  c #962929",
"f  c #972B2B",
"g  c #982D2D",
"h  c #992F2F",
"j  c #9A3131",
"k  c #9B3333",
"l  c #9E3939",
"z  c #9F3A3A",
"x  c #A03C3C",
"c  c #A13F3F",
"v  c #A24141",
"b  c #A24242",
"n  c #A34343",
"m  c #A44545",
"M  c #A54747",
"N  c #A74C4C",
"B  c #A84E4E",
"V  c #AA5151",
"C  c #AB5353",
"Z  c #AB5555",
"A  c #AC5555",
"S  c #AD5757",
"D  c #AD5858",
"F  c #AE5A5A",
"G  c #AF5C5C",
"H  c #B05E5E",
"J  c #B15F5F",
"K  c #B26161",
"L  c #B26262",
"P  c #B46565",
"I  c #B66A6A",
"U  c #B86E6E",
"Y  c #BB7474",
"T  c #BD7878",
"R  c #BE7979",
"E  c #BE7B7B",
"W  c #C07E7E",
"Q  c #C07F7F",
"!  c #C18080",
"~  c #C28282",
"^  c #C28383",
"/  c #C38484",
"(  c #C48686",
")  c #C48787",
"_  c #C58888",
"`  c #C68A8A",
"'  c #C68C8C",
"]  c #C88F8F",
"[  c #C99191",
"{  c #CA9494",
"}  c #CB9595",
"|  c #CC9696",
" . c #CD9898",
".. c #CD9999",
"X. c #CE9B9B",
"o. c #CF9C9C",
"O. c #D1A2A2",
"+. c #D3A6A6",
"@. c #D5AAAA",
"#. c #D6ACAC",
"$. c #D7AEAE",
"%. c #D9B0B0",
"&. c #D9B1B1",
"*. c #DAB3B3",
"=. c #DAB4B4",
"-. c #DBB6B6",
";. c #DCB8B8",
":. c #DDB9B9",
">. c #DEBBBB",
",. c #DEBCBC",
"<. c #DFBDBD",
"1. c #DFBEBE",
"2. c #E1C1C1",
"3. c #E1C2C2",
"4. c #E2C5C5",
"5. c #E3C7C7",
"6. c #E4C8C8",
"7. c #E5CACA",
"8. c #E5CBCB",
"9. c #E9D3D3",
"0. c #EAD4D4",
"q. c #ECD8D8",
"w. c #ECD9D9",
"e. c #EEDCDC",
"r. c #F0E0E0",
"t. c #F0E1E1",
"y. c #F1E3E3",
"u. c #F2E5E5",
"i. c #F3E7E7",
"p. c #F4E8E8",
"a. c #F4E9E9",
"s. c #F6ECEC",
"d. c #F6EDED",
"f. c #F6EEEE",
"g. c #F7EEEE",
"h. c #F7EFEF",
"j. c #F8F2F2",
"k. c #F9F2F2",
"l. c #F9F3F3",
"z. c #FAF4F4",
"x. c #FAF5F5",
"c. c #FBF7F7",
"v. c #FCF8F8",
"b. c #FCF9F9",
"n. c #FDFAFA",
"m. c #FDFBFB",
"M. c #FEFDFD",
"N. c #FFFEFE",
"B. c white",
/* pixels */
"@ @ @ @ @ @ @ @ @ @ @ @ @ @ @ @ @ @ @ + o X X . . .                         . . . X X o + @ @ @ @ @ @ @ @ @ @ @ @ @ @ @ @ @ @ @ ",
"@ @ @ @ @ @ @ @ @ @ @ @ @ @ @ + o .                                                         . o + @ @ @ @ @ @ @ @ @ @ @ @ @ @ @ ",
"@ @ @ @ @ @ @ @ @ @ @ @ @ O X                                                                     X O @ @ @ @ @ @ @ @ @ @ @ @ @ ",
"@ @ @ @ @ @ @ @ @ @ @ O .                                                                             . O @ @ @ @ @ @ @ @ @ @ @ ",
"@ @ @ @ @ @ @ @ @ + X                                                                                     X + @ @ @ @ @ @ @ @ @ ",
"@ @ @ @ @ @ @ @ O .                                                                                         . O @ @ @ @ @ @ @ @ ",
"@ @ @ @ @ @ @ o                       $ * - ; > 1 2 3 3 3 3 3 3 3 3 3 3 3 3 2 1 > ; - * $                       o @ @ @ @ @ @ @ ",
"@ @ @ @ @ @ o                   % = < 3 3 3 3 3 3 3 3 3 3 3 3 3 3 3 3 3 3 3 3 3 3 3 3 3 3 < = %                   o @ @ @ @ @ @ ",
"@ @ @ @ @ O                 & ; 3 3 3 3 3 3 3 3 3 3 3 3 3 3 3 3 3 3 3 3 3 3 3 3 3 3 3 3 3 3 3 3 ; &                 O @ @ @ @ @ ",
"@ @ @ @ + .               - 3 3 3 3 3 3 3 3 3 3 3 3 3 3 3 3 3 3 3 3 3 3 3 3 3 3 3 3 3 3 3 3 3 3 3 3 -               . + @ @ @ @ ",
"@ @ @ @ X             # : 3 3 3 3 3 3 3 3 3 3 3 3 3 3 3 3 3 3 3 3 3 3 3 3 3 3 3 3 3 3 3 3 3 3 3 3 3 3 : #             X @ @ @ @ ",
"@ @ @ O             # , 3 3 3 3 3 3 3 d B.B.B.B.B.v.3 y.7.3 X.B.K 3 3 3 p.;.3 m.B.B.B.m.:.9 3 3 3 3 3 3 , #             O @ @ @ ",
"@ @ @ .             : 3 3 3 3 3 3 3 3 d B.! m m m z 3 u.8.3 o.B.v.0 3 3 a.:.3 m.*.m D ..M.9.3 3 3 3 3 3 3 :             . @ @ @ ",
"@ @ O             - 3 3 3 3 3 3 3 3 3 d B.C 3 3 3 3 3 u.8.3 o.b.b.1.3 3 a.:.3 m.} 3 3 3 ^ B.f 3 3 3 3 3 3 3 -             O @ @ ",
"@ @ X           & 3 3 3 3 3 3 3 3 3 3 d B.2.O.O.O.g 3 u.8.3 o.x.U B.C 3 a.:.3 m.} 3 3 3 z B.P 3 3 3 3 3 3 3 3 &           X @ @ ",
"@ +             ; 3 3 3 3 3 3 3 3 3 3 d B.n.c.c.c.V 3 u.8.3 o.x.3 q.z.7 a.:.3 m.} 3 3 3 8 B.! 3 3 3 3 3 3 3 3 ;             + @ ",
"@ o           % 3 3 3 3 3 3 3 3 3 3 3 d B.C 3 3 3 3 3 u.8.3 o.x.3 s N.&.a.:.3 m.} 3 3 3 z B.F 3 3 3 3 3 3 3 3 3 %           o @ ",
"@ .           = 3 3 3 3 3 3 3 3 3 3 3 d B.C 3 3 3 3 3 u.8.3 o.x.3 3 } B.n.:.3 m.} 3 3 3 #.B.y 3 3 3 3 3 3 3 3 3 =           . @ ",
"@             < 3 3 3 3 3 3 3 3 3 3 3 d B.C 3 3 3 3 3 u.8.3 o.x.3 3 3 s.B.:.3 m.*.m F O.N.4.3 3 3 3 3 3 3 3 3 3 <             @ ",
"+           $ 3 3 3 3 3 3 3 3 3 3 3 3 d B.C 3 3 3 3 3 u.7.3 o.x.3 3 3 n B.;.3 m.B.B.B.b.1.6 3 3 3 3 3 3 3 3 3 3 3 $           + ",
"o           * 3 3 3 3 3 3 3 3 3 3 3 3 3 3 3 3 3 3 3 3 3 3 3 3 3 3 3 3 3 3 3 3 3 3 3 3 3 3 3 3 3 3 3 3 3 3 3 3 3 3 *           o ",
"X           - 3 3 3 3 3 3 3 3 3 3 3 3 3 3 3 3 3 3 3 3 3 3 3 3 3 3 3 3 3 3 3 3 3 3 3 3 3 3 3 3 3 3 3 3 3 3 3 3 3 3 -           X ",
"X           ; 3 3 3 3 3 3 3 3 3 3 3 3 3 3 3 3 3 3 3 3 3 3 3 3 3 3 3 3 3 3 3 3 3 3 3 3 3 3 3 3 3 3 3 3 3 3 3 3 3 3 ;           X ",
".           > 3 3 3 3 3 3 3 3 3 3 3 3 3 3 3 3 3 3 3 3 3 3 3 3 3 3 3 3 3 3 3 3 3 3 3 3 3 3 3 3 3 3 3 3 3 3 3 3 3 3 >           . ",
".           1 3 3 3 3 3 3 3 3 3 3 3 3 3 3 3 3 3 3 3 3 3 3 3 3 3 3 3 3 3 3 3 3 3 3 3 3 3 3 3 3 3 3 3 3 3 3 3 3 3 3 1           . ",
".           2 3 3 3 3 3 3 3 3 3 3 3 3 3 3 3 3 3 3 3 3 3 3 3 3 3 3 3 3 3 3 3 3 3 3 3 3 3 3 3 3 3 3 3 3 3 3 3 3 3 3 2           . ",
"            3 3 3 3 3 3 3 3 3 3 3 3 3 3 3 3 3 3 3 3 3 3 3 3 3 3 3 3 3 3 3 3 3 3 3 3 3 3 3 3 3 3 3 3 3 3 3 3 3 3 3 3             ",
"            3 3 3 3 3 3 3 3 3 3 3 C B.B.B.N.f.M 3 C B.d 3 3 3 3 { m.3 3 3 3 d.,.3 b.B.B.B.B.B.&.3 3 3 3 3 3 3 3 3 3             ",
"            3 3 3 3 3 3 3 3 3 3 3 C B.K M K t.c.3 C B.d 3 3 3 3 } M.3 3 3 3 f.<.3 n.;.m m m m p 3 3 3 3 3 3 3 3 3 3             ",
"            3 3 3 3 3 3 3 3 3 3 3 C B.d 3 3 ] M.3 C B.d 3 3 3 3 } M.3 3 3 3 f.<.3 n.o.3 3 3 3 3 3 3 3 3 3 3 3 3 3 3             ",
"            3 3 3 3 3 3 3 3 3 3 3 C B.2.-.7.N.+.3 C B.d 3 3 3 3 } M.3 3 3 3 f.<.3 n.t.#.#.#.#.i 3 3 3 3 3 3 3 3 3 3             ",
"            3 3 3 3 3 3 3 3 3 3 3 C B.k.h.v.B.5.5 C B.d 3 3 3 3 } M.3 3 3 3 f.<.3 n.m.l.l.l.l.l 3 3 3 3 3 3 3 3 3 3             ",
"            3 3 3 3 3 3 3 3 3 3 3 C B.d 3 3 L B.H C B.d 3 3 3 3 ^ B.3 3 3 3 l.%.3 n.o.3 3 3 3 3 3 3 3 3 3 3 3 3 3 3             ",
"            3 3 3 3 3 3 3 3 3 3 3 C B.d 3 3 4 B. .C B.d 3 3 3 3 V B.g 3 3 7 N._ 3 n.o.3 3 3 3 3 3 3 3 3 3 3 3 3 3 3             ",
"            3 3 3 3 3 3 3 3 3 3 3 C B.K m B 3.B.N C B.K m m m r r M.y.m G 0.B.x 3 n.;.m m m m j 3 3 3 3 3 3 3 3 3 3             ",
"            3 3 3 3 3 3 3 3 3 3 3 C B.B.B.B.v.} 3 C B.B.B.B.B.Q 3 D x.B.B.x.E 3 3 n.B.B.B.B.B.t.3 3 3 3 3 3 3 3 3 3             ",
"            3 3 3 3 3 3 3 3 3 3 3 3 3 3 3 3 3 3 3 3 3 3 3 3 3 3 3 3 3 t i 3 3 3 3 3 3 3 3 3 3 3 3 3 3 3 3 3 3 3 3 3             ",
"            3 3 3 3 3 3 3 3 3 3 3 3 3 3 3 3 3 3 3 3 3 3 3 3 3 3 3 3 3 3 3 3 3 3 3 3 3 3 3 3 3 3 3 3 3 3 3 3 3 3 3 3             ",
".           2 3 3 3 3 3 3 3 3 3 3 3 3 3 3 3 3 3 3 3 3 3 3 3 3 3 3 3 3 3 3 3 3 3 3 3 3 3 3 3 3 3 3 3 3 3 3 3 3 3 3 2           . ",
".           1 3 3 3 3 3 3 3 3 3 3 3 3 3 3 3 3 3 3 3 3 3 3 3 3 3 3 3 3 3 3 3 3 3 3 3 3 3 3 3 3 3 3 3 3 3 3 3 3 3 3 1           . ",
".           > 3 3 3 3 3 3 3 3 3 3 3 3 3 3 3 3 3 3 3 3 3 3 3 3 3 3 3 3 3 3 3 3 3 3 3 3 3 3 3 3 3 3 3 3 3 3 3 3 3 3 >           . ",
"X           ; 3 3 3 3 3 3 3 3 3 3 3 3 3 3 3 3 3 3 3 3 3 3 3 3 3 3 3 3 3 3 3 3 3 3 3 3 3 3 3 3 3 3 3 3 3 3 3 3 3 3 ;           X ",
"X           - 3 3 3 3 3 3 3 3 3 3 3 3 3 3 3 3 3 3 3 3 3 3 3 3 3 3 3 3 3 3 3 3 3 3 3 3 s 8 3 3 3 3 3 3 3 3 3 3 3 3 -           X ",
"o           * 3 3 3 3 3 3 3 3 3 3 3 l B.B.B.B.M.i.g 3 A B.p m B.%.3 3 3 &.s.3 3 e 9.n.B.B.d.v 3 3 3 3 3 3 3 3 3 3 *           o ",
"+           $ 3 3 3 3 3 3 3 3 3 3 3 z B.K f j Y v.r.3 S B.a m B.B.m 3 3 *.d.3 e f.f.H q c e.n.0 3 3 3 3 3 3 3 3 3 $           + ",
"@             < 3 3 3 3 3 3 3 3 3 3 z B.n 3 3 3 5.k.3 S B.a m B.p.g.4 3 *.d.3 R B.u 3 3 3 r 4.h 3 3 3 3 3 3 3 3 <             @ ",
"@ .           = 3 3 3 3 3 3 3 3 3 3 z B.o.T Q =.B.@.3 S B.a m B.M N.O.3 *.d.3 >.j.3 3 3 3 3 3 3 3 3 3 3 3 3 3 3 =           . @ ",
"@ o           % 3 3 3 3 3 3 3 3 3 3 z B.N.N.B.M.) 5 3 S B.a m B.p | N.l *.d.3 w.u.3 3 W c.c.c.( 3 3 3 3 3 3 3 3 %           o @ ",
"@ +             ; 3 3 3 3 3 3 3 3 3 z B.n 3 ~ B.o.3 3 S B.a m B.p 4 d.a.*.d.3 $.n.3 3 m O.O.M.o.3 3 3 3 3 3 3 ;             + @ ",
"@ @ X           & 3 3 3 3 3 3 3 3 3 z B.n 3 3 2.B.N 3 S B.a m B.p 3 m B.v.d.3 I B.J 3 3 3 3 v.o.3 3 3 3 3 3 3 &           X @ @ ",
"@ @ O             - 3 3 3 3 3 3 3 3 z B.n 3 3 e n.f.3 S B.a m B.p 3 3 ;.B.d.3 4 q.N.` k Z 7.B.[ 3 3 3 3 3 3 -             O @ @ ",
"@ @ @ .             : 3 3 3 3 3 3 3 l B.b 3 3 3 T B.' A B.p m B.p 3 3 9 v.d.3 3 6 6.b.B.B.x./ 3 3 3 3 3 3 :             . @ @ @ ",
"@ @ @ O             # , 3 3 3 3 3 3 3 3 3 3 3 3 3 3 3 3 3 3 3 3 3 3 3 3 3 3 3 3 3 3 3 f w 3 3 3 3 3 3 3 , #             O @ @ @ ",
"@ @ @ @ X             # : 3 3 3 3 3 3 3 3 3 3 3 3 3 3 3 3 3 3 3 3 3 3 3 3 3 3 3 3 3 3 3 3 3 3 3 3 3 3 : #             X @ @ @ @ ",
"@ @ @ @ + .               - 3 3 3 3 3 3 3 3 3 3 3 3 3 3 3 3 3 3 3 3 3 3 3 3 3 3 3 3 3 3 3 3 3 3 3 3 -               . + @ @ @ @ ",
"@ @ @ @ @ O                 & ; 3 3 3 3 3 3 3 3 3 3 3 3 3 3 3 3 3 3 3 3 3 3 3 3 3 3 3 3 3 3 3 3 ; &                 O @ @ @ @ @ ",
"@ @ @ @ @ @ o                   % = < 3 3 3 3 3 3 3 3 3 3 3 3 3 3 3 3 3 3 3 3 3 3 3 3 3 3 < = %                   o @ @ @ @ @ @ ",
"@ @ @ @ @ @ @ o                       $ * - ; > 1 2 3 3 3 3 3 3 3 3 3 3 3 3 2 1 > ; - * $                       o @ @ @ @ @ @ @ ",
"@ @ @ @ @ @ @ @ O .                                                                                         . O @ @ @ @ @ @ @ @ ",
"@ @ @ @ @ @ @ @ @ + X                                                                                     X + @ @ @ @ @ @ @ @ @ ",
"@ @ @ @ @ @ @ @ @ @ @ O .                                                                             . O @ @ @ @ @ @ @ @ @ @ @ ",
"@ @ @ @ @ @ @ @ @ @ @ @ @ O X                                                                     X O @ @ @ @ @ @ @ @ @ @ @ @ @ ",
"@ @ @ @ @ @ @ @ @ @ @ @ @ @ @ + o .                                                         . o + @ @ @ @ @ @ @ @ @ @ @ @ @ @ @ ",
"@ @ @ @ @ @ @ @ @ @ @ @ @ @ @ @ @ @ @ + o X X . . .                         . . . X X o + @ @ @ @ @ @ @ @ @ @ @ @ @ @ @ @ @ @ @ "
};
