/* XPM */
static char *result[] = {
/* columns rows colors chars-per-pixel */
"64 64 71 1 ",
"  c #040403",
". c #080705",
"X c #070804",
"o c #0A0A06",
"O c #0D0D09",
"+ c #100F06",
"@ c #100F0B",
"# c #0F1006",
"$ c #0F100A",
"% c #111307",
"& c #13120D",
"* c #19150E",
"= c #17180B",
"- c #1A1B0C",
"; c #161511",
": c #181712",
"> c #171812",
", c #1B1A14",
"< c #1E1E18",
"1 c #211E0E",
"2 c #211E17",
"3 c #211F19",
"4 c #1E210C",
"5 c #1F2114",
"6 c #1F201B",
"7 c #22250D",
"8 c #2B320D",
"9 c #222215",
"0 c #292412",
"q c #272A13",
"w c #292E14",
"e c #24231C",
"r c #29261D",
"t c #27281E",
"y c #2A291E",
"u c #312C1E",
"i c #272720",
"p c #2A2721",
"a c #272821",
"s c #2C2A22",
"d c #2F2F29",
"f c #312E25",
"g c #322F2A",
"h c #2F3126",
"j c #323125",
"k c #393626",
"l c #373927",
"z c #34332A",
"x c #393629",
"c c #3C3A2D",
"v c #363632",
"b c #3C3C32",
"n c #423F32",
"m c #3B412C",
"M c #444134",
"N c #4E4636",
"B c #43423A",
"V c #49473B",
"C c #4B4B3D",
"Z c #524B35",
"A c #56513E",
"S c #474641",
"D c #4D4B40",
"F c #524F41",
"G c #525145",
"H c #585344",
"J c #5E5B4B",
"K c #5F6058",
"L c #6A6656",
"P c #6C6B5B",
"I c #706A5A",
/* pixels */
"X       . XX             X XooXX   . X  .   X.oo# XXX#o#o%X#XX X",
"=%oo%%..oXoXX784%#4=oo####XX=477-o *-%%+--%-=#%-%%#%#%X%%#=4-=%#",
"++%@%%  %.ooo4##o%.%%oo#oo o%4=%+. ++.+o11=%%X=o#oX%##X###X%%###",
"**@%.%.oX.X%oo%%%Xo%oXooXXX###%o%.o-*@**0%%7%X%X##o==#o%#%#X=#-4",
"@o%oo@.    X    XXX  ooOo% X##.+. O01&o+0Oo%% X.  Xo  oX..o X#o#",
"X.oo@@:,,=*>o4- XXo%%4778##&#q-.. OO&;,,=,o%%-4==%#&=##Xo%+o##-o",
"XoXo%.O;,2-=.-%==XX%Xo%&q-5&%9&O:3at,::2r>+Xo%=.=.==4--#-+o--%oX",
".X   .O&&%>=.&%#..%%o+-&,j5>ttt&6<3ae;,,,9&#%oo%X=#==9w&%XXoo%XX",
"   oo ooO O;O&OOO OOo&>&@;:<3si;<e,;&.;&O:&. OO >##Xo&&OX  O+ . ",
"         . .           .    .o..  o       X     X X            .",
"   o.oOO.dSmii>a&eO9,>ta:;<3xsbst&cety;i3bzzss&;<q95m<<<*&;o. X+",
"O@$&;;;,@KbBSp,<&;ee%O&&e&;;<<<,%.,aa<:;;3,;<<,65;,h6666,&&:O&&O",
" ...&;;;&SvzSv3s<rxes:>$:.>:;;;;, O&,o,OO;;i<&@6aazb6<a6<O;@&.& ",
"         .   O@;& O@&@  .         .  ... .O.O.. . .X.O          ",
"O$$OoOrbsgpizi&:;@9clryOrf<OCs6i;&tati3a>6ap@,,<>,,PGmF@;;;@:,>&",
"O..o%.OO&Oo&&:&:>$,==oOOute;,;;@O&e><;&3;s6iO66;$>6PPnJ;;3,@&OO ",
"$O$&;O><e,&&e,6>&&O&;;; ;o. @<,;$O&$6s;$O&<<@<e;>;6LIHJ;;<:O;;O.",
" . &oX   .   XXXXO     .       .    $.. o   .    oO;.OOXo    .  ",
"$o>oe,6,6,tzjb6jhtttslht3Oe<ad3essa<66$&;$%e<<;Oi;$;,<&<; ;.;,;&",
"eOOX$&O%.,O;eh&&O;>,t&:>;.3sgve6&&<;ii6,<;;>,<<o<s,Vp;et3&O&$;;N",
"r.. .$.$X;za6$>&&,e @,;@;Oess3&,ar&&>;$;;;O>,<<oZHLLM:&&<@O;;>&k",
"O        ;o$ o.  .      X &;Oe&Oo:@  $  $OX     @*2e0.    OoX. ;",
"$O>e6,6e<a6Cz;ee,>rr,>escctasi<ar&Mn,,=6ee<>$aVi,a<jtx<es,t;$,9&",
"o&%o$>$$&6><,O=<>>&O@O;,,e,eo,ss&Or,$&&>>$;&;;ai>;,Mvn,<isj9&&#=",
"      .  ooo, &>e2%@&O&e9t>>.OoO&$.OOX.  .  OO,$sg:xgDsO;<;@.@..",
"  . .e<;@o;O;        ...  ..  .o            @<a,:p3@,O..OO.@.   ",
"o.%,2>ffx,;,eei6<:tsjasz,jkcj2,e>,;@.;&;&Svd,ibBpi22izFgz,p,,r;;",
"o $&*-pp,;,,.O;$;;t>eeti;3t9,&@:;&OXX.Oo:g6i<agakr3s:sbgd<i2>>@O",
" X o&.&,<;OOOoO;>&:O&&@@.,:33<@@:&@ .&&O&&<iO;3;322u,Gipis33>>oX",
"  .    .OO       Oa,O@.O. .o.oO      .. .&..@v.&::&*:s;3p@:@@O. ",
"9j&&o&3:<,;,,@i<3,e>&@s3e3eo::2;o@;;<;;;;,,<&,,3e:@3e3ss33,e>&*%",
"t&>>.&,,;,,,;;,,<&,,;@:;:3; 3,,*.O&&:&;t;,<;;O.3@3O2;22:2&*::.&*",
"e,t& @@;:;;>;&,,>&;&;O:,3::..;%OoO:&O;O.@;&;;;@O@..@,<:&@;2,:&%:",
"X.O  .  >o%OOo,O;>.. oo           OOOo.  .@O@O&.&..       o.  ..",
"oO;;Oo ;,:&<<<e2,.;OOOO$OO. .o@&@&3& ;:;:;<:ei&,;;;&@;&;,O&.o&%&",
"o&O;:Oo;;;OO&&@=>.>&etaa3&&-@&@>>9p,@&@;;pe;e::e<,<<;<O,:@@O>o&O",
"o$oOOOX&&&O&%@@@%.poo.<&;3s;O;@ee%.:OO<::3O..@;,;,<,&>@;*oO ooO@",
" oXooOo&OoXO:o   .;;;  X;;<;;3Oe :,3.....;O@Ooo,..O    OOo. o.. ",
"              .  .  X    <@.      .O..  .OOO  ..O ..&OO&OoOO    ",
"OXXX&oOOO:&Xo@o.%@@@o.;j&ea>oCez,c&@oO. ...O &@:&;<;id;O;er<&O%.",
">Oo.&oOO:::.OO..o*@@ .@o*+o9 Mf3n,&;;O;o@;; .;;O,o23pfs2;,:;<O&O",
"X.. .X$O;:;OOOO.o.@: .XX  O os:O,2;i<,,O&O,:o:<<3.@,rps,;:,<:.OO",
"     .     .     .  .        :   O@..  .. .. o.. O@ ..O;;Oo O&O ",
"OX$.X;:O;,,:;2er3r:;@;&%,,&>,3,;Ge,:s,,OO.<<;<z;<r>.O:><e;;@;&&O",
"$$&. O;O@&2o2:3<;&;O.oO.%;,2;,;oe,$O;,;;;;@;ppOo o  .;;@;&OoO>;%",
"OOOO     .   &:O.Oo .    ;@O  o.;.O@s<iae3:Oes;..O;ooO;O&.o.;&&;",
"      .oO..;&;;;oO       X. .. .Ooo;>; &;O<p         o          ",
" oo o&..ooO.&OO;,O;@;3psn3HANnu,;,;&,66;,si;@z;<<;pif3>zpp;,:O..",
"O;o.OO .OOO O$O>;>O .;<g,;BvMs;&<3i$,;,,O;O.@aO;,<<s;;@:i@&:;O;o",
"oOOooOo @@O X .o  . ;6;<<;virrrue:,O;;&O;O@OOO Os:e;;Oi;fe,O;OO.",
"        ...        .;<;.:33:;..o@&$o    . .OOddi.Oe:  .$;       ",
"oO;;;,,:@;;&;;$o.>@@6<;.&:<:>tahae<>i;>i6;;;;,>$;@6;$o;$,O@;>>>O",
" .O$$OO&o. o$@$@...O;@;.,&<O.<&9*&>&&OOo..@;oo;.>@O.XoOO;o&&:&&$",
"ooOO;;Oo $O&O.  .OO@OO...O..;;&O=OooO.$OOOOOO..oOO;.o.;;@;rte9=&",
".   oOo  ooOO.OO.O;O...OO;...   XXoo.O. ;OOO. ....O   ...3;.OO.$",
"            .   . ..  ...  O              .    .     O.  .@oO  X",
"OOOO.O..@>O;;;;;;@;6<;O@:.23Nn3;&,,t:;,&@;:p::@OO*.O23@O,;:@p;*@",
"$ O.O...   &;O@;;;;;;;@OOO3pkng:;.;.O@;@O;:2OO;@;@*OO.@O<o .;o.o",
"&$O;OOO.@.O&O;;>;&::@OO;. 3fnnpO>3e.@:&@OO::OO;;3s3:**OO,e: ,:&&",
"    .... O  O.OO.. O...  ...1.;O;,; O@@OOO;O.;.@:r@@@:O@::O;o   ",
"  .OO@@O.OO@>6a;@:O:;3*@@:;2iO@@:3:@@;,3r:O;@;223O3;@@O&o,,;:,;;",
"O O.@@;;;@O@;;;;;;;O&@;&:&&2r;;;*2@OO32p:3;3233p3;3;323r@,,>,,&,",
" O&;.,>>OO@@OO;@&*@@OO::&:*2r;*@&;2*.@O@@......@@..;;&:@.;  OO&O",
"   &O O O..O...... ..O.@@@2*;.@..@23:2r3...*3r223O;20rr3;@ OO.  "
};
