/* XPM */
static char *result[] = {
/* columns rows colors chars-per-pixel */
"64 64 214 2 ",
"   c #050504",
".  c #080705",
"X  c #070805",
"o  c #0A0A06",
"O  c #060B0B",
"+  c #0C0D0A",
"@  c #100F0B",
"#  c #0F1006",
"$  c #0D110D",
"%  c #111307",
"&  c #12120D",
"*  c #18160E",
"=  c #15190B",
"-  c #1A1B0C",
";  c #050F11",
":  c #061213",
">  c #0C1413",
",  c #0C1916",
"<  c #04161A",
"1  c #0B1718",
"2  c #05191D",
"3  c #0B1B1C",
"4  c #151511",
"5  c #181712",
"6  c #151915",
"7  c #1B1A14",
"8  c #131D1B",
"9  c #1B1E19",
"0  c #211B0F",
"q  c #201E17",
"w  c #211F19",
"e  c #172113",
"r  c #13201E",
"t  c #1B2519",
"y  c #1C211D",
"u  c #222314",
"i  c #23231C",
"p  c #29251D",
"a  c #252A1C",
"s  c #2A291F",
"d  c #061D22",
"f  c #0A1E22",
"g  c #0C2225",
"h  c #062329",
"j  c #05232A",
"k  c #0C2629",
"l  c #0C292D",
"z  c #132323",
"x  c #1B2522",
"c  c #172824",
"v  c #1C2925",
"b  c #132728",
"n  c #132A2C",
"m  c #1B2C2B",
"M  c #1D3127",
"N  c #1D312D",
"B  c #062B33",
"V  c #0B2D33",
"C  c #062F38",
"Z  c #122E31",
"A  c #182F30",
"S  c #0D3137",
"D  c #05333E",
"F  c #0C343B",
"G  c #0D383E",
"H  c #133134",
"J  c #1C3333",
"K  c #1F3937",
"L  c #13353A",
"P  c #1B3739",
"I  c #15393E",
"U  c #1A393C",
"Y  c #252520",
"T  c #292720",
"R  c #242A24",
"E  c #2B2B23",
"W  c #232E2A",
"Q  c #2E2F28",
"!  c #302E25",
"~  c #24312D",
"^  c #2D332D",
"/  c #343229",
"(  c #34342C",
")  c #3B3A2D",
"_  c #263532",
"`  c #2A3B35",
"'  c #283B39",
"]  c #303731",
"[  c #3C3B33",
"{  c #403E32",
"}  c #2E413B",
"|  c #444134",
" . c #44433B",
".. c #494A3A",
"X. c #063540",
"o. c #093741",
"O. c #063A45",
"+. c #0B3A43",
"@. c #063D49",
"#. c #093E49",
"$. c #133C42",
"%. c #1A3E42",
"&. c #213F40",
"*. c #0B424D",
"=. c #164045",
"-. c #14444C",
";. c #1B444A",
":. c #1A464B",
">. c #064554",
",. c #0B4652",
"<. c #054857",
"1. c #0C4955",
"2. c #064B5B",
"3. c #0B4D5B",
"4. c #144750",
"5. c #134B54",
"6. c #194C53",
"7. c #124D59",
"8. c #0C515F",
"9. c #13525D",
"0. c #1B535B",
"q. c #214243",
"w. c #274848",
"e. c #26545A",
"r. c #385754",
"t. c #054F61",
"y. c #065264",
"u. c #0A5464",
"i. c #0B5767",
"p. c #055669",
"a. c #055A6E",
"s. c #0B5B6C",
"d. c #135664",
"f. c #185561",
"g. c #145966",
"h. c #1C5962",
"j. c #125C6B",
"k. c #185D6B",
"l. c #055D72",
"z. c #0A5E71",
"x. c #115F71",
"c. c #205E69",
"v. c #10616E",
"b. c #056277",
"n. c #0B6274",
"m. c #05657C",
"M. c #0B667A",
"N. c #0B697E",
"B. c #136374",
"V. c #1A6471",
"C. c #106578",
"Z. c #12697B",
"A. c #2E666C",
"S. c #4A4C41",
"D. c #585849",
"F. c #535D52",
"G. c #4C615A",
"H. c #5B665C",
"J. c #626658",
"K. c #556A64",
"L. c #607B75",
"P. c #056B84",
"I. c #0B6D83",
"U. c #056E88",
"Y. c #106E82",
"T. c #1A6E80",
"R. c #0C7086",
"E. c #06728B",
"W. c #0C748B",
"Q. c #147284",
"!. c #13758A",
"~. c #137A8E",
"^. c #057691",
"/. c #057995",
"(. c #097B95",
"). c #0A7B94",
"_. c #047E9B",
"`. c #137D93",
"'. c #237583",
"]. c #06819E",
"[. c #0C829D",
"{. c #15849B",
"}. c #0584A2",
"|. c #0C86A2",
" X c #0988A7",
".X c #058CAD",
"XX c #0B8DAB",
"oX c #158CA5",
"OX c #0B90AF",
"+X c #1291AE",
"@X c #058FB0",
"#X c #0492B4",
"$X c #0B93B3",
"%X c #0495B9",
"&X c #0997B9",
"*X c #0599BD",
"=X c #0A9ABC",
"-X c #059DC3",
";X c #099EC1",
":X c #06A1C6",
">X c #03A5CC",
",X c #0BA5C9",
"<X c #09A5CA",
"1X c #04ABD3",
"2X c #03AED9",
"3X c #04B2DC",
"4X c #09B2DB",
"5X c #02B5E2",
"6X c #03B9E6",
"7X c #01BDEC",
"8X c #02C0EF",
"9X c #01C3F4",
"0X c #00C7F9",
"qX c #00CBFE",
/* pixels */
"        . . .   .         o o o X X X X     X X X O O # o o # o X     # . o   o X   X o # X X o % X X o X o % o % % o o o X X X ",
"% + + # % #     o o o o o - 0 % # o = % # o # # o # : # = - - - = X   % % o o o = = % % % # % % # o o % # % X % # # % % % % # # ",
"% @ % # % % . . o o o o # - % # X # # # # # X o o : O o % = = % # . . % @ o # # 0 - % % % o % o # o o % % # X % o o % # % # # % ",
"* & @ # o o   . o   o # # # # % # O # = : O # X # : X # # o # # # . o - 0 % @ & 0 - % - % o o o # % o % % o o % # % # o % % = - ",
"# . o . o o . .       O <     X X X ; $ < O # X ; : X X X o o o .   o - * o o @ 7 $ o % %     .       o X   o       o   X o # # ",
". . . o o # 4 4 * * % 8 f = #   X O < , , e = - c e e = = t - + + + 5 7 & 0 7 w y - + o # # % % % o + % % % # X o # o o o % % X ",
". . . o @ o @ 7 9 7 - e g e = # # O 2 e , % = = M M M c r a e * * 7 E E i i i ~ R q @ o o # % % = % = = = - - = % % o % % = % X ",
". .     . . @ 4 & * 6 - 3 r $ # o # , g , $ = r G q.M Z M R a - 7 9 w i 9 6 b v q q & # o # % @ + % # * - u u = % #   o # o o X ",
"      .     O . + o + & > b + + $ O 3 h $ = r S Z z z A ~ E Y 5 7 7 4 4 & 1 3 4 + > @ o . @ + . % + o o + & & o .     . o   o   ",
"            . . . + > $ > g f 4 6 3 f f ; < l L 1 + 3 k y 5 4 5 4 @ 4 @ , 3 o o + 4 5 & @ . . . o $ $ # o + + o     . .         ",
". . . . . + @ @ + Q  .[ E R L J v N b ~ r H 9.;.R 7 y J ~ Y E Y q * E p _ v 4 9 Y ( ( / E Y 5 5 9 u u i a e 7 7 5 4 & @ o . o % ",
"o o @ @ @ > 5 5 4 [ S.S.S.( R U I H J J n G s.:.A z z n A y w 7 @ @ u R K y 5 7 9 v y 9 5 w 9 y i u i s i q w w q & 4 4 & @ @ & ",
"      . + > @ @ @ ] [ [ { [ E ~ 4.%.` ~ W F s.u.#.o.m Z n 9 6 5 4 @ & 8 H 3 8 8 f z z w 7 4 4 5 9 i ^ ^ 5 9 w 7 5 + @ 4 @ + +   ",
"    . . . . @ @ + 4 @ @ 4 6 5 9 -.S 6 x x $.M.a.7.@.C j 1 + O . . . : V D g g k f 8 y 7 + + @ + + 4 r z > 4 > + . . + . . .     ",
"+ + + + + . q T Y Y 7 9 Y w 4 9 I F N } ' h.Q.M.0.0.4.b / Y w 7 4 * J %.m _ n W 9 i Y Y 8 9 x y 9 y _ G.S.[ { 6 4 4 & @ 4 5 4 @ ",
"+ + o + @ . @ @ 4 @ + & 5 5 & & r +.H =.I z.U.I.k.h.:.8 9 6 5 4 @ 9 %.r i m Z P A A A J 8 y y 9 r m w.L.J.S.D.Y 4 9 5 & & @ @ . ",
"+ + & & & @ 4 5 5 7 & $ 5 * 4 4 & l +.+.,.b.U.a.z.2.X.: + 4 5 @ $ z F 6 m &.1.3.o.Z %.H 8 9 w 5 r G e.K.H.G.G.J z 9 5 @ 4 @ + o ",
". o + + + + + & & > g 1 , , @ & & 4 V 1.3.i.b.i.t.p.<.g > + 1 1 , B C V s.I.z.X.8 + f f d + + O l 3.5.6.6.0.:.l 1 + . . o o . . ",
"+ o @ + 5 7 7 7 4 8 =.h.h.w.y i i i R =.v.Q.!.B.j.z.B.%._ E m R m e.6.C.|.!.8.*.z 1 l $.b 7 4 z 0.Z.n.j.-.L v 9 4 + @ + 4 5 7 i ",
"u + + o & & + $ $ z P 9.`.V.x & $ 6 9 9 I Q.OXW.z.z.V.h.&._ $.$.L d.Y.[.{.B.5.5.A n Z %.x 9 v %.`.`.h.r.W 9 y i 9 4 @ & & & p ..",
"u o X X o + o $ ; b ' _ n.$X3., $ 8 9 $ & n s.}.}.^.Z.!.V.:.7.s.B.Z.).).).u.,.$.Z L o.H 9 x 4.W.oXK.F.D.) 5 & 4 9 6 + @ & & q ) ",
"+ .   .   X + + : z n x 7.2X1Xz.z 6 8 , $ O d p.%X&XXX[.).R.N.(._..X(././.3.j f g +.y.C f +.P.t.=.N ! s q + + . + o 4 o @ & & 7 ",
"+ + & * * 8 x y t ~ w.A.'.;X9X6X~.U m J 8 4 c 0.+X<X3X=X|.+XXX$X=X@XoX;XE.s.L =.d.C.x.#.9.~.T.J y i i ( p E 9 9 w 5 i 7 * - - & ",
"+ + + + + 8 c Z +.8.I.$X.XE.).[._.).n.P.i.g 8 6.OX1X8X3X*X$X X:X1X$X=X=X).R.n.g.I.z.M.)._.x.&.Y 7 9 i | ) ) i i p E ! w & % o * ",
"        . O > g X.t.P.m.3.l z r J R.%X3X5X^.*.$.[.3X7X9X6X1X*X3X2X>X1X@X_._./.E.l._.-X^.y.V y 7 w T Y / ( { E @ 4 9 7 @ + @ + o ",
"    o   . & 7 f l @.*.F H g h +.3.<.b.^.}.*X$X/.E.>X7X9X9X3X3X8X6X7X2X#X%X%X-X_._.1X_.<.l z 9 5 5 Y w w w w 5 + o + + + + . . . ",
"    o & 4 5 R _ ` $.$.$.:.7.f.R.[.~.[.Q.Q.+X4X5X3X4X9XqXqX9X9X9X9X7X6X5X6X7X1X-X3X,X).7.A m ] / Y w 0 7 7 Y ( / T 7 w 7 * 5 * @ ",
"+   o & 4 5 Y T R I -.7.*.F *.E.@X[.Q.I.`.XX,X9X9XqX9XqXqXqX9XqX9X9X7X9X0X7X6X2X<X+X`.T.%.&.' Q T p w p w E ( ( ( Y w w 7 5 & @ ",
"      o o + @ 4 9 8 f V B h 3./.i.+.I +.8.I..X2X8XqXqXqXqXqXqXqXqXqXqX0X7X7X>X%X;X;XXXk.L ~ w 7 p Y w ! w { ! Y E T q w q 5 @ o ",
"            . . + + O : : 2 @.@.d b N Z ,.,.P.%X1X7X0XqXqXqXqXqXqXqXqXqX7X7X3X>X.XE.z.#.z Q > @ 5 @ @ 0 5 Y w q 9 4 @ & @ o .   ",
"7 u * + . @ 5 4 4 4 4 6 8 r n P b $.6.5.P..X-X>X2X6X9XqXqXqXqXqXqXqXqXqX0X7X7X*X_.U.z.#.f 8 4 5 5 5 4 5 7 7 7 w 7 4 & 5 & o @ @ ",
"i 7 u 5 o @ 7 7 5 5 7 7 7 6 9 x v n 9.Q. X>X5X7X9X9X0XqXqXqXqXqXqXqXqXqX0X7X6X>X-XXXY.7.$.l 1 9 9 7 @ q 5 7 w q 0 & 5 7 7 @ & * ",
"7 7 i & . @ & 4 5 * 4 4 4 & 7 9 t c 4.R.@X1X3X3X8X0X0XqXqXqXqXqXqXqXqXqXqX0X8X1X%X|.(.s.+.b f f z f ; 4 5 7 5 * + & 5 7 5 @ @ * ",
"o + + .   . . . $ + + + + + & $ $ 3 D p.m.].-X>X3X8X8XqXqXqXqXqXqXqXqXqXqX0X9X8X5X-X%XP.1.#.1.X.V f O . . . . .   . o o . . X X ",
"o o @ & + . o @ * & & * 4 5 7 7 7 h +.,.y.P.*X1X7X9X9XqXqXqXqXqXqXqXqXqX0X8X6X8X5X2X-X_.W.x.z.7.S z 4 @ @ & + 4 4 + & O o $ + + ",
"+ + + 4 4 o + 4 4 & + & * 5 * 5 t b J *.[.3X9X8X8X9XqXqXqXqXqXqXqXqXqXqX9X5X1X>X4X5X7X3X-X+XW.f.J %.%.A z R z b x 3 8 + & & & & ",
"X + + + + & o & & @ + 4 4 @ @ + $ l 0.s..X2X>X1X5X9X9X9X9XqXqXqXqXqXqX9X0X3X*XXX X_. X@X%X-X;XXXx.d.g.-.$.5.,.+.H g : O o o + o ",
"    X X o + o > V ,.>.8.8.o.f d D U.#X-X:X>X2X3X5X3X6X6X9X0XqXqXqX0XqX9X6X6X.XE._.P.s.,.<.l._.@X_.P._._.P.p.<.+.V 1 + o     .   ",
"O O     O d D ,.2.G @.<.l.a.a.I.E.P.3.<.m..X.X&X2X1X:X:X0XqX0XqX0X9XqX9X1X3X>X].E.I.9.L f B #.1.,.o.1.x.M.M.p.+.f > & + o       ",
"S D D B o.@.S 3 3 H l 1 > 3 l o.b r 8 H b.E.W.=X<XOX~.>X9X9X9XqX9X4X7X9X1X#X3X-XI.2.#.k > 6 n z z b z A &.w.7.8.$.m i 5 * @ + o ",
"r l O.O.S 1 > 3 S n 5 + ; 1 1 : 1 l S 1.m.P.b.b.}.s._.3X9X6X7XqX9X=X2X7X7X X).@X%XW.z.>.1 4 r f n b 9 i R / ^ U 4.=.m 9 9 & & & ",
"$ < : O , d V l b 6 4 + > + : f , g *.z.b.l.B X.m._.@X5X5X1X6X0X9X<X2X3X7X<XP.*.u.^..X%XU.L y 9 c > > 4 w T T x b Z Z 8 * + + o ",
"O X X O O ; : 1 > + + + . . 1 d 3 V y.m.y.*.j X.U._._.>X@X_.<X9X9X-X;X<X2X5X}.u.#.+.u.i.(._.z.l 1 6 8 @ @ > 4 5 6 8 1 : + + @ . ",
"+ X $ o . @ 4 6 8 7 7 5 5 9 Y W A =.$.n l +.g u.M.g.N. XY.B.*X3X7X&X X$XXX1X-XI.z.t.7.U $.f.T.W.-.~ x > @ & 5 7 7 7 & + & & * & ",
"+ + + O . o + 4 + @ 5 @ * 5 9 9 8 r z : h 3 h i.u.7.C.C.7.8.@X-X1X[.M.U.!.).*XC.$.$.+.L W W r t.t.2 ; ; + 4 4 & 4 & + . + 4 4 * ",
"+ o o + . . . o . o . . + 4 9 8 3 3 g B 2 : D <.u.8.i.i.o.o./._.&Xb.#.*.Z.V.(.`.;.R m r w Y 4 : z.,.1 + . + 4 : > + . . + & & + ",
"      . . o o o o o + + @ & 4 > ; > d < O d @.<.3.#.3.i.b l l.^.}.n.l Z =.$.,.R.M.-.J 9 + . . + o.U.#.f 1 1 8 f > @ + + . . . . ",
". o . . + + . . + o + . + @ @ @ 4 & 3 + 8 P h.k.c.0.'.r.{ ] 6.R.I.Y.H 8 9 y c $.x.!.6.8 4 Y 6 9 9 7.B.q.P J %.P W T 7 5 4 o o + ",
"+ > + . + + . . o + o . o + + 4 8 8 > . f 7.x.c.%.d.A.S.{ ( 8.^.C.`.:.4 4 5 5 6 l I.U.X.z R > 4 5 y 7.k.$.r r A ' r 4 4 5 @ + + ",
". + + o o + . . + + o . . . O < < ; ; ; o.d.I.f.$.x.e.Q T R g.{.Z.|.g.3 > 4 4 + > #.^.P.3.%.g z Y 6 y P ,.>.U r _ W 8 $ 4 @ + . ",
"        .       . + .       O < < < j @.#.i.i.@.#.I.7.4 @ > #.).M.).I.V $ O . O + : O.P.s.f.%.P 6 > 7 4 . d #.#.+.f O O o +     ",
". . + @ + 4 @ @ + @ + 4 @ @ : h j Z o.#.7.x.z.#.i.9.u.8 4 y 6.Y.B.R.M.9.A 1 4 5 4 4 f 3.z.$.$.V g f 9 4 + . 4 r o.,.f 6 4 @ > + ",
". . + & + & @ + + + o + @ & 3 g < f X.#.#.s.P.P.u.$.#.8 @ x 6.x.7.s.s.1.o.3 @ @ @ + @ Z u.o.8 8 8 4 6 + + + @ @ 6 #.$.x 9 4 * $ ",
". . o o 4 @ + . . + + > 1 1 f < ; 3 o.#.i.P.P.P.#.k @.1 @ y #.2.S F S S V f @ + . + + 3 o.O.f . + + + . . o & 4 & z 6.W w 7 * & ",
"        o + o     . + 1 f d d ; ; ; V #.l.P.y.O.f b O.; + d @.C 3 k g < j f 1 + + . + + j @.d O . . .     . + + + 5 n f + o o + ",
"                    . > 3 f d > @ 1 X.y.2.X.d 1 ; f o.4 > f @.d O ; < < ; : ; O . . + ; < B d ; O .   . . + . . . + 1 f + o o o ",
"+ + + + . O + . + & + 6 r b Z L H $.7.d.$.g > 4 6 g $.T { w.&.z 4 5 6 8 7 4 7 & @ 4 5 Y 8 z z @ @ @ @ @ 4 5 @ @ 5 4 9 f 7 4 & @ ",
"@ + + + + . . . o . o 4 f g V Z Z H Z A Z z 1 @ 4 V J E ( S.&.7 & & 4 + + @ 4 + @ 4 5 5 @ > 1 4 5 4 5 4 @ + @ 4 9 @ + > 5 + + @ ",
"@ @ + @ + . + + + + + > 8 f 8 6 1 7 8 9 z f f f B O.x E ( { E 4 5 w 7 o @ 4 4 @ + @ 5 5 @ + 4 4 q w Y 5 4 0 @ @ w w 5 + 6 4 @ @ ",
"      . . . . . . ; ; ; > + + + + @ ; 3 f d d B @.d + @ w 9 5 @ $ 7 4 . + + + o . + @ @ . @ + + 5 q @ @ @ @ @ @ & & + @ + . .   ",
"    . . + @ + @ + + @ @ 4 5 9 4 1 9 k Z b b k S C 4 @ 4 q @ @ 4 @ & @ @ + @ 5 w 7 4 @ @ @ 5 5 5 5 4 5 @ @ @ @ 4 + 4 4 > > 4 & & ",
"+ . + + @ 4 4 4 @ @ @ @ 5 6 9 z z z z 1 8 9 z Z Z 5 4 w Y q 5 4 5 q & @ + 7 w w 7 q 5 w q w p w w 5 5 5 w w p w 5 7 5 5 5 0 7 7 ",
". + > @ + @ 4 & + @ @ @ > $ 8 3 8 b 3 @ + $ 4 n b 4 4 0 w 5 4 @ 4 5 5 4 @ @ @ & @ . . @ @ 4 5 5 5 @ @ 5 5 0 0 4 + +   . + @ @ @ ",
"  . + @ @ . + . + + . + + @ ; + + 1 ; + + + + b 9 4 7 5 5 @ @ . . @ 0 w 5 7 w 7 @ . . @ q w q q 5 @ 4 q w w w 0 5 @ . + + .     "
};
