/* XPM */
static char *result[] = {
/* columns rows colors chars-per-pixel */
"64 64 229 2 ",
"   c #060604",
".  c #070807",
"X  c #0B0B05",
"o  c #0B0D0B",
"O  c #100F0A",
"+  c #0F1006",
"@  c #0E110D",
"#  c #131509",
"$  c #12130C",
"%  c #0A0F11",
"&  c #0D1313",
"*  c #0E161A",
"=  c #0F181C",
"-  c #121513",
";  c #181713",
":  c #151A14",
">  c #1A1B14",
",  c #111719",
"<  c #141B1C",
"1  c #191D1C",
"2  c #1A2117",
"3  c #1B231C",
"4  c #212417",
"5  c #22221C",
"6  c #131D22",
"7  c #191F21",
"8  c #162125",
"9  c #1B2324",
"0  c #1E2926",
"q  c #15232B",
"w  c #1B262B",
"e  c #1D292D",
"r  c #162631",
"t  c #182732",
"y  c #1B2B33",
"u  c #1B2E3A",
"i  c #1E313D",
"p  c #222523",
"a  c #232A26",
"s  c #272B2A",
"d  c #232B2C",
"f  c #2A342D",
"g  c #222D32",
"h  c #253236",
"j  c #293335",
"k  c #23333C",
"l  c #2A383D",
"z  c #42463B",
"x  c #1E3443",
"c  c #1F3748",
"v  c #223642",
"b  c #243945",
"n  c #2A3B43",
"m  c #243C4C",
"M  c #2A3E4A",
"N  c #313E44",
"B  c #233E51",
"V  c #2C414D",
"C  c #36464A",
"Z  c #33444C",
"A  c #264153",
"S  c #2C4453",
"D  c #26455B",
"F  c #29465A",
"G  c #2C495C",
"H  c #334A55",
"J  c #344955",
"K  c #334C5C",
"L  c #39505C",
"P  c #2C4C63",
"I  c #294C65",
"U  c #314E61",
"Y  c #2F5167",
"T  c #2E526B",
"R  c #345165",
"E  c #3A5565",
"W  c #33556C",
"Q  c #3A576A",
"!  c #3A596B",
"~  c #2E5775",
"^  c #335872",
"/  c #355A74",
"(  c #3A5C73",
")  c #345D7A",
"_  c #38617C",
"`  c #3C627C",
"'  c #455354",
"]  c #445A65",
"[  c #445C6B",
"{  c #435F70",
"}  c #42647B",
"|  c #476578",
" . c #536A74",
".. c #546D79",
"X. c #356282",
"o. c #3B6583",
"O. c #3B6887",
"+. c #3D6B8B",
"@. c #396C91",
"#. c #3B6D91",
"$. c #3D7298",
"%. c #446A83",
"&. c #4A6D85",
"*. c #4C6F86",
"=. c #436E8C",
"-. c #49718A",
";. c #4C728C",
":. c #577688",
">. c #437293",
",. c #487798",
"<. c #557A95",
"1. c #5A7C94",
"2. c #547E9C",
"3. c #637C8B",
"4. c #467DA5",
"5. c #57809D",
"6. c #5A819C",
"7. c #69889B",
"8. c #768E99",
"9. c #4680AA",
"0. c #4C84AC",
"q. c #5C85A2",
"w. c #5687AA",
"e. c #4B88B4",
"r. c #568DB5",
"t. c #5891B8",
"y. c #5C93BB",
"u. c #658BA7",
"i. c #6B91AC",
"p. c #6C91AC",
"a. c #6896B7",
"s. c #779BB5",
"d. c #7AA1BD",
"f. c #4A8EC1",
"g. c #4D92C3",
"h. c #5494C3",
"j. c #5A99C7",
"k. c #5B9FD2",
"l. c #659CC6",
"z. c #5BA2D8",
"x. c #6AA1CA",
"c. c #6BA2CC",
"v. c #77A6C9",
"b. c #65A3D3",
"n. c #6AA8D7",
"m. c #76ACD5",
"M. c #77B0DC",
"N. c #57ABEC",
"B. c #67ADE3",
"V. c #6CB3E9",
"C. c #74B3E3",
"Z. c #7AB7E6",
"A. c #74B7E9",
"S. c #7BBCEC",
"D. c #6ABAF6",
"F. c #74BCF2",
"G. c #78BEF3",
"H. c #7DC2F3",
"J. c #79C5F9",
"K. c #75D9F9",
"L. c #7ADCFA",
"P. c #5CE1F9",
"I. c #6AE5F9",
"U. c #75E6F9",
"Y. c #7CE4FA",
"T. c #7CE8FA",
"R. c #88A5B9",
"E. c #82AAC7",
"W. c #87B5D9",
"Q. c #8FB9D8",
"!. c #85BDE7",
"~. c #83C1EF",
"^. c #8DC4EB",
"/. c #93C6EB",
"(. c #84C4F3",
"). c #8AC6F2",
"_. c #8DCAF5",
"`. c #87CBF9",
"'. c #93CCF5",
"]. c #9BCEF2",
"[. c #92CEF9",
"{. c #88D4F9",
"}. c #85DCFA",
"|. c #8CDDFA",
" X c #9CD1F6",
".X c #94D9F7",
"XX c #96D3F9",
"oX c #9CD3F9",
"OX c #93DDFA",
"+X c #9BDCFA",
"@X c #A4D4F6",
"#X c #ABD8F7",
"$X c #A3D6F9",
"%X c #A4DBFB",
"&X c #ABDBFB",
"*X c #B1DAF7",
"=X c #B3DDFA",
"-X c #B9DFF9",
";X c #84E3FA",
":X c #8BE5FA",
">X c #83EAFA",
",X c #8BEAFA",
"<X c #9DE0F7",
"1X c #94E3FB",
"2X c #9BE2FA",
"3X c #94EBFB",
"4X c #9CEDFB",
"5X c #A4E1F7",
"6X c #A4E3FB",
"7X c #ACE3FA",
"8X c #A3EEFB",
"9X c #ACEDFB",
"0X c #B3E4FB",
"qX c #BCE4FB",
"wX c #B3EBFB",
"eX c #BDEBFB",
"rX c #A9F0FC",
"tX c #B8F1FC",
"yX c #C2E4FA",
"uX c #C4EBFC",
"iX c #CAE9FB",
"pX c #D3ECFA",
"aX c #C4F2FC",
"sX c #CAF1FB",
"dX c #D5F2FC",
"fX c #DBF3FB",
"gX c #E1EFF9",
"hX c #E4F3FB",
"jX c #E9F5FC",
/* pixels */
"        X                 X X o @ X % @ X % @ @ & @ @ : : : : # & @ % & & @ % @ @ % @ + X     + +     X X + + + + + X X X X X X ",
"# X X X + O X X X X   X + 4 4 > # @ 2 : : @ : & & & & & 2 2 2 0 2 * & 2 : : & & 2 2 : : # + + + + X + + + + X X + + # + + + + X ",
"O O # O O +     X X X O # 2 # # @ @ & & : & : & & & & = 2 2 2 2 : = & 2 : = : : 3 5 2 : 2 & @ + X +   # # @ X + + + + + + + X + ",
"# O # O X O       X X O @ @ - # : @ : 2 & = * : = = = 3 6 2 6 = 3 = = 0 3 2 6 3 0 3 2 3 2 & : @ @ @ # # # @ @ # + + + + # # # 2 ",
"O X X X X X     . . . . o % o % & % & 6 = : < < : 6 2 i q 2 2 8 < = < a 0 3 < 3 0 < : 3 < * * * * % % @ @ . % X . . X X X + + X ",
"  X   X X O ; ; : > : : @ 2 2 % % & = 3 3 3 0 0 0 0 m G c b 0 0 w q d d e e d e 0 0 3 8 3 3 3 0 0 : : : : : : # & : * & @ # @ + ",
"X X   X O X O ; p p 3 2 & 2 2 : 2 = 8 3 6 3 0 0 f l ! ! _ ! f f k l C C l h h h f f 0 r 6 6 9 0 0 8 3 3 3 0 3 2 3 8 : 3 2 : : @ ",
"            O 1 9 9 0 9 = 2 2 = = 6 8 8 8 8 a y B H Y Y _ _ L n S K Q Q V k h j h g e y e 8 w e r 8 0 3 0 f f 0 3 : & & : & @ o ",
"      .     % = 8 q e w 6 < < 6 3 = q q 8 w e i X.4.>.) >.0.} ( 4.0.,.4.+.m k g y g y k t e w r y q 0 e y e 8 3 6 6 = & : o & o ",
"            & 6 6 y k u w q 6 e e w q q q t e i ) 4.4.o.o.O.%.>.,.4.,.=.,./ I I v v M m k u u x i i i u y w u x c u q 6 * o % & ",
"      . . o 9 e t H [ ' C N l l V n k V k k V Z / #.,.>.{ [ | ,.,.;.2.*.w.h.h.r.Q ] ] E L J S K R H H Z H K _ ` ) ^ m u 8 * & = ",
". o o $ $ 6 g k v [  .] ] L S S F H K H V i V Z U W o.>.} } } &.q.w.;.:.y.l.j.h.=.E K U Q R U W W K K ! _ o.>.#.@.X.G V u < : : ",
"      . @ 8 y k m ! [ [ | [ E ` / ( } o.} X.o.#.=.>.0.r.r.i.u.a.a.a.a.p.v.x.u.2.;.| [ } ( ( ( ( ! ! ` ,.,.4.$.#.O.T A B y = : % ",
"      . % < y x m P ) / ! ( W o.4.4.e.r.h.k.k.t.h.b.M.C.B.B.n.k.j.l.c.m.m.v.s.s.p.u.1.;.;.%.) ( W O.$.9.4.o.T D ~ P m m q & % % ",
"O @ O o , 8 l H K o./ U ! ! / o.>.0.r.h.k.k.j.l.n.B.N.N.N.D.F.(.'./.^.~.^.!.Z.M.m.m.s.a.q.:.;.&.9.e.g.t.<.| [ S W ) P m w 0 3 = ",
"O X X o 8 w i m G ` P Y W / W ( +.0.h.z.h.l.b.B.N.N.N.V.H.'.@X&X%X@XoX[._.`.`.(.S.Z.Z.W.a.u.q.r.h.g.0.u.3. ...H P #.^ k 9 2 < & ",
"X o $ < 9 y v S W o.) X.X.O.O.%.+.4.k.b.l.b.z.N.V.F.(.].*X-X#X'.[.XX$X&X&X%XoXXX[.(.G.A.v.d.v.c.r.` *.3.......K U +.P 0 8 2 = * ",
". . o , 6 w k m P X.O.O.+.O.` o.>.q.y.b.b.B.F.H./.#XqXpXpXiXyX0X=X=X&XqXqX&X&X&X&X$X[.!.Z.!.!.v.5.( ! L H H L S Y T u 6 < = * * ",
"O X - < 0 h n V P O.4.e.0.;.=.;.6.w.a.n.A.).XX@XyXiXiXiXyXqXyXiXiXuXuX0XqXqXqXqX-XyX-X$X'.).W.E.7...! ] H S H H P i g 8 0 p 0 s ",
"4 X - , 8 w y b B X.4.g.4.&.%.<.2.a.b.G._.[.].qXyXyXyXyX%X%X7XuXeXeX0X6X6X0XqX0X&X&XyX-X#X'.^.E.d.8.3...! K K ! H i e e e 5 f ' ",
"4 o & * < q q i B X.0.j.4.} *.*.2.a.C.'.[.oX-XyXqX0X0X*X.X}.2X6X6XwX7X6XOX|.+X%XXX[.%X=X&XXX).^.Q.R.8.8. .! ! G V h e w 9 9 p z ",
"O o & * = q y i I o.4.h.h.2.1.<.t.n.'.'.'.=XyXqXeX0X7X7X+X|.2X<X|.6X7X2X{.L.OXOXOX{.J.&X=X X)./.Q.R.8.7...( Y b k t w 8 q 9 8 a ",
"o - < 0 0 y l S U %.4.h.r.l.u.u.c./.'. X#XqXqX&X5X5X<XOX2X1X;X:XY.1X8X1X|.K.}.2X|.{.{.{.&X#X).).^.v.s.8.6.:.L Z V l l h w d 0 9 ",
"o - < < 8 e b V P ( ,.h.y.p.p.x.!.].#X#X*XyX7XOX<X.X1X;X1X1X,X3X;X,X4X1X:X;X|.2X2XOX|.+X&X=XXX(./.W.R.d.7...L C V Z C h 0 9 9 3 ",
". & * * 6 6 x B I W +.e.x.u.a.W.].*X*X#XqXqX5X5XOX+X5X,X>X4X4X4XT.T.3XT.Y.U.Y.6X<XOX5X5XqXqX#X'.'.!.W.R.7.3.[ M b n k e w w 6 , ",
". % * = 6 y b F T ^ ( ,.v.a.v.].@X-X@X@X#X0X5X<X:X1X9X,XU.>X3X8X>X>X4XT.I.I.I.1X1X}.2X7XuXiXyX#X X/.!.E.p.:.[ M v i y e 6 q < % ",
"o % 6 7 d h Z Q } ( } :.v.m.Q.].#X*X'.[..X5X.XOX<X,X3X,XU.>X4XrX8X4X8X,XI.I.U.,X:XL.}.5XeXuXyXqX@X@XQ.W.p.3...] L M l h g d 9 < ",
"& * < 9 e h Z ! } } } 1.p.W.@X X@X X'.`.}.5X<X|.Y.T.,X3X,X4X9XwXaXaXeXrX,XT.>X3X>XL.;X5XiXeXyXyX@X*X!.W.s.1.:.| ] Z n l h d 9 1 ",
"% % * 6 q y m R %.( } :.7.W. X X X X'.K.{.5X6XY.I.I.>X4X8XtXaXsXdXfXdXsXtX4X4XrX4X1X1X0XuX0X0XiX*X#X].W.s.u...[ ' J n n h d 7 & ",
"% * * * 6 r v K ( ) { 3.3.W.@X[. X@X[.{.<X6X6XL.P.P.>XrXtXsXfXhXjXjXjXfXsXtXtXrX8X3X1X9XeX0X0XyXyX*X].!.E.1. .E K M k k t 6 = * ",
"9 a 0 q y v S U ( %.*.7.p.Q.$X[.oX$X$X%X5X|.}.;XI.I.,XtXdXfXhXhXfXhXjXhXdXeXrX4X3X,X:X6XeXwX0XyXiX=X].S.E.2.*.} R M b k g q 8 < ",
"s p d d t v M U } &.<.7.p.Q._.(.%X=XeX7X|.L.K.U.T.T.4XaXdXjXhXhXhXhXhXhXdXaXrX3X,XU.Y.1X0XeXqXqXiX-X[.!.m.1.| } %.U n n v e 0 3 ",
"p d g e 6 k b K } ;.1.8.a.Q.`.!.&XqXyX6X}.K.K.U.T.4XtXaXdXhXhXhXhXgXjXhXfXuX8X4X3XT.>X1X6XuXeXqXiX*X/.Z.M.6.[ R W ) M M l w 6 9 ",
"& < 7 6 q r x m W %.2.p.s.Q.)._.$X=XqX0X|.}.L.;X4X3X8XaXdXhXhXhXgXhXhXhXfXeX8X8X8X3X8X2X7XeXwXqXyX@X).Z.c.2.Q S D / m v q = < , ",
"& < w r r r u B U %.2.a.v.W.].'.oX&X&X0X0X6X2X4X,X,X3XrXsXfXhXhXhXjXjXjXdXtX8XrXrXrX8X6XwXwXqXyX-X'.(.C.x.5.! G K ) G y 8 8 6 < ",
"- < 7 e g y v M R ( ,.p.s.W.].'.oX&X+X6X7X7X6XY.U.T.,XrXwXaXfXhXhXjXjXfXsXwXrXrXrX4X<X<X6X5XqXyX@X).~.C.x.5.( H K ) A e w 9 9 < ",
"% , 6 w e u u b U ( %.q.s.E.'.[.XX$X$XOXOX6X1XL.U.>X3X3X4XtXaXdXfXhXfXsX9X3X,X3X3X:X}.<X0X7XqXyX_.(.H.M.l.;./ U W / i q 6 < < & ",
"% * < 6 t u v B U I W ,.s.v.!. X$X&X$XXX+X2X|.}.,X,X3X4X3X8XwXeXsXeXeX9X3X>X>X>X:XI.K.|.0XqXiX=XH.H.A.M.y.` ! W / D y 6 6 = * . ",
"% % * 6 6 t x I P B I %.u.l.!.[.oX=XoX%X7X6XOXOX3X,X4X8X3X4X8X9X4X,X,X,X>X>X3X4X;XK.L.<XeXqXyX XH.H.Z.m.q.%.` ( ) m y w 6 * * . ",
"< * * 6 w u v I T F U ^ 2.a.n.).oX-X&X%X7X0X6X2X:X3X4X4X3X8X4X,XU.U.T.U.U.,X3X3X1X|.OX7X0XqX-X_.H.Z.M.a.5.;.( ` / M l g 0 8 < & ",
"6 < = 6 y y v D W W W ) ,.a.l.V._.&X-X=X-X0X7X2XOX1X:XY.3XrX4X,XT.U.,X>X3X3X;X<X|.|.OX+X0XqX$X(.(.Z.m.u.1.*.} } U n j g d 9 7 - ",
"& * * 6 q r u m F ^ X.o.=.q.a.k.F.[.&X=X=X0X7X6X6X1X|.L.1X3X;XY.T.,X4X4X3XL.}.|.}.|.|.%X&X0X].(.!.M.l.<.&.%.&.W F v g e w < < - ",
"& & * = 6 q y u m P T T ^ >.r.t.B.!.[.$X&X=XqX0XuXwX2X2X2X|.L.Y.:X8X9X<X}.L.}.|.|.OX+X%X&X&X[.).S.b.q.%.} } %.U M k w 6 6 6 , o ",
", & < 6 6 w k v D U U U W %.6.a.b.D.`.[.oX&XqXqXuXuXwX7X2X:X:X|.|.<X1X1X}.}.OX2X%X+X+X&X=X$X[.(.n.a.;.} %.` ( K Z M e 6 9 7 1 - ",
", , < 6 = r x A A M F F R ( ;.r.l.V.G.`.[.XX=XqXuXuXuXeX6XOX|.|.1X.X}.}.|.+X7XqX=X$X&X&X&XoXH.B.l.<.%.o.o.R K S b v 6 6 < 7 3 ; ",
"& & = 6 6 r B m x x x m G / =.w.l.V.F.G.J.`.[.&XyXiXyXuX0X6X+X6X7XOX{.}.OX0XqX0X$X$X=X&XoXH.V.x.u.-.=.( G S M m u u 6 < 6 1 < $ ",
"@ & * = q x m x i i x B P W +.0.k.B.C.A.D.J.D.J.XX-XqXqX&X6X=X&X%X+X.X.X&X%XoXXXXX%X@X'.`.F.n.a.;.%.( B M m m b u g w 6 * & & o ",
"* = < 6 x m x u u x v B F P X.e.k.l.l.n.S.D.J.D.J.[.&XqXqX=X$X[..X X$X#X$XoX$XoX@X$X_.(.H.Z.x.1.%.] L E K Z M Z M N g d 7 , & X ",
"- < 6 x D i x t y i c B I X.e.g.4.,.4.b.!.!.D.D.D.G.!.#X-XyXyX=X#X#X=X=X=X=X#X#X X!.!.!.!.W.4.o.U J J Z M M v n N k d 7 7 1 - o ",
"& < t I I x c u y i c D X.9.g.4.X.o.,.2.b.B.A.!.F.D.G.!.!. X&X-X-X*X=X=X#X$X X!.!.F.!.C.l.2.4.{ U M M n v v v k C n 7 6 7 , O . ",
"% * B X.A u x u x c T #.e.f.#.I D T X.=.e.y.b.B.B.V.D.D.D.G.!.!.!.$X X].!.!.!.!.G.A.c.2.+.%.*.E M v n v t t y t v r * % , & .   ",
"* r I O.P i x m F _ 9.g.e.O.D c B G Q o.=.=.<.2.y.l.n.k.z.z.D.V.V.A.A.G.G.!.F.!.M.h.=.{ E G G B b v k g y t g y v d 7 7 1 ; - o ",
"* x B T ~ m c D X.4.9.$.~ B c c c A U Q [ Q [ X.&.h.u.2.2.x.n.b.b.c.b.n.n.b.n.n.4.o.E K B B M v v k u y t y e e k w p p 7 > $ O ",
"6 x c D / T ~ #.$.$.X.I c r u c x c P P I U G U >.2.%.} | 1.2.2.r.y.y.h.h.4.4.f.%.P M M v x x x k y y 6 r e g g g p s s p > ; $ ",
"q x x T X.X.#.#.X.~ B u r q t i x u c B D P B E 4.=.R E U { P G R ) o.o.O.$.$.O.T M b v i u t t r r q 6 6 6 r r 6 p 7 & & o X X ",
"6 r c ~ ~ ) X.I B u q 6 8 q q t x u u m P P F X.>.G B B R G m c c B D G D X.X.I D c u u t r t r r q 6 r r w 6 6 6 6 , & O X X X ",
"6 w g B I T B g q q 8 9 9 w e g v g v n G T X.+.{ v N L [ ] M M M M M G K G G B B M n N g t w w w g w w g w 7 7 7 7 7 ; ; O O O ",
", 6 6 d r 6 6 & * = * < 9 6 w y g y g g v G X.X.B y M L ' ' J n v v v c B M M B m v k g w w w w w w d 9 7 , 7 7 p , O . ; O O O ",
"- - , , & % & & & & , 6 1 < 9 d y w w w w t B G t r n Z ' ' N g g n n t g v v v v k k g 7 q 7 w s j s p 7 5 7 7 p p ; O ; ; @ @ ",
"    . . . % % % @ % @ & , * 6 6 q , 7 7 7 6 6 q 6 6 w t j s g y t h g q q w g t t t w q 6 7 6 7 7 p 7 , , 7 , ; , ; o O o       ",
"  . . % O & & & % % & , 7 7 s w q 7 7 w w d 7 6 q w w d j w w w w d w q q t g h v g 7 7 7 7 p p p 1 1 , > ; ; > O ; ; ; O ; ; O ",
"O   % O & ; ; ; ; ; ; ; 1 7 p d p 7 7 7 7 7 w p q w w s j g s w d g w 6 7 d g j g g p s s s s s s 1 5 5 5 5 p 5 ; ; ; ; ; > > ; ",
"  o - ; O - ; , % - - - ; , 6 < 1 1 1 , , 7 7 p 7 7 p s g p w 7 7 p d p , 7 1 7 , , , ; 1 7 1 1 7 , , ; > > > ; o o   . O O O O ",
"    o O O o O o o O & % - , , & & % & & ; , , 7 7 7 p p 7 7 7 , , 7 p g p p s s , , & 7 p p p 5 p ; ; 7 5 5 5 > ; o   X o       "
};