/* XPM */
static char *result[] = {
/* columns rows colors chars-per-pixel */
"64 64 247 2 ",
"   c #040403",
".  c #080705",
"X  c #070804",
"o  c #0A0A06",
"O  c #04050A",
"+  c #08070B",
"@  c #0D0C0A",
"#  c #100F06",
"$  c #100F0B",
"%  c #0F1006",
"&  c #0F100B",
"*  c #111307",
"=  c #13120D",
"-  c #18160E",
";  c #16180B",
":  c #1A1B0C",
">  c #060715",
",  c #0D0B13",
"<  c #09051B",
"1  c #0E0A1B",
"2  c #110E14",
"3  c #110B1B",
"4  c #0A1519",
"5  c #151511",
"6  c #181712",
"7  c #171917",
"8  c #1B1A14",
"9  c #15131B",
"0  c #1D1D1A",
"q  c #211E16",
"w  c #211F1A",
"e  c #1E210C",
"r  c #1F2018",
"t  c #262C0C",
"y  c #212116",
"u  c #23221B",
"i  c #29251D",
"p  c #27291A",
"a  c #0A0522",
"s  c #0E0A23",
"d  c #0B042A",
"f  c #0C092B",
"g  c #130E24",
"h  c #130C2B",
"j  c #0B1429",
"k  c #191626",
"l  c #0D0533",
"z  c #0C0738",
"x  c #140D33",
"c  c #13093A",
"v  c #130A3C",
"b  c #0B1637",
"n  c #1A1537",
"m  c #231E2A",
"M  c #221B33",
"N  c #221B3B",
"B  c #172327",
"V  c #0C2330",
"C  c #152438",
"Z  c #262423",
"A  c #292627",
"S  c #2B2B22",
"D  c #312D27",
"F  c #2F3126",
"G  c #373627",
"H  c #343329",
"J  c #262437",
"K  c #3A3B35",
"L  c #443F31",
"P  c #3D4133",
"I  c #474436",
"U  c #0E0545",
"Y  c #140C42",
"T  c #160A49",
"R  c #0A1A46",
"E  c #191445",
"W  c #0E0955",
"Q  c #150957",
"!  c #1A0D54",
"~  c #12035C",
"^  c #1B0D5B",
"/  c #17175A",
"(  c #241A4B",
")  c #200F5E",
"_  c #241858",
"`  c #0F2D4C",
"'  c #18255B",
"]  c #2A2646",
"[  c #2D2D4D",
"{  c #1B0C63",
"}  c #140568",
"|  c #1B0C6B",
" . c #171567",
".. c #1C0B74",
"X. c #19087B",
"o. c #1B1A7A",
"O. c #23176A",
"+. c #220E7A",
"@. c #251678",
"#. c #162464",
"$. c #172679",
"%. c #0E3070",
"&. c #272567",
"*. c #362E74",
"=. c #493E65",
"-. c #2A4867",
";. c #284674",
":. c #53514D",
">. c #605C4B",
",. c #55496F",
"<. c #1B0988",
"1. c #191889",
"2. c #1C0893",
"3. c #1D1997",
"4. c #230B8A",
"5. c #251686",
"6. c #230A98",
"7. c #231898",
"8. c #17288A",
"9. c #193687",
"0. c #182796",
"q. c #19359B",
"w. c #262D8A",
"e. c #252697",
"r. c #1D18A7",
"t. c #1F0EB1",
"y. c #270BA4",
"u. c #2417A9",
"i. c #280CB6",
"p. c #261BB4",
"a. c #1C29A6",
"s. c #0F3EA9",
"d. c #1838A7",
"f. c #1D2AB5",
"g. c #1E35B7",
"h. c #2527A9",
"j. c #2427B8",
"k. c #2A35B5",
"l. c #423AA7",
"z. c #1A4D9E",
"x. c #1845AA",
"c. c #1F56AB",
"v. c #0F4EB3",
"b. c #1847B5",
"n. c #2246B7",
"m. c #50498D",
"M. c #2B16C9",
"N. c #1B37C6",
"B. c #272AC7",
"V. c #2537C9",
"C. c #2A2AD8",
"Z. c #2737D7",
"A. c #3735DF",
"S. c #2A38E2",
"D. c #3534E9",
"F. c #0A5BC4",
"G. c #1956C7",
"H. c #1C52D1",
"J. c #2347CA",
"K. c #2A51CB",
"L. c #2749DA",
"P. c #2456DA",
"I. c #0B66CB",
"U. c #166AC9",
"Y. c #1568D9",
"T. c #0771D4",
"R. c #236ADA",
"E. c #2278DE",
"W. c #1F52E8",
"Q. c #2948E8",
"!. c #304EEF",
"~. c #2759E6",
"^. c #3359EA",
"/. c #3757F3",
"(. c #1C6CED",
"). c #1673EB",
"_. c #1D77F1",
"`. c #2768EA",
"'. c #2779EA",
"]. c #2768F3",
"[. c #346AF6",
"{. c #2879F4",
"}. c #3577F1",
"|. c #5377F7",
" X c #1F83DE",
".X c #0489EA",
"XX c #1B89E8",
"oX c #1792EC",
"OX c #1C86F3",
"+X c #0D9AF6",
"@X c #1898F6",
"#X c #2786ED",
"$X c #2896EE",
"%X c #3192EF",
"&X c #248DF4",
"*X c #2A88F6",
"=X c #3484F6",
"-X c #2899F7",
";X c #3697F9",
":X c #0AA6FB",
">X c #19A7FA",
",X c #09B7FA",
"<X c #18B9FB",
"1X c #26A6F9",
"2X c #2CACFA",
"3X c #35A8FB",
"4X c #23B4FC",
"5X c #25BCFC",
"6X c #2CB8FB",
"7X c #37B7FC",
"8X c #4595F5",
"9X c #50AFFB",
"0X c #43B6FB",
"qX c #0AC8FD",
"wX c #15C8FD",
"eX c #0CD8FD",
"rX c #19D8FD",
"tX c #23C6FD",
"yX c #2CC5FD",
"uX c #2BCCFD",
"iX c #38C9FC",
"pX c #26D4FD",
"aX c #2CD4FD",
"sX c #23DCFD",
"dX c #3AD9FD",
"fX c #11E9FE",
"gX c #1AE8FE",
"hX c #29E6FE",
"jX c #37E8FE",
"kX c #28F3FE",
"lX c #36F3FE",
"zX c #46C9FD",
"xX c #53C4FC",
"cX c #47D7FD",
"vX c #51DAFD",
"bX c #6ACAFD",
"nX c #48E7FD",
"mX c #57E7FE",
"MX c #43F3FE",
"NX c #4AF3FE",
"BX c #53F3FE",
"VX c #5AF4FE",
"CX c #68E7FD",
"ZX c #68F5FE",
"AX c #7AF2FE",
"SX c #90F3FF",
"DX c #ACF9FF",
/* pixels */
"X               .   o X                         .     @ @ o + .     . +   X .       . . . . X o %   . X X o % % % % X % o X   X ",
"; * o o $ * o . X X o X X t t : * % e ; % o @ $ = , + , 0 y B Z 9 3 > 7 7 = & @ : e * ; * # * : * * * * % ;   * * % ; e e * * % ",
"# # * $ * *   . * . o o o e * % o * . @ = + > 3 b s a f x n n x x d x z h , 2 , q q - * * X ; o % o X * % % X % % % X % * % % % ",
"- - $ * o *   X X . o % o o * * % . @ = , > b f U / U T T Q ! Q ! U  .' E x g k w 5 * e ; . * X o * o * * * o * % * % X ; % : e ",
"$ o * o . $   .       X         o + > < a l c  . .o.1.<.4.<.2.2.2.<.7.5.O.! x h m 3 2 $ *   X       o o     @   . . o   X % o % ",
". . o o $ $ 8 6 8 = ; 6 o e :   . , g h Y _ O.5.h.p.f.V.j.j.j.f.j.g.j.h.u.4...O.T M 3 6 = : e ; : ; o ; ; % % o o * # o % % : % ",
"X o . o * . $ 5 8 r : ; . : ; 5 9 a z ! ..4.y.u.B.J.~.L.~.L.~.~.~.'.^.J.Z.p.6.4.@.) Y s , & = @ * o * ; e : : & ; * o ; : * o X ",
". X       . @ = = = 6 ; @ = = , f Y { 4.6.B.V.C.Q.`.'.&X&X&X{.*X#X7X-X`.}.L.M.i.y.5.| T E j @ = @ = * ; : y t = * X . * o o X X ",
"      + o   + X o X @ 7 o & g b Q q.d.J.M.Z.{.Q.1X3X-X-X5X5XtX4X5X3XuX-X{.[.Q.M.M.y.4.a. .n s   : @ & X o ; ; @ o     o # . . . ",
"  X     X         . O O + < f 8.q.b.K.L.!.^.[.*XyXtXrXrXrXjXcXjXhXwXhXaX5X-X=XD.D.C.L.u.0. .z a +                               ",
"      @ X X & & . H :.P C [ $.oX'.$X1X8X;X;X-XtXaXqXkXkXBXDXDXSXNXeXgXgXlX<XsXyXCXzX^.B.k.e.^ ( n S p r P : 8 0 ; $ 5 o .   X # ",
"@ @ & & 5 5 r r 4 >.K [ ;.9.q.E.A./.9XvXuXnXwXjXBXhXlXVXVXSXSXAXnXNXVXVXlXMXsX6X*X2X;X[.C.u.4.O./ k 0 S r r 0 u 0 $ 5 6 $ = = @ ",
"    X X & = 7 j r -.-.z.l.x.R.`.8X/./.3XsXNXlXzXyX>XOX+X:X>X>X:X:X+X).OX>XiXvXuXcXhX*X*X!.^.p.7.@._ [ L u 7 S 0 0 @ 5 $ $ . -   ",
"          X   O 4 %.` z.U.E.L.8X}.vX1XaXCXxX{.V.b.F.T.T..X.X.X.X.XT.I.F.x.g.L.9XvXjXlX@X].{.!.j.1.} / d + + .                   ",
"@ = & & X @ p P ] ' z.x.K.}.9X=XmX<XyX9X{.i.7.8.d.b.F.F.I.T.I.T.F.F.v.x.d.0.5.5.B.vXcXaXuX*X[.;XV.h.o.m.:.I :.5 5 5 5 = 6 8 6 = ",
"@ . X . & + & & k #.q.G.%X=XnXNXfXiX0XB.O.^ | X.w.0.d.s.x.x.v.x.s.d.d.0.1.X.| O.T w.1XvXmXaX;X0X#XV.0.m.,.[ >.= 5 w 8 $ = o @   ",
"& @ & = = @ 6 k ( @.n.-X3XhXgXlXlX2Xy.Q v E ! ~ ....X.1.1.0.0.3.1.1.X...O.O.! Y b %.v.-XlXkXhXcX2XQ.H.l.m.=.>.- 6 q 8 $ 5 - $ . ",
"  . X & @ X > z Q 4.B.=X6XNXkXNX5Xf.~ d a d l v U W ~ ~ } } } } } ~ ~ W T v l a j b z.I.&XZXVXlX3X%XV.u.} T l + +               ",
"% o 6 @ y 0 M _ +.y.C.-X7XlXDXjXG.1.] A J K J J N c ( ( _ &._ _ _ [ ] E E M 9 9 2 4 ` z.v.1XDXZXVX{.C.V.7.O.E k -   5 . ; 6 $ - ",
"u o o @ = 3 c ^ 4.M.D.5XBXZXnXY.0.{ n 8 w 6 7 k g s M N ] ] M M g x k k J A k 0 r 6 B #.w.I.4XVXNX5X-XQ.u.5._ J w 2 $ $ 5 6 6 I ",
"i . X   + h T X.u.=X3XhXkXZXOXx.<.E k + $ q 5 2 6 @ Z A A m 9 k A m 6 2 0 5 & = 5 5 & V / 0.I.<XiXZX@X^.Z.7.| Y k & = = 5 5 = G ",
"@       O z } a.;X9XuXeXNXuXb.1.W h > O             2 7 + u = @ + 6 $     &     & @ o   a U 1.N.iXnXjX&X&XH.X.~ R O & X . .   ; ",
"& & 6 r m / 0.K.*X{.gXMXnXH.A.&.m q i i 8 6 w D G P p i S Z 0 S u - I L 7 7 5 r r p 8 8 5 J *.o.Z.zXrX_.&X'.d.w.&.C J 7 = 8 q ; ",
"@ = & @ n o.d.$X}.aXsXBX`.<.X.5.k 8 - @ $ @ * 8 r y r u @ 8 S S ; # u 8 & = ; 6 6 & = 5 - 6 A ] ..0XrXcX4X`.n.w.9.[ D y = * o ; ",
"      O l } a.6X3XhXpXmXy.U g k E n = = ; o = y y u 6 6 . @ @ @ 5 o . o @ o .     X     @ o 8 2 J H.dXrXuX~.k.d.%.N 5 $ . $   . ",
"    . < U @.u.^.$X>X4X0XE <     . O       X + . . . + X     . o                         5 0 Z 6 7 @.cXkX<X`.P.h.{ x + $ . .     ",
"@ X @ M _ +.p.Z.OX6XiXV.Z r i 0 0 7 i F F S S H 8 H G G S y 8 y 7 8 = $ . 5 = 5 = I H S 7 p K I i M 4XkX>X_.Z.k.@.( m q q u 6 - ",
"@ + @ h ) 4.p.Q.@XwXmX@.X & 5 = ; 5 u ; u u i i 5 y p u 8 - = 5 5 - @ . . . @ o 7 H u Z 0 Z H S G D (.jX,X_.~.p.w._ m q - 8 $ # ",
"    + l ^ <.B.Q.oXjX7Xv @ o @ 5 8 @ 5 @ = = $ @ . 8 7 w w 8 $ $ 5 - @   . = = o $ - 0 Z @ 5 u = y w j.iXqXOXC.p.5._ M w 6 6 o X ",
"    + l } 2.V.(.>XqX2X>         . @ S 8 @ @ . @ .   + o @ . @ .       . . X o . . = . o 5 H . 2 - - 4.nXtX@XQ.j.5.! x $ @ @ .   ",
"8 F 9 E o.g.L.W.rXkX1X0 8 @ u y r 8 y 6 = $ S w u y u o - 6 8 6 . = = 5 0 5 5 5 6 6 7 8 & 7 8 w w 8 | cX,X].=Xk.5.O.M u 6 @ - = ",
"p 6 B #.8.b.'.4XpXsX&X8 5 5 0 7 0 5 0 8 5 = 6 5 6 0 5 . q 8 8 - . @ = = 6 5 5 u 6 8 w 7 5 @ . w 5 8 / cXsXwX{.Z.5.! x 8 6 . - ; ",
"B B ] / 8.R.&X4XiXrX&X0 6 = 8 8 6 = 5 = 5 @ 6 6 y 5 5 . . - = @ . $ 7 5 @ - @ o $ - $ $ 7 5 @ @ $ + #.zXkX,X~.B.3. .n 0 6 ; = ; ",
"X X 4 v o.b.{.~.@XwX@X1 @ . r & 5 6 . . . o X + .     .             o @ @ . .     . $ $ = + - . = .  .ZXeX).S.p.0.} s o     o . ",
"o = 9 E  .a.H._.1XjX1Xk 8 8 i 8 8 X 5 @ @ @ @ @ @ + X . . o = = $ = q ; . 5 5 5 7 5 8 8 u Z 2 5 5 7 3.dX,X).S.V.d.9.R @ o $ & & ",
". = & x { r.B.Q.1XaX7Xv = 6 = 9 6 , 7 ; r i p S r 5 = 5 @ - @ 8 6 r i 8 $ $ $ 5 - S u 5 u 8 8 u m M B.mX:X(.C.f.8. .b 4 7 o ; & ",
"@ % @ f $.d.J.(.@XwXzX<.9 , E ! Y a A o o + 8 = 5 w S = @ 5 = y y $ . 6 @ @ 0 6 7 w @ . o = ; k x ^ ].dX<X(.C.6...U 1 . . # @ @ ",
"  . @ R #.v.r.S.XXgXCXZ.&.8.1.z > o ; 5 5     . 5 5 8 7 5 0 @ y . 5 q w . . o . o 6 o $ o . + n ~ 3.3XpX>XW.M.2.| c ,   o   .   ",
"    X b %.1.f.Z.@XjXaX3XG.c.l , @ . o   .       + w $ o .   .       o @ . .     . + @ o .   s ~ 0.H.cX<X].*XV.3.Q x , @ .       ",
"@ X 4 j #.8.f.P.3XyXyXZX0X3.W d 9 5 & & o . ; F = y p 6 @ I u H q G $ $ o @ .   o . . o   9 Y 1.F.>XjXrXtX3X$X0. .N i 8 = @ = . ",
"6 & 4 V b | X.t.^.;X4XBX4XG.<.z 1 9 $ $   . $ o - o o y   I D y L 8 5 5 ; @ 5 o $ 5 - .   k | x.oXnXlXtX6X'.K.x.$.N 7 ; r @ = & ",
"X X @   f U ..6.M./.4XhXAX@Xs.~ 1 > 3 7   . X .   . $   . S 6 @ 8 0 5 u 0 8 8 $ $ @ 8 7 . n 5.F.6XSXlXpX!.J.n.9.' n k r 7 X @ @ ",
"        > l ~ <.i./.*XrXAXiXF.X.d +                     . 6 .   . @ 2 . .     X . . . . + z 1.Y.nXNX<X-XD.g.d.9.' ` V O @ & @   ",
"@ X & X . h ! ..y.`./.4XfXBX*X0.E S 6 5 $ - 5 * 6 6 ; 8 6 q 6 5 :.y 8 6 S 0 6 @ @ . 8 0 5 ( h.4XhXrX5X!.Z.a.$._ C B 5 & 5 = ; o ",
"$ $ $ . . 3 c ^ 4.J.|.[.wXkXVXB.T 2 ; & . o @ . $ 5 8 8 - 6 5 @ y 8 = o 5 8 5 8 = - $ 5 A _ Q.vXeXdX=X].R.d.! h 7 = @ . @ 6 5 = ",
"o o $ $     a U } r.A.!.5XrXdXvXX.3 o   .       . ; $ $ . . +   = X @ @ S 7 y S u w - $ m B.0XhX@X[.}.#XoX .( , = . . . 5 = = = ",
"            , l Q X.V.S.].dXsX7X2X^ .             . < . . .   . @ @ X 7 7 = . & 5 = 7 Z r.0XdX>XzX!.#X-Xv.T a       . .         ",
". . . . + $ @ < c } 3.L.Q.%X1XwXCX1XX.@ 5 w S A L w =.:.I L S 8 5 q ; = 0 w u 5 8 S J N.7XpXlXtXiX1X$X6X&.( 9 H S i 5 8 6 o   @ ",
"@ $ o o @ @ . . h T ..7.J.].(.@XsXnXiXf.a & 0 H 6 g *.K I D 2 6 w w u = 6 6 8 7 = Q ).7X:XpX1XiX%XR.zX9.E g = 7 i $ = 5 5 @ = @ ",
". = + o o @ . X , x Q } 2.B.{.OXoX,XhXmX@X5.k 7 w E e.J ] _ ( ] M m k , 5 5 5 x N.7XiXqXuXcX~.$XE.zXx.E g 2 u 8 D w 8 @ 6 @ @ . ",
"                . > l W } 2.V.9XtXrXqXeXsXcX_.r.^ @.k.@.1.<.1.X...{ ! z l ~ N.6XvXrX:XXX7X-X%X7XU.9.9.M O   . & -               ",
"o & 5 5 5 8 8 6 $ 8 g n ^ ..3.p.~.`.tXwX+XqXdX0X7X{.|.L.H.Y.T.Y.G.J.B.Q.*X0X7XrXgXqXaX-X^.#X$Xx.x.#.' 9 & . 5 = 6 = & ; 8 6 6 @ ",
". . @ & @ & @ = . X X > v ! o.d.f.P.`.'.^.6X<XjXpXBXVXAXNXmXCXnXnXnXmXdXpXdXjX+XcX>XyX1XJ.XXq.8.#.%.g o X o = @ 5 @ = = ; 5 = & ",
". . @ @ 5 = @ . X & @ & 1 d W 8.q.f.R.#X].~.-X{.@XhXlXNXeXMXVXlXkXkXrXyX1X1X4X`.'.#XL.XXoXoX .R C C 4 o o o = = & = i i y y ; = ",
".     . . @ @   X X o & & > C / { X.3.r.t.Z.S.!.3X-XcXjX4XzXpX<XyX5XhXaX!.{.S.P.Z.g.b.x.v.U.R a O 4 &       X X o u 5 . @ . + & ",
"                        +   > > l U W } X.2.r.B.~.S.3X7XD.3X;X=X3XbX=X`.{.B.t.r.a.d.x.%.%.%.a +   O   X   &         @ @ @ . X   ",
"o @ @ @ o @ o o & 5 & = 5 5 5 5 9 g n _ ) | X.7.K.g.E.#X}.}.C.~.P.P.B.j.u.7.5...{ $.#.;.` C = o @ - . @ q w $ @ 8 5 8 $ i 6 * $ ",
"@ X @ . + .       . + & 5 @ = 5 2 5 k k N T T { 8.8.c.G. Xh.e.7.7.0.d.8...{ ^ T c n ` ` V 4 5 = 5 = - @ o o $ @ 0 o   . - . . o ",
"= = @ 5 @ @ @ . @ + o = & 2 5 7 5 5 6 8 2 3 h c Y %.9.9.*.*.O.{ ) O.&./ ! N n g , , k 0 V & 5 5 w A q 6 6 6 o @ 8 w 8 . 8 5 6 = ",
"          . . . X o     @ + @ o .     + .     O < R Y R N x n x x N R f 1 3 $ + @ + 7 9 X 5   = q w $ $ $ 6 @ $ 7 5 $ $ o       ",
"    . @ $ $ $ $   @ @ = 8 8 S 5 $ 8 + 8 5 0 5 @ 2 7 6 B Z + 5 2 7 q 6 9 = 5 7 w w q + 5 $ = q w q $ q 2 $ # + $ . 8 0 ; 7 8 6 5 ",
"o   @ . $ $ $ 5 = $ @ @ = 6 5 6 5 5 $ $ - $ 5 - = = - 8 i - 5 5 5 q $ $ o u w i 6 w 6 q q w w i w = w - w q i i $ 8 7 6 6 8 - 8 ",
"  @ = 5 o 6 6 8 @ @ = & & @ 5 & - 5 $ $ @ @ 5 6 - 6 - w m - - = $ 6 q $   @ @ $ # . . . . + . $ - o . - - - 6 $ . -     @ o = @ ",
"    X = @   .   @ @ X @ . . X   .     . o . . $ $ 5 8 ; - . $ o   $ q w 6 q i i . . . - w i q q q + 5 q u i i w 5 $ . o $ .     "
};
