/* XPM */
static char *result[] = {
/* columns rows colors chars-per-pixel */
"64 64 254 2 ",
"   c #050503",
".  c #0A0705",
"X  c #070804",
"o  c #0B0A06",
"O  c #0D0C09",
"+  c #170705",
"@  c #130C06",
"#  c #1B0B06",
"$  c #130D0A",
"%  c #1A0D0A",
"&  c #0F1006",
"*  c #0F110D",
"=  c #131207",
"-  c #1B1207",
";  c #14120C",
":  c #1B130D",
">  c #17180C",
",  c #1C1B0C",
"<  c #161411",
"1  c #1B1511",
"2  c #1B1916",
"3  c #1D1A14",
"4  c #270C06",
"5  c #230E0A",
"6  c #350504",
"7  c #3C0605",
"8  c #350906",
"9  c #3C0A06",
"0  c #340C0A",
"q  c #3C0D0A",
"w  c #261307",
"e  c #23130D",
"r  c #2B140C",
"t  c #23190E",
"y  c #2E190C",
"u  c #34140D",
"i  c #3C130C",
"p  c #37180A",
"a  c #331B0C",
"s  c #221611",
"d  c #2B1611",
"f  c #241A15",
"g  c #2B1B15",
"h  c #241E19",
"j  c #2B1E19",
"k  c #341510",
"l  c #3D1510",
"z  c #331B13",
"x  c #3D1C13",
"c  c #321E19",
"v  c #1E220A",
"b  c #3F200E",
"n  c #232114",
"m  c #25211A",
"M  c #2D241B",
"N  c #2C221C",
"B  c #3C2215",
"V  c #34231C",
"C  c #3A241B",
"Z  c #3B271C",
"A  c #2B2723",
"S  c #332522",
"D  c #3A2622",
"F  c #342923",
"G  c #3C2A23",
"H  c #3A2E2A",
"J  c #39332B",
"K  c #3B3934",
"L  c #440505",
"P  c #4B0504",
"I  c #420A07",
"U  c #4B0A07",
"Y  c #440C0A",
"T  c #4C0D0A",
"R  c #530907",
"E  c #520D0A",
"W  c #471907",
"Q  c #43120C",
"!  c #4C120D",
"~  c #441B0D",
"^  c #4B1B0D",
"/  c #53110D",
"(  c #541C0C",
")  c #5A1A0E",
"_  c #441610",
"`  c #4B1611",
"'  c #431A12",
"]  c #4B1B12",
"[  c #481E19",
"{  c #541B13",
"}  c #581A14",
"|  c #601F10",
" . c #47230D",
".. c #5A250D",
"X. c #432414",
"o. c #4B2413",
"O. c #4C2914",
"+. c #42251B",
"@. c #47271B",
"#. c #4C2C1C",
"$. c #532313",
"%. c #5A2617",
"&. c #542B14",
"*. c #5E2B14",
"=. c #542C1C",
"-. c #4A321F",
";. c #5A3319",
":. c #67270D",
">. c #632D14",
",. c #6A2D12",
"<. c #662C18",
"1. c #643215",
"2. c #6B3414",
"3. c #683619",
"4. c #6B3A1B",
"5. c #7A3211",
"6. c #773917",
"7. c #422C24",
"8. c #482D25",
"9. c #592E23",
"0. c #453126",
"q. c #44312C",
"w. c #4B3528",
"e. c #4A332C",
"r. c #543325",
"t. c #58372A",
"y. c #4A3B35",
"u. c #543C36",
"i. c #693A23",
"p. c #753B24",
"a. c #3F403A",
"s. c #6E401A",
"d. c #7B421A",
"f. c #464338",
"g. c #59453A",
"h. c #684428",
"j. c #774728",
"k. c #77532C",
"l. c #684839",
"z. c #784934",
"x. c #5B4A43",
"c. c #555045",
"v. c #70564B",
"b. c #843C13",
"n. c #873B17",
"m. c #923914",
"M. c #89440E",
"N. c #844216",
"B. c #85451B",
"V. c #8B4819",
"C. c #974817",
"Z. c #944B16",
"A. c #964C16",
"S. c #94551B",
"D. c #9C531C",
"F. c #AE4F0E",
"G. c #A34E1A",
"H. c #A95A1B",
"J. c #B85C19",
"K. c #AD651E",
"L. c #B4661C",
"P. c #BE731C",
"I. c #874B23",
"U. c #974D24",
"Y. c #895426",
"T. c #975627",
"R. c #8D4C33",
"E. c #865534",
"W. c #965934",
"Q. c #A34927",
"!. c #A65B26",
"~. c #B95E23",
"^. c #97622B",
"/. c #9F6E3D",
"(. c #A76528",
"). c #B86927",
"_. c #B87428",
"`. c #A76A35",
"'. c #B66D35",
"]. c #A5723F",
"[. c #B87537",
"{. c #C35D17",
"}. c #C76A1A",
"|. c #D17413",
" X c #E07E1C",
".X c #C66824",
"XX c #C87827",
"oX c #D57B27",
"OX c #C47B33",
"+X c #C87B39",
"@X c #D37F32",
"#X c #886251",
"$X c #9A6E59",
"%X c #B67943",
"&X c #AC7653",
"*X c #BE8335",
"=X c #CB891E",
"-X c #D88318",
";X c #E48819",
":X c #E99615",
">X c #F1A515",
",X c #CC832B",
"<X c #C9862A",
"1X c #D58729",
"2X c #DC862A",
"3X c #DB8B2B",
"4X c #DC912B",
"5X c #CA8739",
"6X c #D28432",
"7X c #D58B37",
"8X c #DB8C35",
"9X c #CB953C",
"0X c #D89538",
"qX c #E48B24",
"wX c #E69529",
"eX c #EC9B2B",
"rX c #E18E33",
"tX c #E59B37",
"yX c #ECA626",
"uX c #F0AC2E",
"iX c #E4A235",
"pX c #ECA534",
"aX c #EDAB35",
"sX c #E5A23C",
"dX c #EBA43C",
"fX c #EEAD3C",
"gX c #F1AB38",
"hX c #EDB33D",
"jX c #F2B53C",
"kX c #F5BA3A",
"lX c #F8C43F",
"zX c #D29147",
"xX c #D79845",
"cX c #D9A847",
"vX c #DDAC57",
"bX c #E7A844",
"nX c #F1AD44",
"mX c #EEB344",
"MX c #EBB44A",
"NX c #ECB949",
"BX c #F2B543",
"VX c #F2BC47",
"CX c #E5B351",
"ZX c #E9B055",
"AX c #E4B666",
"SX c #F7C749",
"DX c #F4C34C",
"FX c #FAD34F",
"GX c #EDC25A",
"HX c #F5C852",
"JX c #FAD758",
"KX c #F1C866",
"LX c #FADB63",
"PX c #FEEB73",
/* pixels */
"X X     X X X   X X X X X X X X X X . X X . @ @ o o @ + = & o o @ o + @ @ o o . o X X o o X o o & o o o & w - = = = o o X X X o ",
"= o o & & O o X X X X X o v v = & = = - @ o @ = = o + @ w , , t - @ @ ; - 1 @ + - - = = = & o & = y - = - - = = & o & = & = & & ",
"= = = $ & &   X o o o & & v = & X o @ @ = o @ @ = @ + w p - - - @ + @ @ = s h @ t , - = = o = = y &.w - = = o & & o & & & & & = ",
"; ; = O o &   X o X o o X o & & = o o = o @ @ @ # # - W W w - = = @ @ , , e V e t t = , w = - a 1. .- > = & o & & & & & = = = v ",
"O o o o X o           X   X X X . . o o X @ @ # e 4 p 8 W :.w # @ + $ t e % H S t = @ w y y w &.Z. .o & X X o o X X o o & X & & ",
"  X   o O O < < < > ; * o & = X . X @ @ @ , t f Z p ^  ...b... .4 @ 3 s , V x.y.f t # - a  . .d.s.a = = = = & o o o o o & & = X ",
"o X X O O O < 2 3 3 , > o > = = = o @ = @ g , e B O.,.:.M.M.:.p ~ $.@.S V q.q.S M g - w  .;.&.2.a - , , > , , = > O & = = & = & ",
"X X       X O < > > > 3 O ; O = o @ @ - # f.x.H &.b.n.M.F.F.F.M.M.2.o.c D q.c j n y t v  .&.B  .v w = - , v n > > & X o & & o X ",
"      X     . O O X * * * O O O O o + @ % F v.v.b.C.F.F.{.|.|.|.-XP.M.y j q.j 5 % s j x B @.@.z a : = $ o > ; O 1 o   X O X O X ",
"              .   * * * * O o * : = + $ % c i.b.:.A.M.F.{.>X:X:X-X:Xd.w d q.D s s d g i.3.O.-.@.e ; $ = $ $ O o O O O       X O ",
"  X   X O O O * O A c.a.A m 2 f f s e G q.u.t.8.@.M.b.m.{.|. X|.|.}.d.B C q.u.e.e.x.t.R.'.j.u.8.M g n m m f h 2 2 2 A < O o * 2 ",
"O O O * * * < < * a.a.a.a.H h 3 s f F y.G D q.3.N.XX|.F.{. XqX~.P.=X*Xh.7.S u.x.u.v.t.Y.'.j.l.7.Z h m M m 3 2 h m h H K A * A J ",
"      X * * * < * H K K a.J A N M B Z V a B r.Z.-X>XuXP.L.;XqX.XXXjXVX%Xt.D l.#X#X$X$X&XI.8.r.Z V H A F f 2 h f h h A A A * 2 2 ",
"      X . . O O O < $ $ < 2 f f g g y z a b  .M.=XyXaX4XXX2XtX7XvXJXKXAX].E.z.z.#X&X&X&Xz.8.7.c V F , 3 : 1 < $ < 2 $ 1 < O $ o ",
"O O * * o o 1 A h h 3 3 M g f f h e t h.h.&.*.&.<XiX0XaXtXrXgXBXGXKXAXAXxXW.6.T.`.[.%X&Xz.r.u.e.f.V S g.y.K K f < < < 2 2 2 2 O ",
"O O X O $ o O ; < < $ : , g B x a w b k.s.:...Y.NXnX4XDXBXBXBXSXDXGXAXAXZXU.!.6X@XoXOX&XE.z.l.v.l.@.J v.c.y.x.h < s h 1 < ; * o ",
"O O * ; ; O < 3 s N N f 1 s B O. .u p ^ 2.S.T.cXbXcXfXDXaXmXSXSXkXmXVXNXHXeXqXqXwX3X1X(.V._.^.u.u.8.0.g.x.g.g.m 1 3 3 ; < * $ o ",
"  X O O O $ $ ; $ f q.S % 5 O.j.d.&.4 p S.cXCXxX_.NX0XsXiX0XkX0X0XBXSXhXVXkXuXwX2XXX,XOX4XjX1XV.@.C @.F S S y.A s $ . . . $ . . ",
"* o O O 1 s g s : j x.u.D G =.3.4.I.6.>.6.OXNX0X[.sX@X8XoX1X_.C.G.mXmX'.%X+XbXBXpX0XbXnXiX-X XD.%.X.Z 7.0.V G V j , ; $ < < 2 h ",
"2 * O O = ; : r z Z c G 7.G @.&.3.K.Z.Z.).0XeXpXaXBXiX!.Q.B.*.2.b.T.j.<.R.<.!.5X7XsXmXfXpX1XJ.I.j.i.r.h.r.Z V S M 1 $ < < < M f.",
"m o o X o $ + r x B C c B &.s.B.S.5XsXrXjXpXeXeX!.(.^.%.[ ` _ [ o...o.~ ' i >.6.C.6XBXdXrXoXG.n.W.R.z.R.p.c g g j 1 ; ; ; ; n J ",
"$     X o o $ % r z z z B d.V.V.9XLXPXLXlXyXiX!.` Y _ Q q _ q 7 8 Q Q 8 8 8 ..,.T.@XtXsX2X2X{.C.C.R.I.n.<.e e % % $ $ O ; ; = 3 ",
"O O $ 1 $ 1 h j c j C q.e.t.s.Y.cXPXPXFXlXoXH.d.=.[ [ ` ` ` [ ` Q q $.[ i i ! %.V.OXbXdXbXBXrXJ.J..X!.I.9.D j j N 2 m 1 ; 3 1 > ",
"o O O $ $ , 1 s s g V C +.=.).iXhXFXSXFXcXU.6.d.*.] ` Q q ` ` ` Q Y ` ` q i q { n.U.zXdX0XnXnXoX.X.XW.R.i.y.V N M S F f > ; = ; ",
"    X X @ @ : % % % 5 +.t.E.K.aXFXNXiXiX!.6.%.%.$.` Q Y 9 I I 7 Y Y 9 9 7 7 6 0 ( ,.5XVX7XbXMXnXoX).R.z.i.y.q.M j h 2 < @ < @ o ",
"    X X X 1 j f s % 5 7.y.i.V.6XLXDXDX7X_.!.6.:.^ Y Y q 9 L L I 7 7 9 7 6 6 6 6 6 8 k.DX+X%XzXnX+X!.T.I.i.e.7.g s $ @ @ o O o X ",
"o   o ; : 1 j S D j d D 7.;.j.(.0XXX7X0X7X,X(.4.{ } { %.{ T T T T T T 7 7 Y 9 7 l 9.j.`.zX'.zXbXxXT.I.p.p.q.q.0.D f f f 1 1 < $ ",
"o   O $ ; 1 j V c j d d p T.9XcXDX7X7X@XD.S.,.{ ] { } { { T T T T T Y L 7 7 7 0 ] %.<.<.;.R.@X0X7X1X).B.r.y.H H J N j h 3 1 ; ; ",
"    X X O o % 1 s d d 5 i Z.VXJXaXiX).H.5.( W Q ! ( ) { ) T P U T P L 7 7 Y Y 8 l _ ' [ i i.!.OXwX1XXXT.-.l.G V F H h h f 1 $ o ",
"          X . + % 5 d d ' 6.aXFXjX6X).D.b.( 9 9 Y U ! / T P P P L L L L L 9 7 6 9 0 0 8 0 7.<.U.4XsXXX<Xk.l.D j j S j f ; $ o   ",
"2 n > O o $ f e s k c x r.6.7XBXhX}.G.A.A.b.:.! ! T / U U R E R P L L T T Y Y Y 9 q Y u 0 l >.m.3XaX1X(.E.l.u.c j j j f s < ; ; ",
"m 2 2 2 o % 1 s k k [ t.k.W.9XeXrXm.5.5.5.b.b.) / { E P E / ) R P P T T T T Y Q _ _ ' i l $.,.V.3XpX0X^.h.u.u.c g h f f f ; ; : ",
"2 2 h ; . $ $ j j z 7.h.^.).dXyXqXm.:...) | :.) / T U P P R R R P P T T P Y I I i Q W ( $.$...5.}.eX9XT.+.0.e.V : : s 3 < % $ ; ",
"o O O .   . + j s e k h./.,XtXeX.Xb.,.^ Y I q Y Y P L P P P P P P P P L I I 7 7 9 ! ( ,.5.5.b.G.2XDXFXXX..V D S % $ $ o o . o o ",
"o o $ * $ . + s d d r r.V.XX3XwXXX:.Q q q Y Y T Y P P L P P R R P E E T Y Y Y Y Y Q *.N.V.Z.Z.J.0XBXJXfXS.C S D s % % @ @ ; $ $ ",
"O O * < ; $ $ d c c r $.d.P.1X1X6XU.] Q ~ ] ] } ` T U R R R T E E / / / T Y Y Y i _ ^ ^ *.N.A.(.8XjXJXcX_.#.f D f 1 : @ ; : ; ; ",
"X o O O $ $ % g V 8.9.6.I.Q.6X,XrX).<._ q Y Q Y T ! / / E T E T / T U T L Y ! _ Q Q 0 4 p ..H.1X7X0X0Xd.s.M t V f % : . o @ $ $ ",
"  X X o . % $ s c u.9.<.U.U.OX7X8X'.T.<.) Y 7 7 T T T T T T R R L L T ! L Y Y Y Y W Q Q ,.b.).7X3X<XcXD.2.-.a c s o s $ . . o . ",
"          . % g c u.9.` n..X8XVX8X!.+X[.6.) Y Y Y ` ! T L L T L L L U U I Y Y q Q Q Q  .V.<X7XzXMXHXLXhXL.d.-.c % % f f $ o .   ",
"O X . . $ $ : c c +.%.} m..X@XVXMX7X,XGXY.q l ` ! / } ! T } } / } } ! Y I 7 8 7 9 p i *.S.(.(.XXaXVXSXkX4Xs.H M s j V j 3 $ $ O ",
"< O o o $ $ d g c =.b.5.Q..X.XgXHXnXdXZX`.Y 9 7 Y Y 7 Y U } } T } { Y Y Y 0 q 0 0 0 l ` i *.U.0XSXJXFX*XY.j.h.V g g C B c : > = ",
"X . . . o $ 5 c r.i.:.<.U.'.~.rXSXnXrXnX!.| / 8 8 7 7 7 9 ` T Y T ` Q ` Y Y Y q 0 0 i =.2.2.!.HXJXPXPXcXI.^.B.X.s e f C r : : O ",
". . . . @ % % c 8.$.] $.p.R.Q..XnXdXtXdX_.n...6 9 7 7 7 Y Y I 9 T _ Q _ _ 0 7 0 0 8 0 o.2.V.oXkXJXPXLXxXT.I.t.M s % < % $ : $ o ",
"O X O o o < h D c B C $.<.R.R.). X2XxXrX@XT...Q q Y l Q Q ` Y _ 9.` Y _ _ _ q 0 8 4 u l *.<XeXkXDXDX1XK.3.X.w.M j 3 3 ; ; ; ; ; ",
"O $ O o . + s j % d x u $.Y.L.XXtXdXnXbX.XB.,.} 8 i Q Q i Y Y q Q Y 7 q _ l q l 0 0 u q 6.eXeXuX=XA.A.D. .&. .t 1 * : $ $ < < ; ",
"o . . O . . ; s $ + 5 4 @.H.-X;XqXMXMXMXOXN.,.Y 8 0 q 9 7 8 8 8 q 0 0 q [ ' l c c [ j.^.XXpXeX8XS.*.2.2.6.2.O.w $ $ % . $ ; ; $ ",
".       . . $ $ @ $ r r x ;.<XhXiXtX6X4XdX6X(.! 7 8 0 9 q 8 6 8 0 8 0 k l k 0 0 k %.7XjXjXfXDXvX^.;.y y o.o.a a 5 1 ; O o X o   ",
". O O   O $ O . @ % t r r x (.K.N._..XoXpXfX@Xm.C.n.i.9.9.@.l q l q q 0 k k k _ [ 5.,XFXHXMXxXGXcXs.O.0.7.B B C C S f 3 < o o O ",
"O * O X O O   . $ o % # 5 [ i.j.d.<XXXwX;XeXkXoXoX-XJ.i.9.[ i u l x l u 0 x s.S.b.[.VXJXGX[.C.I.Y.3.h.-.j j < f j 3 < < 1 ; O O ",
"X O O X O *   . $ % % % e d @.@.o.Z.}.-XwXeXuXSXjXjXCX[.6.( l _ l x i 0 i 6.<X7XzXbXMXZX_.n.1.;.j.j.k.M t f f 1 S h < O < $ o o ",
"                . O $ c c D +.x W 2.G.Z.).XXsXmXpXgXJXHXXXA.N.( ,.(.^.d.N.).MX9X*XcXdXOXY.3.r.=.-.z 0.M # 5 e s ; @   . o O     ",
"  X O * $ * * $ $ % 1 u.l.8.x u 4 x >.>.2.5.~.rX3XtXtXdXjXfXbX<XOXsXsXsXMXDXNXxX[.(.L.'.W.t.=.' X.B Z t % $ s 1 < @ $ $ < ; ; O ",
"X X O * * * $ O $ . < S f e e 5 4 4 Q ~ a u >.U.'.xXtXtXbXbX7X0X0XbX7X7XbXbXMXzX%Xt.4.j.8.[ c j g y 1 : $ % : $ ; $ 1 2 1 ; > * ",
"X X O * < * * O . $ 1 j % % + + # 5 r r 5 4 p *.I.'.OX5XxXzX5X5X*X5XzXxXbXbXMXvX/.@.q.M s s % % $ : : % $ $ < : ; < m m 3 3 > ; ",
"        O O X   . + % g $ $ % + + # 5 # + + o.2.6.j.].zX5X%X'.T.I.T.%X+X(.^.^.j.p.c S : % % $ $ $ $ $ o . $ $ $ O 1 * o O O O O ",
"                . . % : % + $ % $ % % # + + i b.>.B k.[.W.;.;.x %.i.i.i.$.o.d c x z D g % $ + $ $ + o + $ $ . . o o O O O O O X ",
"O O O O . O O O % s : r s : e s s s s d s 5 l >.o.5 C i.z.r.D d d ' 3.I.o.x z d ' C 7.C N h f s f 1 $ ; 1 1 < $ 2 < < < 2 ; ; * ",
"* O O O O . . . @ % % d g e : e s % 1 s s s % k u 5 g G r.e.D k z r o.2. .u a a X.+.G V f f S N j 3 f : $ O o < 2 $ O O ; O O O ",
"* O * * . O O O $ @ $ e : : ; 3 1 1 : 1 % % % e r + d S 8.0.V s g c z ~  .e e k x C c j 1 : S j h A h 1 < 1 ; $ 2 f < O < < * * ",
"            .   o o . o $ o $ @ O + $ % $ + + % + + % : g f s e s s e 5 % % $ e d k s % % $ % ; < s < $ $ < $ O < < O * O X X   ",
"      O * O O O . O O % < 3 f ; % 1 % 1 : 1 : t e % : s j : e s d s % % $ % s f f s : 1 1 1 1 3 1 : ; ; ; O $ ; O < < * < < * * ",
"O   O O * $ < < ; * O * < 1 2 < < < $ * ; % 1 e s , s g j f s j j f s $ $ s f j f f 1 f f h j j h 1 2 1 m n m m < 2 2 2 2 2 1 2 ",
"  O * < * < < $ O $ O O $ O ; % $ < * $ @ $ : 3 s 1 : f j 1 f g f 1 s , $ = $ : $ o . $ : 1 < < < $ $ < 1 1 3 1 O O X X O * O O ",
"    X O O   O O O O O O o O O   o o o . o O $ g s : 1 s : $ % % $ % s h s 1 f f $ @ . % f h f f 2 ; ; f 3 m m 2 < * X o O X X X "
};
