/* XPM */
static char *result[] = {
/* columns rows colors chars-per-pixel */
"64 64 219 2 ",
"   c #030302",
".  c #090704",
"X  c #070902",
"o  c #0B0B05",
"O  c #03030B",
"+  c #06090B",
"@  c #0D0D0A",
"#  c #100D07",
"$  c #100E0A",
"%  c #0E1003",
"&  c #0E100A",
"*  c #121205",
"=  c #181A05",
"-  c #13120C",
";  c #18160D",
":  c #17180D",
">  c #19190C",
",  c #030314",
"<  c #050B16",
"1  c #03031C",
"2  c #0E1211",
"3  c #161511",
"4  c #191610",
"5  c #1C1A13",
"6  c #191916",
"7  c #211D14",
"8  c #211F18",
"9  c #1E210B",
"0  c #1D2012",
"q  c #222216",
"w  c #24221A",
"e  c #28261D",
"r  c #27291C",
"t  c #2A291C",
"y  c #31301E",
"u  c #010122",
"i  c #01012B",
"p  c #091526",
"a  c #000034",
"s  c #01013B",
"d  c #050B39",
"f  c #0B0B3C",
"g  c #071439",
"h  c #2B2A21",
"j  c #343124",
"k  c #34332A",
"l  c #3B3829",
"z  c #393933",
"x  c #413C30",
"c  c #4D4937",
"v  c #444439",
"b  c #514C3D",
"n  c #010244",
"m  c #040B45",
"M  c #01014B",
"N  c #080B48",
"B  c #081A44",
"V  c #161745",
"C  c #020253",
"Z  c #01015B",
"A  c #080A58",
"S  c #071457",
"D  c #091E5D",
"F  c #151758",
"G  c #0C2547",
"H  c #11335C",
"J  c #2A2A57",
"K  c #020265",
"L  c #050B64",
"P  c #0B0C63",
"I  c #01026C",
"U  c #050C6F",
"Y  c #0A0C6C",
"T  c #0B1668",
"R  c #1A1C68",
"E  c #020474",
"W  c #050B75",
"Q  c #0A0C75",
"!  c #01057B",
"~  c #050B7B",
"^  c #090D7B",
"/  c #0A1577",
"(  c #0B1D7D",
")  c #171A77",
"_  c #0D2669",
"`  c #123768",
"'  c #0D2C74",
"]  c #0D257A",
"[  c #182979",
"{  c #0F3178",
"}  c #113877",
"|  c #242465",
" . c #35366C",
".. c #2B2B79",
"X. c #303075",
"o. c #15447C",
"O. c #4A4B42",
"+. c #585444",
"@. c #615C4D",
"#. c #6B6859",
"$. c #47476D",
"%. c #434377",
"&. c #4D4D71",
"*. c #54547E",
"=. c #5B5B7D",
"-. c #000782",
";. c #020A85",
":. c #080D82",
">. c #010D8C",
",. c #0D1484",
"<. c #091589",
"1. c #0A148B",
"2. c #111B83",
"3. c #141D8C",
"4. c #000E90",
"5. c #031394",
"6. c #081797",
"7. c #0D1C95",
"8. c #01159C",
"9. c #06199C",
"0. c #0A1C9C",
"q. c #0D2583",
"w. c #0E2B84",
"e. c #172788",
"r. c #0F3189",
"t. c #133A84",
"y. c #12348D",
"u. c #13398B",
"i. c #192698",
"p. c #133591",
"a. c #133B93",
"s. c #282E8F",
"d. c #35368A",
"f. c #323798",
"g. c #061CA1",
"h. c #021AA5",
"j. c #011CAC",
"k. c #001FB2",
"l. c #0C22A4",
"z. c #0A23AB",
"x. c #0A24AB",
"c. c #152AA6",
"v. c #1930AD",
"b. c #0322B3",
"n. c #0828B7",
"m. c #0024BC",
"M. c #092BBB",
"N. c #1434B9",
"B. c #2636A5",
"V. c #333DA3",
"C. c #154583",
"Z. c #16488E",
"A. c #154493",
"S. c #15449B",
"D. c #184A98",
"F. c #1A4D9D",
"G. c #1A5398",
"H. c #3E4499",
"J. c #174CA2",
"K. c #1A4CA2",
"L. c #1A51A2",
"P. c #1B55AB",
"I. c #1B59AA",
"U. c #1C5DB3",
"Y. c #2356AC",
"T. c #2B43B0",
"R. c #1E63B7",
"E. c #1F65BB",
"W. c #464786",
"Q. c #565685",
"!. c #444698",
"~. c #555695",
"^. c #636389",
"/. c #646494",
"(. c #63649B",
"). c #69799E",
"_. c #767694",
"`. c #73749B",
"'. c #4246A1",
"]. c #454AA2",
"[. c #5354A2",
"{. c #5B5DA0",
"}. c #5D61A7",
"|. c #6363A4",
" X c #6568AA",
".X c #7575A4",
"XX c #7E7EA0",
"oX c #7475AA",
"OX c #0027C4",
"+X c #032AC4",
"@X c #0B2EC0",
"#X c #012BCB",
"$X c #0931C7",
"%X c #0C35CB",
"&X c #153BC7",
"*X c #002ED2",
"=X c #0433D6",
"-X c #0133DC",
";X c #0839DB",
":X c #103AD1",
">X c #0036E4",
",X c #0039E8",
"<X c #2650D4",
"1X c #1F68C1",
"2X c #206AC2",
"3X c #3B61DB",
"4X c #0C42E6",
"5X c #84859E",
"6X c #8686A5",
"7X c #8686AD",
"8X c #8889B2",
"9X c #9495B2",
"0X c #9A9BB4",
"qX c #9C9CBA",
"wX c #ACACBE",
"eX c #AEAEC2",
"rX c #AEB2C5",
"tX c #B2B3C5",
"yX c #BEBECC",
/* pixels */
"                                                                                                            X X   X             ",
"X       X X               * = o   X % %                 % * = * X     X         * # . o X     X X X     X X     X X o X X X X   ",
". . . .                   = X                           X * % X X     X .       * * o o o   X         X             X X X   X o ",
"# o o                       X X X                       X   X X       * * . . o = * % * o       X     % %     X X X X   X X o = ",
"                                            X                         * # .   . * .   X                                     X   ",
"            @ # # o X X   % X             % * * *   o X   = * .     - - o * ; * - *       X X o o   X X X   X             X X   ",
"            . - ; ; * * . o X X X         X o o = = > * o 9 > o o - e h 5 5 5 5 0 5 o     X o o % X % % * % = X X     X % X X   ",
"              o o o * *   o X X     X X   X & X - q > : 0 q q & 3 4 5 5 5 o - ; > - o     X o     X X % * 9 9 % o       X       ",
"                      +       .           X o o . @ # 3 w e 8 # - 3 # @ o     .   o .           X         o o                   ",
"                    o   +     o o X           .       . - - $ $ o   o o           @ # o         X X                             ",
"              .   h v z h 0 - > ; - X 7 # & > q 8 $ 3 - w 5 e w 5 @ r w q 5 @ 6 8 j k h r 7 @ - : 0 0 0 0 > : : @ o o X         ",
"        o X & @ o z O.O.v k 5 - # - 5 5 o   o 5 6 @ # - - - 5 $ . X - 5 5 - @ - - 6 - - 4 4 3 6 5 3 6 r 0 : 6 6 3 o o # .     X ",
"          o o o + k z z x k h 8 4 5 r w 5 o . o -   @ o # . , 1 i i i u , O   .   @ $ 3 $ o o $ 5 0 h h - 3 6 - $   . o         ",
"                  . + o 2 3 $ $ @   # - ; -           u a N J Q._.5X_.=.J f n u O   - $ .   .     o & &   o o                   ",
"            - w 8 7 - - w 6 @ 3 - o > y t q > o @ i V /.tXyXyXyXyXyXyXyXyXyXwX&.f i + 3 $ 3 3 - - 2 h +.c z z - @ @ o   @ # @   ",
"        o     . o o   X - # o o o   * : *     , V ^.wXeXeXtXtXtXtXtXtXeXeXrXeXwXwX&.J i O $ 4 3 & & k #.@.b +.6 o 3 $ o o o X   ",
"X   o   o . o - - - X o - @ & &   X .     , i $.XXqX0XqXqX0XqXqXqXqXqXqXqX0X0X9X0X0X6X&.d 1 $ $ o o h @.@.+.b 5 @ - @ . o X     ",
"        X     o X             @ o o     1 s =.5X6X6X6X6X7X8X8X8X7X7X7X8X8X7X7X7X5X6X5X5X=.f u   X   - 5 4 8 4 .                 ",
"      X - - - - o - > r r h 3 5 6 5 : u a =._._.`.`.`..X.X.XoXoXoXoXoXoXoX.X8XoX`.`.`.XX_.&.a u @ 3 - 3 - @ - - @   .   o - - 5 ",
"> .     X o   X   @ - 5 q w : o o & < a J ).^.Q./././.(.(.|.|.|. X X|.|.|.|.oX(.(././.^.^.*.J a 1 w e l w - > 5 4 @   o o o w c ",
">                 @ w 5 - o o     + i n &.Q.Q./.Q.~.~.~.[. X[.}.[.[.[.[.[.[.|.{.{.~.Q.W.Q.*.J f a 6 b +.l o o o 4 #   . o o > l ",
"                  o & 3 -   X o o , a V $.%.W.W.W.~.!.!.!.!.'.'.'.'.'.'.].!.!.!.W.!.W.%. .%. .f a a 3 w 5       .   X     o . ; ",
"      - o & 3 6 : 6 w z k 6 : 5 @ s a J  .W. .X.d.d.H.f.'.V.V.V.V.V.V.B.V.V.'.d.d.d.d.....X. .N a a 1 e 8 w 6 6 6 - 8 - o * * o ",
"  . X   X o - o X - - - @   - & g n d F ..R | ) ) e.3.i.i.B.i.c.B.v.B.v.B.B.i.i.3.s.s.) ..R J n a a a 2 l l 4 6 8 r h > o o   o ",
"                        &   o + S m s A A A Y U Q :.>.i.6.g.c.g.l.z.z.l.z.h.6.6.>.,.^ Q [ P C F f n a i e z 8 @ o 4 3 .         ",
"          o @ o         & X   B S m s M C Z I E ! ;.4.l.8.h.z.n.k.k.j.n.v.h.8.c.i.i.! 2.) Y C M n N a i @ 4 $                   ",
"      . # - 7 8 e - @ - 3 - + ' D S F C Z ) I ! -.7.6.h.h.k.k.b.m.m.+Xn.k.j.j.l.5.>.;.! I ) C M n s a a , 8 k h w - 4 ; # - o o ",
"        o # 7 w q - & - X X + r._ S N A Z K E ! -.5.8.c.N.k.m.+X%X+X3X<X<Xn.k.h.8.c.;.! E I Z C n s a a u w k k k 8 4 5 - - o X ",
"              # - o         p p._ D M P K K E ! >.5.c.j.k.m.%X#X*X*X;X:X+Xk.k.j.h.c.;.-.E Q Z C F s a a u h h 8 w 8 ; 5 ; - .   ",
"                            ` u.' T R A K I ! :.>.l.v.k.n.$X#X*X-X-X;X;X*X+Xm.k.l.8.>.-.! E K Z M n a a u 3 5 3 4 @ . o         ",
"- > o     . # @ o o o @ o . u.Z.} _ T Z K I ! 1.7.g.z.b.@X%X#X;X>X,X,X;X*X#XOXn.z.g.4.;.! Q Y P M n a a i o ; 5 3 @ o $ #       ",
"q - 5 -     $ - - - - - - o Z.D.t.' T Z K E ! :.T.0.h.N.&X#X*X-X4X,X,X;X:X#X@Xk.h.8.4.;.! W L P M n s a i @ 4 4 $ @ # - ; X o o ",
"- - 5 o     o @ - # # - @ o A.P.D.t.[ T K Q ! -.5.5.h.k.M.OX*X-X,X,X>X-X*X+Xm.k.h.8.4.;.<.E Y A C n s s s o - o   . # - # .   o ",
"    X                       o.I.D.D.' L Y E ^ 3.;.l.z.k.k.OX#X*X-X>X-X=X*XOXk.k.h.8.7.;.i.) Y Z M N n a u                       ",
"      o       . @ o o o o - H U.F.u.] / Y I E -.>.0.h.j.M.OX:X:X*X*X<X*X#X@Xk.N.T.0.7.:.! e.) A M n s n i o   . o   .     X     ",
"  X   o o     o & o   o * o p 1XI.L.u.] U [ E ~ :.5.8.h.k.k.m.OX#X:X%X#X&X&Xk.j.9.8.1.~ W U A C n s a a u - o $ - o X   o X o o ",
"              o o X   o o   . 1XE.L.A.w.( Q I 2.1.7.0.h.h.k.k.n.+Xm.+Xk.M.k.h.h.5.7.1.! W K Z C n s a a , #   o o               ",
"                        o     Z.2XU.F.u.p.] / E <.:.>.8.8.h.j.k.k.k.k.k.j.h.g.6.>.1.:.^ U K C n n a a s O                       ",
"                              < 2XE.P.K.p.q.] W ,.,.>.>.6.8.h.h.h.h.x.g.g.g.5.4.-.1.~ I K Z A n n a a a . o   .   . .           ",
"                . o o           I.2XE.P.S.y.p.( ~ ,.:.:.>.>.5.8.8.8.8.8.5.4.4.-.3.E I I Z Z A s a a a + 8 e ; @ @ 4 5 - o       ",
"o               o $ $           p 1X2XU.P.Y.K.q.,.q.^ ! -.;.>.1.>.6.6.4.>.;.;.e.,.E Y Z Z C N s a a i - w h w 4 # - 4 - ; o o X ",
"                o @ @           O G.2X1XU.K.K.y.p.,.2./ ! 1.<.;.-.;.;.;.;.1.! E E K L Z M M n a a a O o 5 8 w 4 o o @ # @   X   ",
"                                  p E.2X2XY.Y.S.p.q.w.W E E E ~ ! ! ! ! E E / I K Z C C n n s a s u o .   . @ - o o             ",
"          . o . o - 4 # $ - 5 7 > 3 ` 1X2X2XU.P.J.a.y.,./ W E E E E I E I K I K Z C C n n s a a u # - .   o - - 5 - @   o o o o ",
"                  . $ . # - ; - o o + C.2X2X2XU.U.J.a.r.q.( q.U I Y K K L Z Z C C M n S a a a u           . @ o o .       @ o o ",
"                          # # o       O C.2X2X2XE.U.J.S.a.r.r.] / T L L L C C M n s s d a a u             . o             @ o X ",
"                        o o o     .       ` 2X2X2X1XE.P.F.A.u.u.w.] T T T A S m N m m d m d                 .     . .           ",
"                        .     o @   .   . $ p 1X1X1X1X1XU.U.L.F.A.t.{ { _ ' T _ T D D D g 3 @ 3 6 3 5 6 5 3 3 7 5 w - $ o       ",
"                              o o o       o 6 6 o.2X2X2XE.E.R.I.F.A.A.C.t.} r.{ ' ' ' 1 . 5 + o @ 3 4 8 - o o 3 5 $ @ # - o     ",
"                                        o 3 $ 3 + p G.R.E.E.2XE.R.U.L.L.J.A.Z.A.} p     o 3   $ 6 - 3 - .   - $ e 7 .   o       ",
"                                        . $ .     $ # < G ` o.G.G.L.Z.C.} ` G <         + 5 w 6 o + - o         .               ",
"          X . .   o                     @ @ o   . # - o o % : - 2 & + & &   @ - @     . o $ &   . . - o     . o o     . o o o   ",
"      X   .               +             o o     o @ o     > - - & o % % X           X o         o o o       . . X . - ; - & o X ",
"        o o             o                               o @ X   o                     X                     o o X o 7 8 - - o o ",
"                                    O             .                                                               $ o           ",
"                                                      . X                                                               X       ",
"                  .   o o o o 2 $ @ 3 3 $ . + . #   # 7 j j 5 o o @ $ # $ @ # .   o - 5 # o o   @ o   . # $ . . $ $ $ . ; # . . ",
". X                   X + . o @ o @ @ 3 $ .         ; e j x h - o o o     . @ . . . $ 3 .   o o o # # o .     # - o     o       ",
"o                         + o $ @ + @ $ o .         ; e j x e # o 5 3   o # o .   @ $ $ .   . @ 3 8 7 $ # *   . 5 5 $   o o o X ",
"                            .   .                     . = ; $ . . $ o               .       .   $ - . .   # .   . o   .         ",
"          .             @ 3 - o . @   o . $ .     . . $ 5 # . . . . .     @ $ 3 3 $ . @ . . $ $ $ # @ . . . . . . o @ o o o @ @ ",
"        . o $ o + . . o $ - 3 - $ $ . . o o $ # # # # ; 8 $ $ o $ ; #     - 4 7 $ ; $ 3 ; 7 8 8 7 $ ; $ 5 7 7 7 # $ - @ - - - $ ",
"      o   o $ o       .       . . o . . .   # $ # # # ; 7 $ #   # $ ; #   . . .         . # # $ $   . $ # * - #             o   ",
"      +           .                           . . # ; $ #   .       - 7 $ $ 5 ;       # ; 5 ; ; ; o . ; 5 7 5 4 $ .             "
};