/* XPM */
static char *result[] = {
/* columns rows colors chars-per-pixel */
"64 64 189 2 ",
"   c #040403",
".  c #080705",
"X  c #070804",
"o  c #0A0A06",
"O  c #0D0D09",
"+  c #100F06",
"@  c #100F0B",
"#  c #0F1006",
"$  c #0F100A",
"%  c #111307",
"&  c #13120D",
"*  c #19150E",
"=  c #17180B",
"-  c #1A1B0C",
";  c #161511",
":  c #181712",
">  c #171812",
",  c #1B1A14",
"<  c #1E1D18",
"1  c #211E0E",
"2  c #211E17",
"3  c #211F19",
"4  c #1E210C",
"5  c #1F2114",
"6  c #1F201A",
"7  c #22250D",
"8  c #2B320D",
"9  c #222215",
"0  c #282713",
"q  c #292E14",
"w  c #24231C",
"e  c #29251D",
"r  c #2A2A1E",
"t  c #312B1F",
"y  c #1E1F21",
"u  c #252522",
"i  c #2A2721",
"p  c #272921",
"a  c #2C2A23",
"s  c #272728",
"d  c #2C2C29",
"f  c #312E25",
"g  c #312F29",
"h  c #2F3126",
"j  c #323126",
"k  c #393626",
"l  c #373927",
"z  c #34332B",
"x  c #3A3629",
"c  c #3C3A2D",
"v  c #2D2E32",
"b  c #2F3032",
"n  c #353433",
"m  c #3C3B33",
"M  c #353439",
"N  c #423F32",
"B  c #3B412C",
"V  c #3F403E",
"C  c #48412E",
"Z  c #424134",
"A  c #4E4A35",
"S  c #42423B",
"D  c #494639",
"F  c #4B4B3F",
"G  c #524B35",
"H  c #57533D",
"J  c #3A3B48",
"K  c #474641",
"L  c #4A4740",
"P  c #4D4C43",
"I  c #525145",
"U  c #5B5748",
"Y  c #454455",
"T  c #565654",
"R  c #595957",
"E  c #55555A",
"W  c #595858",
"Q  c #6A6656",
"!  c #6C6B5B",
"~  c #706A5A",
"^  c #535564",
"/  c #5D5D62",
"(  c #55566D",
")  c #555974",
"_  c #595B74",
"`  c #5B5E7F",
"'  c #646464",
"]  c #62636A",
"[  c #696A6D",
"{  c #71716E",
"}  c #666876",
"|  c #6C6C74",
" . c #65667B",
".. c #6D6F78",
"X. c #717173",
"o. c #747478",
"O. c #7B7C7D",
"+. c #5F6289",
"@. c #646580",
"#. c #717483",
"$. c #767983",
"%. c #7B7D85",
"&. c #72758B",
"*. c #6C6E97",
"=. c #757993",
"-. c #787A94",
";. c #7376A1",
":. c #777AA0",
">. c #7F819E",
",. c #838383",
"<. c #8D8D86",
"1. c #86868A",
"2. c #8D8E95",
"3. c #868999",
"4. c #939395",
"5. c #A2A29F",
"6. c #8689A4",
"7. c #8C8FAA",
"8. c #8E92AE",
"9. c #9497AA",
"0. c #9B9CA9",
"q. c #979AB3",
"w. c #9C9EB7",
"e. c #9A9BBB",
"r. c #A3A3A4",
"t. c #B1B1A9",
"y. c #A7A8B6",
"u. c #A6A8B8",
"i. c #B4B4B8",
"p. c #A1A2C0",
"a. c #A7AAC3",
"s. c #AAADC6",
"d. c #A3A6CC",
"f. c #A9ACCE",
"g. c #AFB4C7",
"h. c #AFB2CB",
"j. c #B5B5C5",
"k. c #B4B6CD",
"l. c #B6B8CF",
"z. c #BBBDC9",
"x. c #A9ACD1",
"c. c #B4B6D4",
"v. c #B6B9D6",
"b. c #B9BCD1",
"n. c #B1B4D9",
"m. c #B7BBDC",
"M. c #BABDDA",
"N. c #BFC0CF",
"B. c #BFC3D2",
"V. c #BEC1DC",
"C. c #C2C3CC",
"Z. c gray80",
"A. c #C4C5D5",
"S. c #C7C8D7",
"D. c #CACAD6",
"F. c #C4C5DA",
"G. c #C7C9DA",
"H. c #CBCCDC",
"J. c #CFD0DD",
"K. c #D8D8D7",
"L. c #D2D2DD",
"P. c #D9D9DA",
"I. c #C7CAE3",
"U. c #CBCDE3",
"Y. c #CED1E5",
"T. c #D3D4E4",
"R. c #D7D9E6",
"E. c #DADAE5",
"W. c #D5D6E9",
"Q. c #D7D9EB",
"!. c #DCDCEA",
"~. c #DDDCF0",
"^. c #DFE0EA",
"/. c #DFE2F2",
"(. c #E3E3EC",
"). c #E8E7ED",
"_. c #EBEBEC",
"`. c #E4E5F1",
"'. c #E7E8F1",
"]. c #ECEBF3",
"[. c #EDEEF8",
"{. c #F0EFF6",
"}. c #EFF0F5",
"|. c #EFF1F9",
" X c #F2F2F6",
".X c #F8F8F7",
"XX c #F5F5FA",
"oX c #F8F7FC",
"OX c #FCFCFD",
/* pixels */
"X               . . X X                 X       X     o o o X X         . X   . .       .   o o #     o X # o # # # X # o X   X ",
"= % o o % % . X X X o X X 7 8 4 % # 4 = o o # # # # X X - 4 4 0 - o . - - # # + - - % - = % % - % % % % # %   % % # = 4 - = % # ",
"@ + % @ % %     % . o o o 7 # o X # o # % o o # o o   o % 4 % $ # X   o + . + O 1 1 = % % o = o o # X % # # X # # # X # % # # # ",
"= * @ % . % . o X . X % o o % % # X # # X X o X o X   # # # % # # . o - * @ % * 0 % % 7 % X # X # % o % = # o % # % # X % # - 4 ",
"@ o % o . @           X         X X o     X # o # #   . % o X # .   O 0 2 * o @ 0 @ + % %   . .     X X     #   X   o   o # # o ",
". . . + @ @ , : < % = > o 4 -   X X # # # 4 7 7 8 # # % # q * O   X O O % ; 2 : % , . % % - 4 = - % # = = # $ X o % + o # # = # ",
". o . X % . O ; < < - * . - % % *   o # X o & = 9 - 4 & & 5 * # , < i w < > : 2 9 : # X o # % o % X = * 4 - - # - + o - - % o X ",
". X       . $ & % # > * O & % % X O # % o # * $ 5 h 6 > e r w $ 6 < < r w & : < < w & # % o % % o = # * - 5 q $ % o X o o % X X ",
"      o o   o o O   O ; o & O O O   O # o & > & & ; ; < w a u ; < w , ; & X & ; O ; $ o   # o   > # $ X X = = o o     o + . .   ",
"                  .                         X           . o .       o                 .         X   X         X                 ",
"  .   o . o O O . g L V u w > r & w o w : , w i : ; 3 w x a Z a i O x w e r ; u w n z j a a @ : 5 e 6 5 B 5 , , & & & O o   X + ",
"O O O & ; ; > , ; R m S S p , < & > w 6 % O & > w O ; : , , < , $ o 5 a a < > , & u , ; , < , < < = 5 a 6 6 6 w < & ; : O & % O ",
"  . o   & ; ; ; ; K n z L m < a < w x e a : ; @ ,   , : : : : : , o # $ , O , O O : ; u , ; @ u p u z m 6 < u 6 , O ; & & . ;   ",
"                  .       & O ; ;   O @ & @   . .                   .     X   X   . O o O   .   o   o   . o                     ",
"O & & O o O r m i j i u c w & : > # 9 l l e r O e j < M t.)..X{. XoX).5.P u 6 r : 6 u i @ , , , > > , ! I S P @ : ; : @ : , : & ",
"o o . o # . O O & O O # & : & : > & , * * o % o c <.}.OXOXOXOXOXoXOXOXOXOX_.,.g ; d 6 u O 3 3 ; ; > 6 ! ! S U ; : < , O & O O   ",
"O O $ & ; O > , w , & & w > 6 : & & $ $ ; ; 6 T P.OXOXOXOXOXOXXXoXXXoXoXoXOXoXK.W , , , @ 3 3 ; ; ; 6 Q ~ U U ; : < , O ; ; $   ",
"    X $ o o       X       X o   X O     O b 2.(.oXOXOXOXoXoX{.{.{.].{.{.{.XXXXXX).2.v O .     .   o O ; o O O . o               ",
"$ O ; o 6 6 < , < < p j j m 5 j g w r b $.N.}.oXoXoXoXoXXX{.'.'.'.(.(.(.(.'.'.].XX{.z...s 3 ; O w > $ > < : & < ;   ; . ; , ; & ",
"w $ O X # & $ $ . < O ; w h ; & O & d 9.^.|.oXoXoX{.{.|.{.].'.).(.(.^.!.E.R.!.(.].XXoXT.3.s , O w u < D p : w w < ; O @ & ; ; A ",
"w o X   . O o O o ; z p 6 # ; & & , #.Q.}.XXXXXX{.{.].].].'.).).(.(.!.E.T.T.E.`.|.XXoX[.F.] 3 . A H Q Q C : & ; < O & ; ; > & k ",
"O                 ; o O   X O   X b g.'.|.oXXX}.].'.'.'.).(.(.(.(.^.E.E.T.T.E.].oXoXoX XW.9.y . @ * 2 w e           O . X X   & ",
"@ O > w < , 6 w , a 6 F z ; w w 6 3./.|.oXoX|.].'.).(.(.^.!.E.P.E.E.E.L.J.L.!. XOXOXoX X!.M.| y , i , h w z 5 6 a , u : % < 9 & ",
". & $ # $ > $ & $ w > < < o > , E ^.|.oXOXoX].'.'.(.^.^.R.L.J.J.D.L.L.D.H.Y.E.].OXOXOXoX~.I.p.M ; , < N c Z < < u a a w & % # * ",
"            .     o o o , X & u B.'.oXOXOXoX].'.(.(.^.E.T.H.D.S.D.D.D.F.D.J.Y.^.oXOXOXOX/.U.V.=.s g : k f P a O & w ; @ . O . o ",
"    o     w < ; & o ; O ;     } /.[.OXOXOXXX'.(.(.(.(.E.P.D.C.C.A.D.H.H.H.H.H.T.'.oXOXoX/.Y.I.m.M w w @ , O . . O O . @ . .     ",
"O . & < 9 : f a c , ; , w w u V.Q.|.OXOXOXXX'.(.(.(.^.E.T.D.D.C.S.J.J.I.I.H.F.H.!.].XX[.~.Y.I.V.^ 3 : 2 w z P z j , i , < w ; & ",
"o   O % * : a i , > , > X O M m.~.oXOXOXOX}.(.(.^.^.(.E.P.D.D.A.D.I.G.H.H.D.F.H.T.!.~.!.W.Y.I.m. .f e f : a m z d w w 3 : , O % ",
"    X O % . ; : < : O O O o  .n.'.oXOXOXXX].(.(.^.E.(.E.P.K.D.D.S.F.F.S.H.J.H.H.T.T.T.T.Y.U.I.m.-.M 2 t , I i i u a 3 w : : o . ",
"    X         . O .         :.m.'.oXOXoX}.(.^.^.(.(.E.(.!.P.J.J.D.F.A.F.H.H.Y.T.T.T.T.Y.U.I.I.I.8.Y @ * : a ; 3 i @ ; @ O O X   ",
"5 j & & o ; 3 : < , ; , , @ ;.n.'.XXOXXX'.(.^.(.(.(.(.(.(.E.E.E.T.L.D.J.T.R.E.E.!.R.T.Y.U.H.U.U.7.( @ i w 3 i f 3 3 2 w : & * % ",
"r & : : . O , , : , : < : ; *.m.}.XXXX'.(.(.(.(.(.).(.(.).).).).(.(.^.(.(.(.(.(.^.!.R.Y.U.I.Y.W.e.@.O , ; , 2 : 3 & & : : . ; & ",
"< 5 u $ . O O ; : : > : ; O @.v.'.].}.'.`.(.).).).).'._._.{.].].].].{._.]._.].).`./.R.T.U.Y.W.Q.x.=.o O , < : & % ; , , : ; @ : ",
"X X O .   . . . : o O O O . +.c.'.].].'.(.(.)._.].{.{. X X X X XXX X X X XXXXX{.].`.^.W.Y.W.~.W.x.w.o               o .     . . ",
"O O & ; O o   & , > @ 3 , , ) p.!.).'.).'.'.].{. X.XoX.XOXOXOXOXoXOXoXOXoXOXoXoX X].`.^.^./.(.Y.I.j.; & % ; @ : , O @ o o & & % ",
"o & O ; : O o ; & ; O O & ; J >.R.!.).'.'.]. X.XoXoXoXOXOXOXOXOXOXOXOXOXOXOXOXoXoX X].'.[.[.].W.`.1.< < * < @ : : % & o : O & # ",
"o O O O O O o & & ; o & & O i ` T.R.!.(.'.].XXoXOXOXOXOXOXOXOXOXOXOXOXOXOXOXOXOXOXoXXXXXoXoX[.`.'.n < , & , & ; : o O . o O O O ",
"  o   O o O . ; # o X O & O   _ F.T.E.(.). XoXoXOXOXOXOXOXOXOXOXOXOXOXOXOXOXOXOXOXOXOXOXoXoX[.|.H.o o           O . .   .   .   ",
"                    .         J q.U.W.!.).].XXOXOXOXOXOXOXOXOXOXOXOXOXOXOXOXOXOXOXOXOXoXoX X'.]./   o O & O O ; O o O O X       ",
"O . X   & O o O O ; & . + @ o ; #.I.W.E.(.'. XoXOXOXOXOXOXOXOXOXOXOXOXOXOXOXOXOXOXOXXX].`.Q.Q.i.< & , : u f : O ; w w < & O % . ",
": o O X & O O O : : : . O O . . n u.W.W.!.).].{.oXOXOXOXOXOXOXOXOXOXOXOXOXOXOXOXoX].Q.I.M.M.j.S , o 2 w e f a < ; , : ; , O & O ",
"X o o       O O ; : ; o O o O . ; X.H.W.W.T.^.'.].XXoXOXOXOXOXOXOXOXOXOXOXOXOXoX'.T.M.d.d.k.] < 3 . @ : w a a , ; : , < , . O O ",
"          .           .           s 0.Y.U.H.L.W.!.'.}.XXOXOXOXOXOXOXOXOXOXoXoX'.Q.M.f.f.V.0.u     O &   . . O ; ; O O   o & O   ",
"# X $ X . ; : & ; , < * ; 3 w e 3 i / b.I.V.F.G.H.R.(.]. XOXOXOXOXOXOXOXoXXX].^.U.F.G.E.R.[ d : < e : . O : : < w ; & @ ; & ; O ",
"$ O O o   o ; O @ & 2 O 2 : 3 , ; @ 3 =.l.A.b.k.b.V.G.T.'. XoXoXOXoXoXoX X].'.^.!.). X).r.j O o   o       ; ; & > & O o O : ; & ",
"O O O O           .       ; : O . @ O ; ' y.N.k.a.u.g.h.F.T.(.).].].}.].].].].].}.}.Z.O.n a :   . O $ O o O ; O & . o . ; & & & ",
"            o o O . . ; & & : ; O O .   O d %.y.q.e.e.6.7.e.a.h.l.F.Y.T.R.^.^.^.P.4.S i                   o                     ",
"o o o   . ; o . . o O . & @ O ; : O ; @ ; 2 f W 1.#.#.&.&.&.-.6.8.j.S.G.G.H.J.i.R d p : O z : < < ; a u f 3 : z i i ; , : O . . ",
"O @ O . O O   . O O O . O # O > @ , O   O ; < d u W 4.} ^ ) _ ) ) =.s.z.C.i.' u & & O . O s o ; , < < u : & @ : u O & , ; @ ; o ",
". O O o o O o   O @ o       X O         ; < ; y < ; z m { 1.O.o.o.1.4.X.z ; ; O O O @ @ O O . O a , w : ; @ u : a w , O ; o O . ",
"                .   o                 . ; < ;   : y 2 : > o X o O ; $ O X   .   .   . O O d d s . O w ,     . O ;               ",
"O O ; ; ; , , : @ , ; & ; : O o   y @ @ < < ; . @ , , : > w p h e w 5 > u ; > y y , @ : , , , O ; @ < ; $ . : ; , & O ; , > > O ",
"  . O $ O & O & o     O @ & @ @ . . . O @ ; ; . , ; , o . w * 9 * $ > = & O O O o o @ & O o & . : O O o X . & o & O & & ; % & % ",
"o o O O ; ; O o   O O @ O       . O O @ @ @ . .   O O   ; & & o = O O X O . O O o O O & O . o . O @ & o o o ; @ & ; w u w < > & ",
".       o O o   . o O O O . O O . O ; O   O . . @ ; O . .       X X X o . O O   @ @ o O .   .   . . O       . . . 3 ; . O o . # ",
"                        .       .             .       O                                       .           O   .     @ O O   . X ",
"O O o O . O O O @ : @ ; ; ; ; ; ; ; ; y y @ @ @ : . 2 3 G N 3 & & , , w : ; , & @ ; , s 2 ; & . @ * . O , w @ O , : , O t ; * @ ",
"O   O O O .         . @ ; O ; ; @ ; ; ; ; ; O O . + 3 i N N g * ; o ; . O @ : @ O @ , : O . ; & ; @ * O o . @ O , O   . & . . o ",
"& @ @ & O O O . O o O @ O ; ; ; ; ; : : @ O O ; . . 2 f f N s O : 3 u . & : & @ O O , : @ O @ & 3 i 3 : : : . @ , y , . , ; & & ",
"              . o o     O . O . . . . . . .       . . . 2 + & & ; : ;   O @ @ O O O ; O . : . ; 2 3 @ @ @ : O @ , ; @ @ o       ",
"    . O O @ @ @   O o & y y s ; @ : O : ; 3 ; O * , ; , i O & & , 2 , @ @ ; , 3 w , O ; @ @ 2 3 , @ 3 ; @ O O @ . , , ; : , : ; ",
"O   O o @ @ @ ; & @ O @ O ; ; ; ; * @ @ & @ : ; * @ * 2 w ; : & * 3 @ @ O 2 3 i , 3 * 3 2 2 3 i 3 ; 3 * 2 2 e e @ , , : , , & , ",
"  O & ; . , : , O O @ & O O ; $ * ; @ O O O * ; * : * 3 w ; * @ @ ; 2 @ . @ O @ O . . . O . O @ @ . . ; * * : @ . ;     O O & O ",
"    o O O   .   O O o o o o     . .   . O . . @ @ @ , ; ; . @ . . @ 2 3 ; 3 e 3 . . . * 3 e 2 , 3 O * 3 w e e 3 : @   O O .     "
};
