/* XPM */
static char *result[] = {
/* columns rows colors chars-per-pixel */
"64 64 231 2 ",
"   c #040302",
".  c #090704",
"X  c #070902",
"o  c #0B0B05",
"O  c #0E0D09",
"+  c #1C0502",
"@  c #110D06",
"#  c #100E0A",
"$  c #0E1004",
"%  c #0E100A",
"&  c #121306",
"*  c #181905",
"=  c #13120B",
"-  c #19160D",
";  c #17180E",
":  c #1B1A0E",
">  c #161510",
",  c #191610",
"<  c #1C1B13",
"1  c #1D1C16",
"2  c #290804",
"3  c #380804",
"4  c #261807",
"5  c #231B0C",
"6  c #3C1109",
"7  c #211E13",
"8  c #221F19",
"9  c #1E2009",
"0  c #29230C",
"q  c #38230A",
"w  c #242315",
"e  c #2A2515",
"r  c #272810",
"t  c #2C2A16",
"y  c #24231A",
"u  c #2A261B",
"i  c #2C2A1B",
"p  c #352B15",
"a  c #3C2D15",
"s  c #312E1D",
"d  c #34311D",
"f  c #3A371E",
"g  c #292720",
"h  c #2C2B21",
"j  c #312E23",
"k  c #343323",
"l  c #3B3622",
"z  c #3D3A23",
"x  c #33332A",
"c  c #39362B",
"v  c #3C3A2C",
"b  c #3A3A33",
"n  c #530302",
"m  c #47140A",
"M  c #4B110A",
"N  c #471D12",
"B  c #650201",
"V  c #790402",
"C  c #641F11",
"Z  c #452E0F",
"A  c #4F340C",
"S  c #442815",
"D  c #592817",
"F  c #4A3617",
"G  c #563B17",
"H  c #6D3018",
"J  c #413D25",
"K  c #413C2A",
"L  c #433F30",
"P  c #653924",
"I  c #733E26",
"U  c #5D4214",
"Y  c #73480D",
"T  c #684818",
"R  c #754E19",
"E  c #7C5418",
"W  c #444026",
"Q  c #4A4627",
"!  c #46432A",
"~  c #4A462A",
"^  c #4D492C",
"/  c #55482A",
"(  c #54512E",
")  c #474437",
"_  c #544E31",
"`  c #504C3D",
"'  c #575233",
"]  c #5B5534",
"[  c #5C5936",
"{  c #5B5439",
"}  c #714A25",
"|  c #795827",
" . c #72552C",
".. c #645C34",
"X. c #645D3A",
"o. c #67623C",
"O. c #6A633C",
"+. c #6F6A3E",
"@. c #74673C",
"#. c #4A4B42",
"$. c #5A5644",
"%. c #6A6445",
"&. c #746D43",
"*. c #786F46",
"=. c #797245",
"-. c #7A7445",
";. c #7B7449",
":. c #676453",
">. c #737160",
",. c #830301",
"<. c #890802",
"1. c #980402",
"2. c #971308",
"3. c #A80603",
"4. c #B70A05",
"5. c #B51305",
"6. c #B42914",
"7. c #C20B04",
"8. c #C91206",
"9. c #D51907",
"0. c #C52815",
"q. c #D42C12",
"w. c #D92912",
"e. c #E42E14",
"r. c #EE3614",
"t. c #F33F26",
"y. c #875818",
"u. c #945913",
"i. c #A3591B",
"p. c #9D6617",
"a. c #95641B",
"s. c #A56F1B",
"d. c #AA761C",
"f. c #835925",
"g. c #93522C",
"h. c #AC5E2B",
"j. c #896427",
"k. c #956522",
"l. c #9B6C2A",
"z. c #9D7229",
"x. c #896634",
"c. c #926734",
"v. c #8E753C",
"b. c #99733A",
"n. c #A2752B",
"m. c #A97A29",
"M. c #B27E27",
"N. c #A67B34",
"B. c #A47B3B",
"V. c #DA4B33",
"C. c #FC4728",
"Z. c #F8563D",
"A. c #905C42",
"S. c #866946",
"D. c #80774A",
"F. c #837C4C",
"G. c #907750",
"H. c #A27442",
"J. c #FB5943",
"K. c #F66854",
"L. c #E77865",
"P. c #FE7D6C",
"I. c #AE842C",
"U. c #B58826",
"Y. c #AA8237",
"T. c #B58533",
"R. c #B68838",
"E. c #C7993E",
"W. c #8A814F",
"Q. c #8D8452",
"!. c #8D8850",
"~. c #908754",
"^. c #948B55",
"/. c #988B58",
"(. c #979056",
"). c #9D935B",
"_. c #B48945",
"`. c #BA9547",
"'. c #A28257",
"]. c #A0965C",
"[. c #A4995E",
"{. c #B59252",
"}. c #9B9061",
"|. c #A89765",
" X c #A69B61",
".X c #A99E62",
"XX c #AE9369",
"oX c #ACA164",
"OX c #ADA26A",
"+X c #B1A666",
"@X c #B2A668",
"#X c #B5AA6A",
"$X c #B9AA6A",
"%X c #BEB16E",
"&X c #B8AD7A",
"*X c #BDB178",
"=X c #C59A47",
"-X c #C39B58",
";X c #CAAA52",
":X c #C9A658",
">X c #EE866F",
",X c #FC8878",
"<X c #C6A662",
"1X c #CEB462",
"2X c #C2B673",
"3X c #C8BB79",
"4X c #D7C87F",
"5X c #B9B182",
"6X c #E99C82",
"7X c #FB9884",
"8X c #C6BC82",
"9X c #FCA68B",
"0X c #F1B28B",
"qX c #FDB392",
"wX c #CDC48D",
"eX c #D4C684",
"rX c #D4CB9A",
"tX c #DCD29C",
"yX c #FBC79A",
"uX c #DCD3A5",
"iX c #E3D9A8",
"pX c #F5D3AB",
"aX c #E5D9B2",
"sX c #ECE4B7",
"dX c #F2EAB7",
"fX c #F5EEBF",
"gX c #F8EAC6",
"hX c #F7F0C4",
"jX c #FAF4CB",
"kX c #F3ECD3",
"lX c #FFF3D6",
/* pixels */
"                                                    . o X % & o % O O O o X X X X                           X X   X X           ",
"X       X X               & * X X   X $     X X X O X & : w 0 r 9 - - : : & @ @ * & @ $ o X X X X       X X     X X X X X X X   ",
"X . . .                 X * X X   X   X X     X O & @ - 9 r r t e w w r 7 - - - 5 * & & $ X X X   X   X X X         X   X X   X ",
". @ .                         X     . X   X o O O & - 7 w t d d f l l z f t 8 5 r 5 & * $       X     $ X     X X X X   X X $ * ",
"X                                         o & & - : 0 r s f J ^ _ ] _ [ / l p w e : & & O X                                 X   ",
"            O O O O X X   X X         X O * w r d i f W Q ..O.+.*.=.;.&...' ^ z f t 7 - & $ $ o X     X X   X             X X   ",
"            . = - - & &   $ X X X . X % & : r t f Q ( ] [ -.W.!./.5X X).F.&.X._ ^ z t : & - & & & X $ & & & * X X     X X X X   ",
"              o o o & & X o o X   X O * ; : d d Q o.O.+.;.(.).[.*XjX@XOX/.;.O.[ ' W d e : - & O X $ o % & 9 9 $ o       X       ",
"                      . X .   . X X # = 7 t l J ( o.&.F./.[.+X+XtXhX%XOX).W.&...( ^ J p w 5 = O $ . X X X o X                   ",
"                    . . . .   % & o - : w d K ] X.@.D.W.)..X+X2XiXhX2X$XoX^.;.+.X.[ _ J s w : - % X X X   X                     ",
"            . X   h ) x g y > 1 w w w l J ^ O.;.W.Q./.)..X@X2X3XsXhX4X%X#X[.Q.W.F.F.;.%.[ ! i w w w w w w ; > ; O o o .         ",
"      . o . % % o b #.#.) x 8 < 1 w k ! ~ [ =.Q.).).].[.[.+X$X2XsXhX3X%X#X[./.Q.Q.F.=.%.{ ^ z k i w 8 i 1 = < > > o o @ . .   X ",
"          . o . . x b b ) b g g w d ~ ' o.-.W.&XwX#X.X.XoX+X+X2XsXjX2X+XoX].)././.~.Q.D.%.( z d s i k h = = , > &   . .         ",
"              .   o . o % > > < 1 w l ' &.!.).rXsX3X@X.XoX[.oX+X8XiX@XoX[.].].].].&X5X^.*...W i < < > > o O o                   ",
"            = y 1 1 = = y 1 ; 1 w t ~ &.Q.].+XiXfXeX*X#X$X+X+X+XkXgX*XoX.X.XoX#X#XrXuXoX~.*.{ K s w h $.) b b = O O O   O # O   ",
"            . . O O X X ; & = : 7 i Q o.W.}.#XiXfXeX2X$X+X[.[.aXgXfXkX].[.oXoX$X%XtXiX#X/.F.X.! s w b >.:.` $.1 o = # . O X X   ",
"X   .   O X O & > % . X % = ; ; < t J [ F.).#XiXhX8X%X@X[.[.).iXdXyXgX/.[.oX.X#X%XiXiXOX).;.o.! t < k :.:.$.` , O = O . o . X   ",
"      X .     o   X .   . o % ; w i z ' *./.oXiXjX8X@XoX[.).^.iXyXqXpXQ.).]. XoX*XaXuXoX(.&.' k w : < w , 1 > . .               ",
"    X   % = = & $ o < y h k 1 i k z ^ [ *.(.[.wXgX3X@X|. X X~.0XqX9XyX(.].].)..X*XsXrX).~.&.( l k y ; < ; % = = o . .   o # = 1 ",
":       . . . .   % = < 1 y ; < : i W ' %.;.Q.OX*XOX X].].).Q.6X9X7X0X!./.).). XoX&XOX(.;.o.( f ! z h v y = ; : > O   . o o y ^ ",
":                 o y 1 % O & % : e f J ^ X.}.pXjXlXOX~.~.Q.;.<X7X9X9X;.W.F.F..XgXlXaX}.o.[ W s ' { $.$.c O o O > O . . o o = z ",
"                  X = > = o o & < 5 8 s z ~ A.P.7XqX/.*.*.;.%.>X,X,X,X+.=.-.=.'.qX9X6XS.Q z s w e i d y <           .   . o o = ",
"    X & o % > < ; < y b x , < w e e s l J J g.Z.K.,XG.+.%.&.o.>XP.,X>X;.@.O.%.G.7XP.L.A.W ! ^ s y u y x y y , < 1 = 7 = O & & O ",
"  .   X   % % o . = % > O . = < : < 7 5 8 i H q.t.K.A.( _ [ [ L.K.K.L.[ ] ] ' A.J.J.V.I h d c h 1 < y ! c c 1 < y y h : . X X X ",
"                        %   o = - - = : 8 1 C 5.0.t.} L l l k V.Z.Z.K.k z z J } C.q.6.D < r 8 < 8 g 8 j c b y . o > = .   .     ",
"          X # o         % X   o o . O = , % M 3.5.e.D g t i w V.C.C.V.w i t i D r.9.6.m % w y > , 8 1 = , , #         .         ",
"      . O @ 7 8 u = O & ; % > > ; , y i h u D 1.4.w.P L z y y 0.t.t.V.& 7 w w D r.8.2.m > y k j 7 , - - - 8 x h u > , - O & o X ",
"        O @ 7 y 8 = % = . X o . o > w = 7 < M <.3.9.D i i 1 > 6.e.e.0.X = : & m 9.5.2.S < g j h u w 7 w , g x x x 1 , , = & O X ",
"              O = o           o o o = o % o M V 1.8.N 8 8 >   <.5.5.2.  . - # m 9.4.<.S O y , > 8 7 < e 7 c h 8 y 8 - < - # .   ",
"                                  o , = .   3 ,.1.8.6   . , T i.h.h.i.T 0     3 8.3.<.2 o g o . - . O - # 7 < , , O   . .       ",
"& , O     . # O O O o O o o # , = = > = . . m V <.7.6   . 4 T n.I.I.U.E 5     m 7.3.V 2 . O O # - # . # = = , < # # O O O       ",
"w = < &     # = = # = = & O > , > % = - o o M V <.4.6   # = > 4 Y y.q @ @   . m 4.<.V 2 O o   & # O O = # - , , = # @ - - . X O ",
"; & < O     O @ & O O & O o = > & O @ @ O . 3 V ,.4.3       A x.z.a.j.R . .   2 1.V B 2 o O   . .     o O & & o . . # - O     O ",
"                .   .       o . . o         2 B V 3.+       `.=XE.T.I.-X      + V B n +                                         ",
"      o         o . . O O & & = = . .     * m n B V u.M.&   e I.p x. .Z   O G M.=X_.b.| a = O O o O . . . o   . o   .     X     ",
"      o o     O % o   o O & O & & o @ O - p | Y.`.N.M.A . . o G G b. .: X o 5 E m.a.a.G < = - < > > = > & : o O = . X   . o o X ",
"              o o     o O   .     o , o . o 0 Y u.u.T = . # @ : u.B.4 @ X . & # U b.o       @ = = = = & o # . . O               ",
"                .     . .           o o       G 1XN.5 O . O . @ <XN.q &       . / -X/ o       O .                               ",
"                                            X  .:X| 5 .     . Z k.g.E X       @ R I.} @       .         o o . .   .             ",
"                  o .             o # .     q Y.=XR.F = . j v XXR z.G.E . .   4 p.u.c.J   O o . O o - - y y > O O - , - o       ",
"O               o # #             . O       a n.`.n.Y 5 7 Y.:XT | y.a <X=X{ q T f.T.b.*   O O . O o = , y h y , # = , - = O X X ",
"                o O O                         G H . p F.<XXX} a.:XT.T.y.| c.T O 6 E F @   o @ - =   . O , y 8 > O O O & O       ",
"                                  .             / c.f.c.x.7   4 R.y.A = 8 k.{.f.F   . . . . O o . O = . . . O = o O             ",
"          . O . O = = # @ = < < - - @ . . . O . # = G n.N.f.D : G f.> S H.R._.G . . # = # 1 y O > , &     o % = = = o   O O O X ",
"                  . # . X - - - o o               &  ._.-Xa | R T B.F x.a _.B. .# O O O 7 y O             . o o o .       O @ X ",
"                          # O .                   o S @.S.| R c.B.T.b.S.j.S./ y 7 7 = O < 1 .             . o .           o . X ",
"                      . O . O                   .   o . o       l.{.4 O > = . o # > , =                     .     . .           ",
"                              . O . .   . = 1 u g 1 v L ! h - @ p.H.- # # > = O # 1 , O o 1 = > > = 1 1 7 = , 1 < y = # O       ",
"                              o o o       O 1 g 1 O c L L i & O y.z.1 o O % = o . .     O 1   o % > , 1 & O O = 7 # O O # o     ",
"                                        . > > > O # h h w 7 - < R I.: . o O o     .     o >   O , > , = .   # O y 7 .   O       ",
"                                        . # .     # > O     . A R.m.T *                   1 8 1 o   > O         O               ",
"      .   . . .   o   . .               O O o   . O # O X T v.`.`.l.=Xz.j.+ o % % .   . O % o . . . = o     . . O     . O o X   ",
"      X .               .   .           o o .   O O O   4 T.1X=XY.b.=X=XT.x.  .     . %     .   o o o .     . . o   & - & O o X ",
"        o o           .               .                 @ `.=X;XR.:Xm.z.x.7                                 O o X O 7 7 - & O o ",
"                                                  .       * T f.s.m.E R 7                                         # O           ",
"                                                        R a.m.a.p.d.N.u.y.F #                                                   ",
".                 .   o o o o % O O # , % . . . O   O G y.;Xk.M.m.I.d.{.j.R U .   o > , # . o   . O   . @ @ .   # O O . - . . . ",
".                     . o . . % O O > # O O   .     , / R f.B.N.m.d.m.Y.R x.U . . . # > .   o o O @ @ O .   . O # O     O     X ",
"X     .                 . . O % O O O # .           - g s  .+X<X4X4X1XR.E 5 o .   O = # . . . O - 7 < @ O - . . , , # . O O . X ",
"                                                        - - @ . . & o   X           .           # = O .   . .   O O             ",
"          .           . % % > O . .   O O # .     . . @ , O . . O # . .   o = > > # . . . # # @ # O # .   . . .   O O o o O O . ",
"        . O O o   . . . O > # % # # . . . @ # # O O @ - 8 = # O @ @ O     = , 1 # , # , , < 7 8 < @ = # < 7 7 7 # # & O & = # - ",
"    . o   o O O   .   . .   O   . O .     . . @ @ @ @ - < # @   . # - #     . o         . O O @ # . . # @ @ - @ .           X   ",
"      .                                       O . # = @ @   .     . @ 7 @ - < =       @ - - - - = o O - < 7 , , O .             "
};