/* XPM */
static char *result[] = {
/* columns rows colors chars-per-pixel */
"64 64 227 2 ",
"   c #030302",
".  c #0A0604",
"X  c #070902",
"o  c #0B0B05",
"O  c #0E0D09",
"+  c #130601",
"@  c #1B0700",
"#  c #110C06",
"$  c #1B0A02",
"%  c #100E0A",
"&  c #0E1005",
"*  c #0F100A",
"=  c #121306",
"-  c #181904",
";  c #13120B",
":  c #19150D",
">  c #17180E",
",  c #1B190D",
"<  c #151510",
"1  c #191610",
"2  c #1C1A13",
"3  c #1C1B16",
"4  c #240C02",
"5  c #2C0E01",
"6  c #200E08",
"7  c #330E01",
"8  c #231107",
"9  c #2C1105",
"0  c #24140A",
"q  c #2D150A",
"w  c #221D0F",
"e  c #2E190C",
"r  c #341103",
"t  c #3C1303",
"y  c #321509",
"u  c #371909",
"i  c #3B1B0C",
"p  c #211E14",
"a  c #241E17",
"s  c #1E2009",
"d  c #25220F",
"f  c #252214",
"g  c #2B2515",
"h  c #2D2914",
"j  c #24221A",
"k  c #2A261B",
"l  c #2D291C",
"z  c #372617",
"x  c #312B15",
"c  c #332C1C",
"v  c #3A3516",
"b  c #3A3617",
"n  c #36301D",
"m  c #3B341D",
"M  c #292720",
"N  c #2C2B21",
"B  c #332D21",
"V  c #353124",
"C  c #3B3523",
"Z  c #3E3925",
"A  c #333229",
"S  c #39362A",
"D  c #3D3A2D",
"F  c #3C3B32",
"G  c #3E3F38",
"H  c #421503",
"J  c #481500",
"K  c #441906",
"L  c #4D1B06",
"P  c #451B0A",
"I  c #4B1D0A",
"U  c #531B04",
"Y  c #5B1E05",
"T  c #531E09",
"R  c #611C02",
"E  c #4B240F",
"W  c #53210D",
"Q  c #5B240D",
"!  c #492715",
"~  c #5C2611",
"^  c #562815",
"/  c #423B1D",
"(  c #56321B",
")  c #62240A",
"_  c #66250B",
"`  c #6B2609",
"'  c #79290A",
"]  c #652A11",
"[  c #6A2C13",
"{  c #732E11",
"}  c #6B331C",
"|  c #7A3315",
" . c #773519",
".. c #433C22",
"X. c #4A3D25",
"o. c #453728",
"O. c #473728",
"+. c #443C2C",
"@. c #673B25",
"#. c #7E3C21",
"$. c #4B441D",
"%. c #494127",
"&. c #4E442B",
"*. c #544B23",
"=. c #554B2B",
"-. c #564A2A",
";. c #5A5223",
":. c #5D542A",
">. c #444132",
",. c #4C4737",
"<. c #534632",
"1. c #554A34",
"2. c #594D34",
"3. c #574C3A",
"4. c #5D5333",
"5. c #625629",
"6. c #645A2B",
"7. c #6A5E2C",
"8. c #714C31",
"9. c #635637",
"0. c #6A5C3A",
"q. c #6D622B",
"w. c #72642E",
"e. c #796C2F",
"r. c #6E6336",
"t. c #726533",
"y. c #766933",
"u. c #7B6C33",
"i. c #77683B",
"p. c #7E7133",
"a. c #7D7038",
"s. c #4C4B42",
"d. c #5B5644",
"f. c #665C47",
"g. c #6E6243",
"h. c #766645",
"j. c #7A6B41",
"k. c #686251",
"l. c #777261",
"z. c #882F0C",
"x. c #89320E",
"c. c #873717",
"v. c #953A15",
"b. c #813C20",
"n. c #9E411B",
"m. c #A4441D",
"M. c #884326",
"N. c #944828",
"B. c #8F5030",
"V. c #AA4A24",
"C. c #B14F27",
"Z. c #B4512B",
"A. c #B95A35",
"S. c #837334",
"D. c #8A7A36",
"F. c #84763B",
"G. c #8C7D3B",
"H. c #907F36",
"J. c #BF613A",
"K. c #C3633D",
"L. c #8A6B47",
"P. c #877746",
"I. c #93754C",
"U. c #AA6641",
"Y. c #A87550",
"T. c #BB7F66",
"R. c #C86843",
"E. c #CD734E",
"W. c #D37A57",
"Q. c #8F8039",
"!. c #93823C",
"~. c #99873C",
"^. c #9C8A3D",
"/. c #A08E3F",
"(. c #978546",
"). c #9D8C42",
"_. c #9F9141",
"`. c #9A8657",
"'. c #A18F42",
"]. c #A6894C",
"[. c #A49243",
"{. c #AA9645",
"}. c #AD9A46",
"|. c #AC9A4A",
" X c #B39E4A",
".X c #BE8059",
"XX c #AA9655",
"oX c #B49755",
"OX c #B6A147",
"+X c #B5A14B",
"@X c #BAA54D",
"#X c #BEA94E",
"$X c #BCA451",
"%X c #B9A456",
"&X c #A89165",
"*X c #B49C6C",
"=X c #BDA367",
"-X c #C4AE4F",
";X c #C3AD52",
":X c #C3AC59",
">X c #C6B153",
",X c #CAB456",
"<X c #D58968",
"1X c #C2A96B",
"2X c #C9B667",
"3X c #D3B961",
"4X c #C8AF71",
"5X c #CDBB74",
"6X c #D3C06B",
"7X c #D6C476",
"8X c #E0CF7E",
"9X c #D9BC98",
"0X c #E7A98F",
"qX c #DECE85",
"wX c #DBC29E",
"eX c #E4D385",
"rX c #E1CE93",
"tX c #E9DA96",
"yX c #F3C4AD",
"uX c #EFCAB4",
"iX c #EEDBBD",
"pX c #F1D1B3",
"aX c #F5E6A9",
"sX c #FCEDAC",
"dX c #FBEEB3",
"fX c #F9E8BB",
"gX c #FAD4C4",
/* pixels */
"                                    . X   X o # ; : , p f l l n n V c B l a p : # o o . X . X             X       X             ",
"X       X X               = - & o X = = o O # : , p a g v b b b n x m Z m k p , w , = = = X o o X   X     X   X X X X X X X X   ",
"o . . .                 X - X X . X . # = = , p p g h h v b $.b b v / X...c g a h w - - = o . X X     X X X     X X X X X X   X ",
"# . .                       X X X X O ; ; , w w d h x v b $.$.*.;.*.&.:.-.X...z v h p , = o X X X X   X X X   X   X     X X & - ",
"X                             X . O % ; - - d d x v v $.*.5.q.w.w.t.6.q.6.-.<.../ g p , ; o X                             X   X ",
"            O O o O X X   & & X # % ; , , h v $.$.$.;.5.q.D.Q.~.).Q.F.y.7.i.r.9.-.X.g p - = = # o X X X X   X             X X   ",
"            . ; : : = =   = = > , , , , d x b $.;.q.e.S.D./.}.5X7X{.{.(.S.i.F.h.0.2./ c p , w : = X = = = & - X X     X o X     ",
"              o o o ; = o = ; 2 p f h h x b $.;.w.S.D.Q./.+X#XtXqX%X|.].G.y.t.i.i.0.&.C x p g 2 : = o & = s s & o       X       ",
"                      o o O 1 3 f l V m b *.5.q.e.D.!./. X-X>XaXqX;X+X[.Q.u.w.7.t.i.2.&.m g k p > o X X X X X                   ",
"                    o O * < 1 k n m ..X.$.5.t.p.D.H.~./.OX-X>XsXeX-X@X}.!.S.u.w.t.a.j.9.&.c g k 3 ; * X     X                   ",
"              X   M >.G A B c C Z %.%.5.q.p.!._.'./.[.{.@X>X3XsXeX>X;X+X[.).D.G.Q.`.`.I.r.2.C c c l h f f > < < O o o           ",
"      X . X * * o G s.s.s.>.B c n %.;.y.p.G.oX|. X[.{.}.+X#X,XdXeX#X#X+X{.^.~.~.~.(.XXi.:.%.&.C n l j N 2 > 3 1 > o o O o     X ",
"          . . o o A G F ,.>.S Z m =.i.P.'.{.sX5X X}.}.}. X$X-XfXqX#X+X{././.'.^.).).XXa.:.$.&.C V V S A < < < < %   . O         ",
"              o   O o O 2 f g c m *.a.[.%X:XsX7X@XOX}. X$X$X XrX5X+X}.{./.[.}.}.5X%X|.P.6.*.-.V f 2 3 > o O X                   ",
"            = j a 3 : 2 B g f c X.;.F.%X:X3XsX8X-X-X#X;X3X:XtXiXiX=X#X+X}.+X@X;XtX5X X).u.r.0.&.n k A d.,.F D < O . o   o % O   ",
"        X     o O O O = 2 g d x / ;.S.[.+X7XsX8X>X;X-X;X:X:XgXyXgX4X#X%X+X@X@X;XtX7X+X[.p.j.g.=.n k +.l.k.,.d.3 o < % o o o X   ",
"X   o   O   O = > ; o ; 2 f h n b ;.u.).}.7XsXqX#X@XOX}./.1XuX0X0X1X[./.{.;X-X>XaX6X+X_.F.I.r.%.l p V k.k.d.,.3 * ; * o . o     ",
"          .   o   X o O : f g m %.*.q.G.[.2XsXtXOX+X{.^.^.=X0XW.W.oX~.~.[.{. X2XfX2X|.~.F.P.9.Z h 2 2 k 3 3 2                   ",
"      X ; < ; = o ; f N D <.&.2.4.:.y.G.XX=XrX5X%XXX{._.'.1X<XE.W.oX'.'.[.{.{.4XpX1XXX(.(.j.4.%.C k 2 2 2 * ; ; o   o   o ; < 2 ",
", X     X o   X   * 2 k n >.,.<.X.$.6.a.&X9XpXgX9XXX).).^.=XE.R.K..X~.~.'.'.].9XiX9X*X(.`.j.4.Z >.Z B D j ; > > 1 O   . o o f ,.",
",                 O j j a N o.<.m / ;.:.`.<X9XuXwX(.Q.!.P.*XA.A.J.].D.D.H.H.].gXuXyX&Xi.P.0.&.m 2.4.d.f.S o o * 1 O   X o o > Z ",
"                  o > a a a B +.Z b / *.(.B.Z.K..Xa.y.y.e.&XZ.Z.C.Y.e.S.e.S.G.R.J.A.I.5.9.&.m g x l n k 3           o     o o = ",
"    X ; o * < 2 > 3 j F F c C <.%.Z X.=.L. .x.m.U.(.y.t.t.`.V.v.V.Y.S.S.w.w.I.m.n.v.I.,.=.1.1.V k k k V j j > 3 2 ; a ; O = ; o ",
"    X   X o * o   ; > 2 < : k Z c m m C f.W U ' B.r.6.;.*.L.v.v.v.L.t.7.5.5.F.z.' R f...Z ..Z V k 2 k >.S S 3 3 j j N , . X X X ",
"                      X ; O 3 k g c c C <.u 7 U 8.r.-./ X.0.x.z.z.8.-./ X.9.8.` U t X.c g g k k j B j A A F M . o 1 < o         ",
"          X % o         ; o % 2 > , p C o.4 5 t ~ 2.2.%.X.<.z.' z.8.1.C X.2.@.Y t 7 C a p k j j 2 a p ; 3 1 O                   ",
"      . O O p j k ; O ; > , 3 3 2 j C <.<.0 4 7 ^ f.f.h.f.4.` ` ` 8.9.<.1.<.( J 7 4 >.c g k D V a 3 ; > > a A N M < 1 ; ; = O X ",
"      X o # p j a ; * ; X X ; * = 2 B l o.6 @ 5 ! 3.3.1.3.+.U Y Y X.+.+.+.+.! t 5 4 A V a k A N k j 2 a , M A A A 3 1 2 ; = . X ",
"              O * .           o = ; 2 1 p $ @ 5 i V C S S z 5 7 7 k N N B B i t 5 @ l N < k 3 < f p 2 l a D N a M a ; 2 < ;     ",
"                                  O a 1 ; + + 5 q < 2 1 e P I } ~ ^ W 0 < 1 q 7 4 @ O O ; k O   ; . X : % p 1 < < # . o .       ",
"= : O     . % O O O o o o o ; 1 ; ; : > # + + 4 q 2 < O 0 K _ _ [ U u % < O 6 7 $ + o O . o O ; < % o % < % < 1 ; O o % #       ",
"f > 2 *     % ; ; ; ; ; ; O ; 1 2 O ; > # + + 4 0 : 2 o # q 7 $ 7 5 o ; > O $ 4 $ + < O O o   ; ; # o ; ; ; 1 : < O % ; : X X O ",
"> = 2 O     o O ; O ; = O o ; > ; = % o + + + $ 6 O o     0 q K $ 0 O . .   + $ + + . . O O   . X     . & = ; o   . % ; #   . O ",
"    X                       o .   o       . . @ +       6  .Y ] ~ M.7         .   .       X .                                   ",
"      o         O o   O O * ; ; ;   .   .       5 T 4   o [ ] K T c.: O . [ c.8.@.r . . < ; O . o . X .   o   . o         X     ",
"      o o     # % o   o = = O = = O ; # @ ] U.T.N.L r o o $ 4 u E a 2 ; . P 5 7 5 L P * 1 < < 2 2 < 1 < ; , o % ; o O   X o X X ",
"              o o     O o .       o 2 o + y @ 7 7 u a % o % I ~ Q :   # . . 7 9 9 +         # < < O > % o ;   O o               ",
"                        .           o o     U } 4 % ; O o . 6 | 5   ; ;       ~ [ # . .       o                                 ",
"                                            | U.$ > ;       4 9 t   . .       K Q $ % %       . .     . . o   .       .         ",
"                . o X             o # .   y t I 0 3 f >   o.I 7 I ( : . .   . I ~ ~   .   o o o O o ; ; j j 1 O O 2 , ; O       ",
"o               . ; O             . o     I ~ P W % . : i b.z T e } @.! , . I I I ]       o # o ; o ; 2 j N j 1 % ; 1 ; < O X X ",
"                o O O                     E 7 y + ] b.#.b.] 4 | T  .W b.I 8 e + ~ 9 O O   o % ; ;     O 1 a j 1 o o O * O   X   ",
"                                  .         { + $ q K B.. 4 T B.5 7 < : H 4 r K $   . .   O O . . O ;     o O O O o       .     ",
"          . O . o ; > % # ; 2 2 : , # . . . O % i W } + 6 : q 5 q a : y Q r o o X   O < % 3 j ; ; 2 ; X   . ; > : > .   o o O X ",
"                  . % . O ; 1 ; o . .           . E ] I 5 0 O 5 q 0 i 9 Q | . ; % O O O p j O             . O O o .       O O X ",
"                          O % o                 . W [ { 9 T 7 P T  .I P { ] > 3 3 a ; o 2 3 X               o             O . X ",
"                      . o o . X                 . . 6 6 . . Y T ) 6 . o 1 % o . ; < < ;                     .     .             ",
"                              o O .       > a j N 2 D +.+.B 1 I P ; ; o ; < < O * 3 3 O o 3 ; < 1 < 2 3 3 < 1 p 2 j > % o       ",
"                              o o o       O 3 M 3 O S +.+.M : U 5 , 1 O O O * O o O     O 3   . O < 1 3 ; O O ; 2 ; O O ; o     ",
"                                        . < < < O ; N M a 3 : K E 2 :   . O O     .     . < . O 1 < 1 < .   % O j a .   O       ",
"                                        . < .   . % < O . X . t 8 ; o                     3 j 3 . o < .         o               ",
"          X . .   o   X           .     * O .     O * O . : E c.H 8 : * ; X O * O . .   . < O X o   < o     . . o     . o o o   ",
"      X   o               X X           . O .   O O % . ^ } | ] K { c.i .   X X       O       X o o o       o . X   ; : ; X o X ",
"        o .           X o             .               y N.] ] ~ W { | ] q             o                     o o X O p p > ; = X ",
"                                                  X   y | ] A.T ~ J ) )                                           % O           ",
"                                                        $ 4 4 b.t @ .                                                           ",
"                  X   o O . O * * O < < O .   . O   $ i L 5 7 5 t t t 4 # o O . X O ; 3 O . .   o o   . O ; . . % % O o ; # o . ",
"X   X                 o o   O O O O O < * .   . .   $ H ] H t t H ) @ U @ $ O   X . ; ;     O . o O % o     X . ; o     o       ",
"X     X                 O . o O O O O % .   .       5 4 K _ K _ H U T @ $ $ O     . < % . X . O 1 a p % O ; . . 1 1 % . O o o X ",
"                                                      5 i P ~ ^ ^ T t 5 $ .         .         . % ; o .   O   . O O             ",
"          . .           O * < . X .   O o O .     . . % 1 0 z O.! i $ .   . % < < % . . . O % ; % o O . . . . .   O O o o O o . ",
"          O O O   . . o O < ; < # % O . . # % O o # % 1 a ; % # ; ; O     > 2 2 % 1 % 1 1 1 a a p % ; ; w 2 2 p % % ; O % > ; ; ",
"    X O   O O O   o   . .   .   . O .     o o % # # # ; 2 ; O   . % ; #   .   O         o o o # %   . % % = = #             X   ",
"                                              o o # ; ; O   .     o # p ; % 2 :       o : 2 : : : o O < 2 a 2 1 % .             "
};
